<svg width="20" height="20" viewBox="0 0 20 20" fill="none" xmlns="http://www.w3.org/2000/svg">
<mask id="path-1-inside-1_2785_392" fill="white">
<path d="M11.0889 15.2505L6.86518 16.6584C4.56067 17.4266 3.40842 17.8107 2.80018 17.2024C2.19195 16.5942 2.57603 15.4419 3.34421 13.1374L4.75212 8.91369C5.39047 6.99864 5.70964 6.04113 6.46485 5.86284C7.22007 5.68456 7.93376 6.39825 9.36115 7.82564L12.177 10.6414C13.6043 12.0689 14.3181 12.7825 14.1397 13.5378"/>
</mask>
<path d="M11.4051 16.1992C11.9291 16.0246 12.2122 15.4582 12.0376 14.9343C11.8629 14.4103 11.2966 14.1272 10.7727 14.3018L11.4051 16.1992ZM6.86518 16.6584L7.18141 17.6071L7.18141 17.6071L6.86518 16.6584ZM3.34421 13.1374L4.29289 13.4537L4.29289 13.4537L3.34421 13.1374ZM4.75212 8.91369L3.80343 8.59746L3.80343 8.59746L4.75212 8.91369ZM6.46485 5.86284L6.23509 4.8896L6.23509 4.8896L6.46485 5.86284ZM9.36115 7.82564L8.65404 8.53274L8.65405 8.53275L9.36115 7.82564ZM12.177 10.6414L12.8841 9.93435L12.8841 9.93432L12.177 10.6414ZM13.1665 13.308C13.0396 13.8455 13.3724 14.3841 13.9099 14.511C14.4474 14.6379 14.9861 14.3051 15.113 13.7676L13.1665 13.308ZM10.7727 14.3018L6.54895 15.7098L7.18141 17.6071L11.4051 16.1992L10.7727 14.3018ZM6.54895 15.7098C5.36442 16.1046 4.58393 16.362 4.02144 16.462C3.74911 16.5105 3.60141 16.507 3.52918 16.4952C3.49838 16.4901 3.49037 16.485 3.4953 16.4874C3.49736 16.4884 3.50035 16.4901 3.50346 16.4923C3.50655 16.4945 3.50787 16.4959 3.5073 16.4953L2.09307 17.9095C2.75873 18.5752 3.63713 18.5618 4.37172 18.4311C5.11354 18.2992 6.06143 17.9804 7.18141 17.6071L6.54895 15.7098ZM3.5073 16.4953C3.50672 16.4948 3.5081 16.4961 3.51031 16.4992C3.51254 16.5023 3.51425 16.5053 3.51526 16.5073C3.51768 16.5123 3.5125 16.5042 3.50747 16.4734C3.49566 16.4012 3.49214 16.2535 3.54058 15.9812C3.64065 15.4187 3.89804 14.6382 4.29289 13.4537L2.39552 12.8212C2.0222 13.9412 1.70346 14.8891 1.5715 15.6309C1.44082 16.3655 1.42741 17.2439 2.09307 17.9095L3.5073 16.4953ZM4.29289 13.4537L5.7008 9.22991L3.80343 8.59746L2.39552 12.8212L4.29289 13.4537ZM5.7008 9.22991C6.03056 8.24065 6.24419 7.60816 6.45661 7.18912C6.55774 6.98961 6.63112 6.89655 6.67225 6.8558C6.69008 6.83812 6.69822 6.83398 6.69663 6.83489C6.69428 6.83623 6.69202 6.8367 6.6946 6.83609L6.23509 4.8896C5.42793 5.08014 4.97494 5.68864 4.67271 6.28484C4.37716 6.86789 4.11203 7.67168 3.80343 8.59746L5.7008 9.22991ZM6.6946 6.83609C6.69719 6.83548 6.69496 6.83607 6.69226 6.83592C6.69043 6.83582 6.69956 6.83589 6.72342 6.84372C6.77843 6.86178 6.88567 6.91219 7.06536 7.04541C7.44275 7.32522 7.91669 7.79539 8.65404 8.53274L10.0683 7.11853C9.37822 6.4285 8.78161 5.82813 8.25651 5.43881C7.71956 5.04072 7.04226 4.69905 6.23509 4.8896L6.6946 6.83609ZM8.65405 8.53275L11.4699 11.3485L12.8841 9.93432L10.0683 7.11852L8.65405 8.53275ZM11.4699 11.3485C12.2072 12.0859 12.6774 12.5598 12.9572 12.9372C13.0904 13.1169 13.1408 13.2242 13.1589 13.2792C13.1667 13.303 13.1668 13.3121 13.1667 13.3103C13.1665 13.3076 13.1671 13.3054 13.1665 13.308L15.113 13.7676C15.3036 12.9604 14.9619 12.283 14.5638 11.7461C14.1745 11.221 13.5741 10.6244 12.8841 9.93435L11.4699 11.3485Z" fill="#646464" mask="url(#path-1-inside-1_2785_392)"/>
<mask id="path-3-inside-2_2785_392" fill="white">
<path d="M10.195 15.2863C10.195 15.2863 9.56327 13.3853 9.56327 12.1272C9.56327 10.869 10.195 8.96813 10.195 8.96813M6.72008 16.234C6.72008 16.234 6.18647 13.9407 6.08827 12.4431C5.92601 9.96872 6.72008 6.125 6.72008 6.125"/>
</mask>
<path d="M8.29708 15.917C8.64542 16.9652 9.77755 17.5326 10.8258 17.1842C11.874 16.8359 12.4413 15.7038 12.093 14.6556L8.29708 15.917ZM12.093 9.59889C12.4413 8.55069 11.874 7.41856 10.8258 7.0702C9.77758 6.72184 8.64545 7.28918 8.29709 8.33738L12.093 9.59889ZM4.77212 16.6872C5.02245 17.7631 6.09751 18.4323 7.17334 18.1819C8.24917 17.9316 8.91837 16.8565 8.66804 15.7807L4.77212 16.6872ZM6.08827 12.4431L8.08398 12.3123L8.08398 12.3123L6.08827 12.4431ZM8.67872 6.52963C8.90219 5.4479 8.20644 4.38983 7.12471 4.16636C6.04298 3.94289 4.98491 4.63864 4.76144 5.72037L8.67872 6.52963ZM10.195 15.2863C12.093 14.6556 12.093 14.6557 12.0931 14.6559C12.0931 14.656 12.0931 14.6561 12.0932 14.6562C12.0932 14.6564 12.0933 14.6566 12.0933 14.6567C12.0934 14.657 12.0935 14.6571 12.0935 14.6572C12.0935 14.6572 12.0934 14.6569 12.0931 14.6561C12.0926 14.6545 12.0915 14.6512 12.0899 14.6462C12.0867 14.6363 12.0813 14.6197 12.0742 14.5972C12.0599 14.5522 12.0385 14.4835 12.0123 14.3961C11.9597 14.2204 11.8894 13.9738 11.8196 13.694C11.6684 13.0887 11.5633 12.4978 11.5633 12.1272H7.56327C7.56327 13.0147 7.774 14.0034 7.93872 14.6631C8.0268 15.0158 8.11445 15.3231 8.18029 15.5431C8.21336 15.6536 8.2413 15.7433 8.26155 15.8071C8.27169 15.839 8.27992 15.8646 8.28594 15.8831C8.28895 15.8923 8.29141 15.8998 8.29328 15.9055C8.29422 15.9084 8.295 15.9108 8.29564 15.9127C8.29596 15.9136 8.29623 15.9145 8.29647 15.9152C8.2966 15.9156 8.29671 15.9159 8.29681 15.9162C8.29686 15.9164 8.29693 15.9166 8.29695 15.9166C8.29702 15.9168 8.29708 15.917 10.195 15.2863ZM11.5633 12.1272C11.5633 11.7566 11.6684 11.1657 11.8196 10.5604C11.8894 10.2806 11.9597 10.0341 12.0123 9.85831C12.0385 9.77092 12.0599 9.70228 12.0742 9.65722C12.0813 9.63472 12.0867 9.61819 12.0899 9.60825C12.0915 9.60328 12.0926 9.59996 12.0931 9.59837C12.0934 9.59758 12.0935 9.59722 12.0935 9.5973C12.0935 9.59734 12.0934 9.5975 12.0933 9.59776C12.0933 9.59789 12.0932 9.59805 12.0932 9.59824C12.0931 9.59834 12.0931 9.5985 12.0931 9.59855C12.093 9.59871 12.093 9.59889 10.195 8.96813C8.29709 8.33738 8.29702 8.33757 8.29696 8.33777C8.29693 8.33784 8.29687 8.33805 8.29681 8.3382C8.29671 8.3385 8.2966 8.33884 8.29648 8.3392C8.29624 8.33993 8.29596 8.34077 8.29565 8.34173C8.29501 8.34365 8.29422 8.34603 8.29329 8.34888C8.29142 8.35456 8.28896 8.36207 8.28595 8.37133C8.27993 8.38985 8.27169 8.41539 8.26156 8.44733C8.24131 8.51114 8.21337 8.60084 8.1803 8.71131C8.11446 8.93128 8.0268 9.23862 7.93872 9.59133C7.774 10.251 7.56327 11.2397 7.56327 12.1272H11.5633ZM6.72008 16.234C8.66804 15.7807 8.66806 15.7808 8.66808 15.7809C8.66808 15.7809 8.6681 15.781 8.66811 15.781C8.66812 15.7811 8.66813 15.7811 8.66813 15.7811C8.66812 15.7811 8.66809 15.7809 8.66802 15.7806C8.66789 15.7801 8.66763 15.7789 8.66725 15.7773C8.66649 15.774 8.66525 15.7686 8.66354 15.7612C8.66014 15.7463 8.6549 15.7233 8.64808 15.693C8.63442 15.6324 8.61443 15.5426 8.58997 15.4295C8.54094 15.2028 8.4745 14.8852 8.40529 14.5239C8.26245 13.7782 8.12458 12.9313 8.08398 12.3123L4.09256 12.574C4.15017 13.4526 4.3282 14.5011 4.47671 15.2764C4.55317 15.6756 4.62627 16.0249 4.68037 16.275C4.70747 16.4003 4.72993 16.5013 4.74584 16.572C4.7538 16.6073 4.76012 16.6351 4.76458 16.6545C4.76681 16.6643 4.76857 16.6719 4.76984 16.6774C4.77047 16.6801 4.77098 16.6823 4.77136 16.684C4.77155 16.6848 4.77171 16.6855 4.77184 16.686C4.7719 16.6863 4.77196 16.6865 4.772 16.6867C4.77203 16.6868 4.77205 16.687 4.77207 16.687C4.77209 16.6871 4.77212 16.6872 6.72008 16.234ZM8.08398 12.3123C8.01699 11.2905 8.14904 9.88046 8.32393 8.63407C8.40865 8.03028 8.49839 7.49876 8.56683 7.11896C8.60098 6.92948 8.62964 6.77883 8.64944 6.67707C8.65934 6.62622 8.66701 6.58766 8.67203 6.56264C8.67454 6.55014 8.67639 6.54103 8.67753 6.53548C8.67809 6.5327 8.67848 6.53081 8.67868 6.52983C8.67878 6.52934 8.67883 6.52907 8.67884 6.52904C8.67885 6.52902 8.67884 6.52906 8.67882 6.52916C8.67881 6.52921 8.67878 6.52933 8.67878 6.52935C8.67875 6.52949 8.67872 6.52963 6.72008 6.125C4.76144 5.72037 4.7614 5.72054 4.76136 5.72073C4.76135 5.72082 4.7613 5.72102 4.76127 5.72119C4.7612 5.72152 4.76112 5.72191 4.76103 5.72236C4.76084 5.72326 4.76061 5.7244 4.76033 5.72576C4.75977 5.7285 4.75902 5.73216 4.75809 5.73673C4.75622 5.74587 4.75363 5.75864 4.75037 5.7749C4.74384 5.8074 4.73461 5.85383 4.72311 5.91291C4.70012 6.03103 4.66801 6.2 4.63025 6.40952C4.55488 6.82775 4.45624 7.41181 4.36273 8.07825C4.18115 9.37232 3.9973 11.1213 4.09256 12.574L8.08398 12.3123Z" fill="#646464" mask="url(#path-3-inside-2_2785_392)"/>
<mask id="path-5-inside-3_2785_392" fill="white">
<path d="M12.0918 8.33777L12.2118 7.7378C12.3329 7.13205 12.7694 6.63766 13.3554 6.44231C13.9415 6.24697 14.3779 5.75258 14.499 5.14683L14.619 4.54688"/>
</mask>
<path d="M10.1306 7.94551C9.914 9.02863 10.6164 10.0823 11.6995 10.2989C12.7827 10.5156 13.8363 9.81314 14.053 8.73002L10.1306 7.94551ZM12.2118 7.7378L14.173 8.13005L14.173 8.12982L12.2118 7.7378ZM13.3554 6.44231L12.723 4.54492L12.7229 4.54496L13.3554 6.44231ZM14.499 5.14683L16.4602 5.53911L16.4602 5.53909L14.499 5.14683ZM16.5802 4.93914C16.7968 3.85602 16.0944 2.80236 15.0113 2.58572C13.9282 2.36908 12.8745 3.0715 12.6579 4.15461L16.5802 4.93914ZM14.053 8.73002L14.173 8.13005L10.2506 7.34555L10.1306 7.94551L14.053 8.73002ZM14.173 8.12982C14.1534 8.22813 14.0826 8.30808 13.9879 8.33966L12.7229 4.54496C11.4561 4.96724 10.5124 6.03597 10.2506 7.34578L14.173 8.12982ZM13.9878 8.33969C15.2548 7.91739 16.1983 6.84856 16.4602 5.53911L12.5379 4.75454C12.5575 4.65659 12.6281 4.57655 12.723 4.54492L13.9878 8.33969ZM16.4602 5.53909L16.5802 4.93914L12.6579 4.15461L12.5379 4.75456L16.4602 5.53909Z" fill="#646464" mask="url(#path-5-inside-3_2785_392)"/>
<mask id="path-7-inside-4_2785_392" fill="white">
<path d="M14.6406 11.0421L14.818 11.1446C15.3656 11.4607 16.0541 11.391 16.5272 10.9715C16.9556 10.5916 17.5657 10.4952 18.0904 10.7246L18.3333 10.8308"/>
</mask>
<path d="M15.1406 10.1761C14.6623 9.89998 14.0507 10.0639 13.7746 10.5422C13.4985 11.0205 13.6624 11.6321 14.1407 11.9082L15.1406 10.1761ZM14.818 11.1446L15.3181 10.2786L15.318 10.2785L14.818 11.1446ZM16.5272 10.9715L17.1907 11.7197L17.1907 11.7197L16.5272 10.9715ZM18.0904 10.7246L17.6897 11.6409L17.6899 11.641L18.0904 10.7246ZM17.9328 11.7471C18.4389 11.9683 19.0284 11.7373 19.2496 11.2313C19.4708 10.7252 19.2398 10.1357 18.7338 9.91451L17.9328 11.7471ZM14.1407 11.9082L14.3181 12.0106L15.318 10.2785L15.1406 10.1761L14.1407 11.9082ZM14.318 12.0106C15.2384 12.542 16.3956 12.4247 17.1907 11.7197L15.8637 10.2233C15.7127 10.3572 15.4928 10.3795 15.3181 10.2786L14.318 12.0106ZM17.1907 11.7197C17.3275 11.5984 17.5222 11.5676 17.6897 11.6409L18.491 9.80841C17.6092 9.42284 16.5838 9.58473 15.8637 10.2233L17.1907 11.7197ZM17.6899 11.641L17.9328 11.7471L18.7338 9.91451L18.4908 9.80834L17.6899 11.641Z" fill="#646464" mask="url(#path-7-inside-4_2785_392)"/>
<mask id="path-9-inside-5_2785_392" fill="white">
<path d="M8.16356 2.3125C7.88232 2.77255 7.95281 3.36537 8.33408 3.74664L8.41562 3.82821C8.74328 4.15584 8.86412 4.63716 8.73003 5.08068"/>
</mask>
<path d="M9.86996 3.35567C10.4461 2.41325 10.1491 1.18223 9.20673 0.606101C8.26431 0.0299745 7.03329 0.326912 6.45716 1.26933L9.86996 3.35567ZM8.33408 3.74664L9.74858 2.33271L9.7483 2.33243L8.33408 3.74664ZM8.41562 3.82821L7.00112 5.24214L7.00148 5.24249L8.41562 3.82821ZM6.8156 4.50193C6.49597 5.55924 7.09397 6.67547 8.15128 6.99511C9.20859 7.31475 10.3248 6.71675 10.6445 5.65944L6.8156 4.50193ZM6.45716 1.26933C5.69401 2.51768 5.8853 4.12628 6.91987 5.16086L9.7483 2.33243C10.0203 2.60445 10.0706 3.02742 9.86996 3.35567L6.45716 1.26933ZM6.91958 5.16057L7.00112 5.24214L9.83012 2.41428L9.74858 2.33271L6.91958 5.16057ZM7.00148 5.24249C6.8078 5.04883 6.7363 4.76424 6.8156 4.50193L10.6445 5.65944C10.9919 4.51008 10.6788 3.26285 9.82976 2.41392L7.00148 5.24249Z" fill="#646464" mask="url(#path-9-inside-5_2785_392)"/>
<path d="M5.7735 3.28717C5.94806 3.11261 6.23106 3.11261 6.40562 3.28717C6.58018 3.46173 6.58018 3.74474 6.40562 3.9193C6.23106 4.09386 5.94806 4.09386 5.7735 3.9193C5.59894 3.74474 5.59894 3.46173 5.7735 3.28717Z" fill="#646464"/>
<path d="M10.1309 5.96686C10.3055 5.7923 10.5885 5.7923 10.7631 5.96686C10.9376 6.14141 10.9376 6.42443 10.7631 6.59899C10.5885 6.77354 10.3055 6.77354 10.1309 6.59899C9.95635 6.42443 9.95635 6.14141 10.1309 5.96686Z" fill="#646464"/>
<path d="M14.297 8.46686C14.4715 8.2923 14.7545 8.2923 14.9291 8.46686C15.1036 8.64144 15.1036 8.92444 14.9291 9.09902C14.7545 9.27352 14.4715 9.27352 14.297 9.09902C14.1224 8.92444 14.1224 8.64144 14.297 8.46686Z" fill="#646464"/>
<path d="M15.8809 12.7637C16.0555 12.5892 16.3385 12.5892 16.513 12.7637C16.6875 12.9382 16.6875 13.2212 16.513 13.3958C16.3385 13.5704 16.0555 13.5704 15.8809 13.3958C15.7064 13.2212 15.7064 12.9382 15.8809 12.7637Z" fill="#646464"/>
<path d="M17.5004 7.08342L17.5177 7.08346L18.5004 7.08616C18.5012 6.79677 18.4506 6.5058 18.3446 6.23933L17.5004 7.08342ZM16.9483 8.36843C16.9484 8.36871 16.9483 8.36861 16.9482 8.36816L16.9483 8.36843ZM16.2154 7.63554C16.2152 7.63551 16.2153 7.63552 16.2154 7.63556L16.2154 7.63554Z" stroke="#646464" stroke-width="2" stroke-linejoin="round"/>
<mask id="path-16-inside-6_2785_392" fill="white">
<path d="M12.6575 2.84499L12.6345 2.92591C12.6092 3.0148 12.5966 3.05924 12.6026 3.10288C12.6085 3.14651 12.6324 3.18438 12.6802 3.26014L12.7237 3.32912C12.892 3.59572 12.9761 3.72901 12.9187 3.83804C12.8615 3.94707 12.7007 3.95962 12.3792 3.98473L12.296 3.99122C12.2046 3.99835 12.1589 4.00192 12.119 4.02291C12.0791 4.0439 12.0494 4.07994 11.9901 4.15202L11.936 4.21764C11.7272 4.47129 11.6227 4.59812 11.5037 4.58181C11.3846 4.5655 11.3297 4.41686 11.2198 4.11958L11.1914 4.04266C11.1602 3.95819 11.1446 3.91594 11.1139 3.88529C11.0832 3.85463 11.041 3.83903 10.9565 3.80781L10.8796 3.7794C10.5823 3.66957 10.4337 3.61465 10.4174 3.49554C10.4011 3.37644 10.5279 3.27202 10.7816 3.06319L10.8472 3.00915C10.9192 2.94981 10.9553 2.92014 10.9762 2.8802C10.9972 2.84026 11.0008 2.79458 11.008 2.70321L11.0145 2.62003C11.0396 2.29849 11.0522 2.13773 11.1612 2.08043C11.2702 2.02312 11.4035 2.10723 11.6701 2.27544L11.7391 2.31897C11.8148 2.36677 11.8527 2.39067 11.8963 2.39664C11.9399 2.40262 11.9844 2.38999 12.0732 2.36473L12.1542 2.34174C12.467 2.25285 12.6234 2.20841 12.7071 2.2921C12.7907 2.37579 12.7463 2.53219 12.6575 2.84499Z"/>
</mask>
<path d="M12.6575 2.84499L13.6194 3.11837L13.6195 3.11818L12.6575 2.84499ZM12.6345 2.92591L11.6726 2.65252L11.6726 2.65267L12.6345 2.92591ZM12.6026 3.10288L13.5935 2.96851L13.5933 2.96665L12.6026 3.10288ZM12.6802 3.26014L13.5261 2.7267L13.5258 2.72626L12.6802 3.26014ZM12.7237 3.32912L11.8779 3.86256L11.8781 3.86282L12.7237 3.32912ZM12.9187 3.83804L12.0337 3.37263L12.0334 3.37313L12.9187 3.83804ZM12.3792 3.98473L12.457 4.98169L12.457 4.98169L12.3792 3.98473ZM12.296 3.99122L12.3738 4.98819L12.3738 4.98819L12.296 3.99122ZM11.9901 4.15202L12.7618 4.788L12.7621 4.78758L11.9901 4.15202ZM11.936 4.21764L11.1643 3.58167L11.164 3.58204L11.936 4.21764ZM11.2198 4.11958L10.2818 4.46613L10.2818 4.46614L11.2198 4.11958ZM11.1914 4.04266L12.1294 3.69611L12.1293 3.69571L11.1914 4.04266ZM10.9565 3.80781L11.303 2.86977L11.303 2.86975L10.9565 3.80781ZM10.8796 3.7794L10.533 4.71742L10.5331 4.71747L10.8796 3.7794ZM10.4174 3.49554L11.4082 3.36037L11.4081 3.35968L10.4174 3.49554ZM10.7816 3.06319L11.4172 3.83522L11.4175 3.83498L10.7816 3.06319ZM10.8472 3.00915L10.2116 2.23711L10.2113 2.23736L10.8472 3.00915ZM10.9762 2.8802L10.0911 2.41484L10.0904 2.41628L10.9762 2.8802ZM11.008 2.70321L12.0049 2.78141L12.005 2.78111L11.008 2.70321ZM11.0145 2.62003L12.0115 2.69793L12.0115 2.6978L11.0145 2.62003ZM11.1612 2.08043L11.6265 2.96557L11.6265 2.96555L11.1612 2.08043ZM11.6701 2.27544L11.1364 3.12115L11.1366 3.12123L11.6701 2.27544ZM11.7391 2.31897L12.2727 1.47327L12.2726 1.47318L11.7391 2.31897ZM11.8963 2.39664L12.0322 1.40591L12.0319 1.40588L11.8963 2.39664ZM12.0732 2.36473L11.8002 1.40273L11.7998 1.40285L12.0732 2.36473ZM12.1542 2.34174L12.4273 3.30373L12.4276 3.30364L12.1542 2.34174ZM11.6956 2.5716L11.6726 2.65252L13.5964 3.1993L13.6194 3.11837L11.6956 2.5716ZM11.6726 2.65267C11.6719 2.65483 11.5706 2.9385 11.6119 3.2391L13.5933 2.96665C13.6109 3.09469 13.5943 3.19308 13.5871 3.22876C13.584 3.24433 13.5818 3.2518 13.584 3.24354C13.5863 3.23505 13.5895 3.2236 13.5964 3.19915L11.6726 2.65267ZM11.6117 3.23725C11.6536 3.54629 11.8342 3.79317 11.8347 3.79402L13.5258 2.72626C13.5126 2.70533 13.5069 2.69625 13.503 2.68979C13.4992 2.68358 13.5044 2.69172 13.5127 2.70772C13.5324 2.74556 13.5759 2.83849 13.5935 2.96851L11.6117 3.23725ZM11.8344 3.79358L11.8779 3.86256L13.5696 2.79568L13.5261 2.7267L11.8344 3.79358ZM11.8781 3.86282C11.9224 3.93299 11.951 3.97851 11.9731 4.01577C11.996 4.05451 11.9959 4.05786 11.9887 4.04122C11.9824 4.02673 11.9483 3.9475 11.939 3.82634C11.9283 3.68556 11.9538 3.52444 12.0337 3.37263L13.8038 4.30346C14.0423 3.85005 13.904 3.4306 13.823 3.24411C13.7501 3.07628 13.635 2.89929 13.5694 2.79542L11.8781 3.86282ZM12.0334 3.37313C12.1128 3.22192 12.2282 3.11368 12.3408 3.04606C12.4379 2.98774 12.5152 2.97028 12.5264 2.96774C12.54 2.96464 12.5337 2.96708 12.4868 2.97199C12.4416 2.97674 12.3857 2.98117 12.3013 2.98776L12.457 4.98169C12.5848 4.97171 12.7936 4.95801 12.9697 4.91797C13.1581 4.87514 13.5711 4.74668 13.8041 4.30295L12.0334 3.37313ZM12.3013 2.98776L12.2182 2.99425L12.3738 4.98819L12.457 4.98169L12.3013 2.98776ZM12.2182 2.99425C12.2097 2.99491 11.9178 2.99885 11.6535 3.13784L12.5844 4.90798C12.476 4.96502 12.3825 4.98356 12.3446 4.98956C12.3287 4.99208 12.3206 4.99262 12.3288 4.99186C12.3372 4.99107 12.3487 4.99014 12.3738 4.98819L12.2182 2.99425ZM11.6535 3.13784C11.3935 3.27462 11.2241 3.50912 11.218 3.51645L12.7621 4.78758C12.7783 4.76789 12.7862 4.75843 12.7921 4.75148C12.7978 4.74473 12.7934 4.7502 12.7831 4.76093C12.759 4.78605 12.6919 4.85147 12.5844 4.90798L11.6535 3.13784ZM11.2184 3.51604L11.1643 3.58167L12.7077 4.85362L12.7618 4.788L11.2184 3.51604ZM11.164 3.58204C11.1093 3.64842 11.0725 3.69308 11.0416 3.72874C11.0096 3.76564 11.0026 3.77102 11.0112 3.7631C11.0175 3.7574 11.0749 3.70412 11.1779 3.65727C11.298 3.6026 11.4592 3.56639 11.6393 3.59106L11.368 5.57256C11.8791 5.64257 12.2279 5.36071 12.3611 5.23882C12.4932 5.11802 12.6241 4.95517 12.708 4.85325L11.164 3.58204ZM11.6393 3.59106C11.8214 3.61598 11.9754 3.69676 12.0869 3.79531C12.1818 3.87925 12.2255 3.95797 12.2328 3.9711C12.2417 3.98709 12.2389 3.98508 12.2219 3.94273C12.2056 3.90213 12.1868 3.85123 12.1579 3.77302L10.2818 4.46614C10.3246 4.58184 10.3952 4.78142 10.4837 4.94102C10.5787 5.11225 10.8365 5.49978 11.368 5.57256L11.6393 3.59106ZM12.1579 3.77303L12.1294 3.69611L10.2534 4.38921L10.2818 4.46613L12.1579 3.77303ZM12.1293 3.69571C12.1193 3.66873 12.0918 3.59194 12.0588 3.52117C12.0181 3.43409 11.9471 3.3042 11.8209 3.17808L10.4069 4.59249C10.3114 4.49703 10.2635 4.40359 10.2461 4.36641C10.2386 4.35035 10.2355 4.34153 10.2382 4.34862C10.2411 4.35595 10.2449 4.36622 10.2535 4.38961L12.1293 3.69571ZM11.8209 3.17808C11.6949 3.05206 11.5651 2.98103 11.4779 2.9404C11.407 2.90734 11.3302 2.87981 11.303 2.86977L10.61 4.74585C10.6333 4.75446 10.6435 4.75828 10.6508 4.76109C10.6578 4.76382 10.649 4.76062 10.6329 4.75312C10.5956 4.73575 10.5023 4.68785 10.4069 4.59249L11.8209 3.17808ZM11.303 2.86975L11.226 2.84134L10.5331 4.71747L10.61 4.74587L11.303 2.86975ZM11.2262 2.84139C11.148 2.81249 11.0971 2.7936 11.0565 2.77732C11.0141 2.76033 11.0121 2.75756 11.0281 2.76644C11.0413 2.77373 11.1201 2.81749 11.204 2.91252C11.3026 3.02411 11.3834 3.17826 11.4082 3.36037L9.42659 3.63072C9.49914 4.16247 9.88685 4.42048 10.0581 4.51546C10.2177 4.60398 10.4173 4.67468 10.533 4.71742L11.2262 2.84139ZM11.4081 3.35968C11.4328 3.53976 11.3967 3.701 11.342 3.82119C11.2951 3.92419 11.2418 3.98171 11.2361 3.98795C11.2282 3.99662 11.2336 3.98964 11.2705 3.95764C11.3061 3.92673 11.3508 3.88987 11.4172 3.83522L10.146 2.29115C10.0441 2.37506 9.8812 2.50599 9.76038 2.63807C9.63843 2.77138 9.35659 3.12019 9.42669 3.6314L11.4081 3.35968ZM11.4175 3.83498L11.483 3.78095L10.2113 2.23736L10.1457 2.29139L11.4175 3.83498ZM11.4827 3.78119C11.4893 3.77579 11.7252 3.60555 11.8621 3.34412L10.0904 2.41628C10.1471 2.30792 10.213 2.24035 10.2382 2.21614C10.249 2.20577 10.2545 2.20138 10.2478 2.20713C10.2408 2.21304 10.2313 2.22085 10.2116 2.23711L11.4827 3.78119ZM11.8614 3.34557C12.0002 3.08154 12.0043 2.79001 12.0049 2.78141L10.0111 2.62501C10.0091 2.65008 10.0082 2.66164 10.0074 2.67005C10.0066 2.67817 10.0071 2.67015 10.0097 2.65428C10.0157 2.61646 10.0342 2.52311 10.0911 2.41484L11.8614 3.34557ZM12.005 2.78111L12.0115 2.69793L10.0175 2.54212L10.011 2.62531L12.005 2.78111ZM12.0115 2.6978C12.018 2.61348 12.0225 2.55758 12.0272 2.51233C12.0321 2.4655 12.0346 2.45924 12.0315 2.47286C12.0289 2.4841 12.0115 2.56127 11.9532 2.65836C11.8856 2.77093 11.7775 2.88619 11.6265 2.96557L10.6959 1.19528C10.2526 1.42831 10.1241 1.84088 10.0813 2.02942C10.0412 2.20556 10.0275 2.41435 10.0175 2.54225L12.0115 2.6978ZM11.6265 2.96555C11.4746 3.04543 11.3134 3.07093 11.1727 3.06014C11.0516 3.05084 10.9724 3.01677 10.9579 3.01049C10.9413 3.00328 10.9447 3.00317 10.9835 3.02614C11.0207 3.04824 11.0663 3.07687 11.1364 3.12115L12.2037 1.42974C12.0999 1.3642 11.9229 1.24915 11.7551 1.17623C11.5688 1.09528 11.1493 0.956864 10.6958 1.19531L11.6265 2.96555ZM11.1366 3.12123L11.2056 3.16476L12.2726 1.47318L12.2036 1.42966L11.1366 3.12123ZM11.2054 3.16467C11.2064 3.16529 11.4526 3.34525 11.7608 3.38741L12.0319 1.40588C12.1613 1.42358 12.2538 1.46687 12.2916 1.48652C12.3075 1.49481 12.3156 1.49998 12.3093 1.49617C12.3028 1.49221 12.2937 1.4865 12.2727 1.47327L11.2054 3.16467ZM11.7605 3.38738C12.0608 3.42854 12.3437 3.32747 12.3467 3.3266L11.7998 1.40285C11.7755 1.40976 11.764 1.41298 11.7557 1.41522C11.7475 1.4174 11.755 1.41518 11.7706 1.41204C11.8062 1.40488 11.9044 1.38839 12.0322 1.40591L11.7605 3.38738ZM12.3463 3.32672L12.4273 3.30373L11.8812 1.37974L11.8002 1.40273L12.3463 3.32672ZM12.4276 3.30364C12.5096 3.28035 12.5643 3.26488 12.609 3.25343C12.6554 3.24153 12.6622 3.24164 12.6481 3.24352C12.6377 3.24489 12.5536 3.25652 12.4348 3.23293C12.2949 3.20517 12.1346 3.1339 11.9999 2.9991L13.4143 1.5851C13.0333 1.20401 12.5643 1.23712 12.3851 1.26089C12.2067 1.28455 12.0051 1.34453 11.8809 1.37983L12.4276 3.30364ZM11.9999 2.9991C11.8652 2.86437 11.794 2.70423 11.7662 2.56441C11.7427 2.44561 11.7543 2.36155 11.7556 2.35125C11.7575 2.33713 11.7576 2.34393 11.7457 2.3904C11.7343 2.43509 11.7188 2.48979 11.6955 2.57179L13.6195 3.11818C13.6547 2.99396 13.7147 2.79241 13.7383 2.61401C13.7621 2.43484 13.7951 1.96601 13.4143 1.5851L11.9999 2.9991Z" fill="#646464" mask="url(#path-16-inside-6_2785_392)"/>
</svg>
