<svg width="24" height="24" viewBox="0 0 24 24" fill="none" xmlns="http://www.w3.org/2000/svg">
<g filter="url(#filter0_i_2785_487)">
<circle cx="12" cy="12" r="12" fill="#FF851B"/>
</g>
<path d="M12.8711 16.1957L9.49215 17.3221C7.64854 17.9366 6.72673 18.2439 6.24015 17.7573C5.75356 17.2707 6.06083 16.3489 6.67537 14.5053L7.80169 11.1263C8.31237 9.59423 8.56771 8.82821 9.17188 8.68559C9.77605 8.54296 10.347 9.11391 11.4889 10.2558L13.7416 12.5085C14.8835 13.6504 15.4545 14.2213 15.3118 14.8255" fill="white"/>
<mask id="path-3-inside-1_2785_487" fill="white">
<path d="M12.1564 16.2275C12.1564 16.2275 11.651 14.7067 11.651 13.7002C11.651 12.6937 12.1564 11.1729 12.1564 11.1729M9.37645 16.9856C9.37645 16.9856 8.94957 15.151 8.87101 13.9529C8.7412 11.9734 9.37645 8.89844 9.37645 8.89844"/>
</mask>
<path d="M10.2585 16.8582C10.6068 17.9064 11.7389 18.4738 12.7871 18.1254C13.8353 17.7771 14.4027 16.6449 14.0543 15.5967L10.2585 16.8582ZM14.0543 11.8037C14.4027 10.7555 13.8354 9.62337 12.7872 9.27501C11.739 8.92665 10.6068 9.49399 10.2585 10.5422L14.0543 11.8037ZM7.42849 17.4389C7.67882 18.5147 8.75389 19.1839 9.82972 18.9336C10.9055 18.6832 11.5747 17.6082 11.3244 16.5323L7.42849 17.4389ZM8.87101 13.9529L10.8667 13.8221L10.8667 13.8221L8.87101 13.9529ZM11.3351 9.30307C11.5586 8.22134 10.8628 7.16327 9.78109 6.9398C8.69936 6.71632 7.64129 7.41208 7.41781 8.49381L11.3351 9.30307ZM12.1564 16.2275C14.0543 15.5967 14.0544 15.5969 14.0545 15.5971C14.0545 15.5971 14.0545 15.5973 14.0546 15.5974C14.0546 15.5976 14.0547 15.5978 14.0547 15.5979C14.0548 15.5983 14.0549 15.5985 14.055 15.5986C14.0551 15.5989 14.055 15.5988 14.0549 15.5984C14.0546 15.5975 14.0539 15.5953 14.0527 15.5917C14.0504 15.5846 14.0464 15.5723 14.041 15.5552C14.0302 15.5211 14.0137 15.4683 13.9935 15.4006C13.9527 15.2644 13.8982 15.0733 13.8441 14.8567C13.7246 14.3779 13.651 13.945 13.651 13.7002H9.65101C9.65101 14.4619 9.83015 15.2926 9.96328 15.8258C10.0356 16.1153 10.1074 16.3672 10.1614 16.5476C10.1886 16.6383 10.2116 16.7122 10.2284 16.7651C10.2368 16.7916 10.2437 16.8129 10.2487 16.8286C10.2513 16.8364 10.2534 16.8429 10.255 16.8478C10.2558 16.8503 10.2565 16.8524 10.2571 16.8541C10.2574 16.855 10.2577 16.8558 10.2579 16.8565C10.258 16.8568 10.2581 16.8571 10.2582 16.8574C10.2582 16.8576 10.2583 16.8578 10.2583 16.8578C10.2584 16.858 10.2585 16.8582 12.1564 16.2275ZM13.651 13.7002C13.651 13.4554 13.7246 13.0225 13.8441 12.5437C13.8982 12.3271 13.9527 12.136 13.9934 11.9998C14.0137 11.9322 14.0302 11.8794 14.041 11.8452C14.0464 11.8281 14.0504 11.8158 14.0527 11.8087C14.0539 11.8052 14.0546 11.8029 14.0549 11.8021C14.055 11.8017 14.055 11.8016 14.055 11.8018C14.0549 11.802 14.0548 11.8022 14.0547 11.8025C14.0547 11.8027 14.0546 11.8028 14.0546 11.803C14.0545 11.8031 14.0545 11.8033 14.0545 11.8034C14.0544 11.8035 14.0543 11.8037 12.1564 11.1729C10.2585 10.5422 10.2584 10.5424 10.2583 10.5426C10.2583 10.5426 10.2583 10.5428 10.2582 10.543C10.2581 10.5433 10.258 10.5436 10.2579 10.5439C10.2577 10.5446 10.2574 10.5454 10.2571 10.5463C10.2566 10.548 10.2559 10.5501 10.255 10.5526C10.2534 10.5575 10.2513 10.564 10.2488 10.5718C10.2437 10.5875 10.2368 10.6088 10.2284 10.6353C10.2116 10.6882 10.1886 10.7621 10.1614 10.8528C10.1074 11.0332 10.0356 11.2851 9.96329 11.5746C9.83015 12.1078 9.65101 12.9385 9.65101 13.7002H13.651ZM9.37645 16.9856C11.3244 16.5323 11.3244 16.5324 11.3245 16.5325C11.3245 16.5325 11.3245 16.5326 11.3245 16.5327C11.3245 16.5327 11.3245 16.5328 11.3245 16.5328C11.3245 16.5328 11.3245 16.5328 11.3245 16.5326C11.3244 16.5323 11.3242 16.5315 11.3239 16.5303C11.3234 16.5279 11.3224 16.5238 11.3211 16.518C11.3185 16.5066 11.3144 16.4887 11.3091 16.465C11.2984 16.4175 11.2826 16.3467 11.2633 16.2574C11.2246 16.0784 11.1721 15.8276 11.1175 15.5423C11.0038 14.9487 10.8975 14.2913 10.8667 13.8221L6.87529 14.0838C6.92308 14.8126 7.06952 15.6716 7.1889 16.2948C7.2508 16.6179 7.30994 16.9006 7.35372 17.103C7.37567 17.2045 7.39389 17.2864 7.40684 17.3439C7.41332 17.3727 7.41849 17.3954 7.42216 17.4114C7.42399 17.4194 7.42546 17.4257 7.42652 17.4304C7.42705 17.4327 7.42748 17.4345 7.42781 17.4359C7.42798 17.4367 7.42812 17.4373 7.42823 17.4377C7.42829 17.438 7.42834 17.4382 7.42838 17.4384C7.4284 17.4385 7.42843 17.4386 7.42844 17.4387C7.42847 17.4388 7.42849 17.4389 9.37645 16.9856ZM10.8667 13.8221C10.8159 13.0478 10.9164 11.9536 11.0557 10.9613C11.1225 10.4845 11.1935 10.0645 11.2475 9.76455C11.2745 9.61497 11.2971 9.49628 11.3126 9.41651C11.3203 9.37665 11.3263 9.34659 11.3302 9.32733C11.3321 9.3177 11.3335 9.31078 11.3344 9.30669C11.3348 9.30465 11.335 9.30332 11.3352 9.30271C11.3352 9.3024 11.3353 9.30228 11.3352 9.30234C11.3352 9.30237 11.3352 9.30244 11.3352 9.30257C11.3352 9.30263 11.3352 9.30275 11.3352 9.30278C11.3351 9.30292 11.3351 9.30307 9.37645 8.89844C7.41781 8.49381 7.41778 8.49398 7.41774 8.49416C7.41772 8.49424 7.41768 8.49444 7.41765 8.49459C7.41759 8.4949 7.41751 8.49526 7.41743 8.49566C7.41727 8.49647 7.41706 8.49746 7.41682 8.49864C7.41633 8.501 7.4157 8.50411 7.41492 8.50795C7.41335 8.51561 7.41121 8.5262 7.40852 8.53958C7.40315 8.56633 7.39561 8.60426 7.38625 8.65235C7.36754 8.74848 7.3415 8.88549 7.31093 9.05511C7.24994 9.39353 7.17015 9.86603 7.09446 10.4055C6.94852 11.4455 6.79626 12.8786 6.87529 14.0838L10.8667 13.8221Z" fill="#FF851B" mask="url(#path-3-inside-1_2785_487)"/>
<mask id="path-5-inside-2_2785_487" fill="white">
<path d="M13.6738 10.6733L13.7698 10.1934C13.8667 9.70877 14.2159 9.31325 14.6847 9.15697C15.1536 9.0007 15.5027 8.60518 15.5996 8.12059L15.6956 7.64062"/>
</mask>
<path d="M11.7127 10.2811C11.496 11.3642 12.1985 12.4179 13.2816 12.6345C14.3647 12.8511 15.4183 12.1487 15.635 11.0656L11.7127 10.2811ZM13.7698 10.1934L15.731 10.5856L15.731 10.5854L13.7698 10.1934ZM14.6847 9.15697L14.0523 7.25959L14.0522 7.25962L14.6847 9.15697ZM15.5996 8.12059L17.5608 8.51287L17.5608 8.51285L15.5996 8.12059ZM17.6568 8.03289C17.8734 6.94977 17.171 5.89611 16.0879 5.67947C15.0048 5.46283 13.9511 6.16525 13.7345 7.24836L17.6568 8.03289ZM15.635 11.0656L15.731 10.5856L11.8087 9.80111L11.7127 10.2811L15.635 11.0656ZM15.731 10.5854C15.6872 10.8048 15.5291 10.9837 15.3172 11.0543L14.0522 7.25962C12.9027 7.64283 12.0462 8.61269 11.8086 9.80134L15.731 10.5854ZM15.3171 11.0544C16.4669 10.6711 17.3231 9.70117 17.5608 8.51287L13.6385 7.7283C13.6823 7.5092 13.8402 7.33028 14.0523 7.25959L15.3171 11.0544ZM17.5608 8.51285L17.6568 8.03289L13.7345 7.24836L13.6385 7.72832L17.5608 8.51285Z" fill="white" mask="url(#path-5-inside-2_2785_487)"/>
<mask id="path-7-inside-3_2785_487" fill="white">
<path d="M15.7129 12.8368L15.8548 12.9188C16.2929 13.1717 16.8437 13.1159 17.2222 12.7803C17.5649 12.4764 18.053 12.3993 18.4727 12.5828L18.667 12.6678"/>
</mask>
<path d="M16.2128 11.9708C15.7345 11.6947 15.1229 11.8586 14.8468 12.3369C14.5707 12.8152 14.7346 13.4268 15.2129 13.7029L16.2128 11.9708ZM15.8548 12.9188L16.3548 12.0528L16.3548 12.0527L15.8548 12.9188ZM17.2222 12.7803L17.8856 13.5285L17.8856 13.5285L17.2222 12.7803ZM18.4727 12.5828L18.0721 13.4991L18.0722 13.4992L18.4727 12.5828ZM18.2666 13.5841C18.7726 13.8053 19.3622 13.5743 19.5833 13.0682C19.8045 12.5622 19.5736 11.9726 19.0675 11.7515L18.2666 13.5841ZM15.2129 13.7029L15.3549 13.7848L16.3548 12.0527L16.2128 11.9708L15.2129 13.7029ZM15.3548 13.7848C16.1657 14.253 17.1851 14.1497 17.8856 13.5285L16.5587 12.0321C16.5022 12.0822 16.4201 12.0904 16.3548 12.0528L15.3548 13.7848ZM17.8856 13.5285C17.9367 13.4832 18.0094 13.4717 18.0721 13.4991L18.8733 11.6666C18.0965 11.3269 17.1931 11.4695 16.5587 12.0321L17.8856 13.5285ZM18.0722 13.4992L18.2666 13.5841L19.0675 11.7515L18.8732 11.6665L18.0722 13.4992Z" fill="white" mask="url(#path-7-inside-3_2785_487)"/>
<mask id="path-9-inside-4_2785_487" fill="white">
<path d="M10.5297 5.85156C10.3047 6.2196 10.3611 6.69386 10.6661 6.99888L10.7313 7.06413C10.9935 7.32624 11.0901 7.71129 10.9829 8.06611"/>
</mask>
<path d="M12.2361 6.89473C12.8122 5.95231 12.5153 4.72129 11.5728 4.14516C10.6304 3.56904 9.3994 3.86597 8.82328 4.80839L12.2361 6.89473ZM10.6661 6.99888L12.0806 5.58495L12.0803 5.58466L10.6661 6.99888ZM10.7313 7.06413L9.31682 8.47806L9.31718 8.47841L10.7313 7.06413ZM9.06843 7.48735C8.74879 8.54466 9.34679 9.6609 10.4041 9.98054C11.4614 10.3002 12.5776 9.70218 12.8973 8.64487L9.06843 7.48735ZM8.82328 4.80839C8.11637 5.96473 8.29356 7.45477 9.25188 8.41309L12.0803 5.58466C12.4286 5.93294 12.493 6.47447 12.2361 6.89473L8.82328 4.80839ZM9.2516 8.4128L9.31682 8.47806L12.1458 5.6502L12.0806 5.58495L9.2516 8.4128ZM9.31718 8.47841C9.05797 8.21923 8.96231 7.83837 9.06843 7.48735L12.8973 8.64487C13.2179 7.58421 12.9289 6.43324 12.1455 5.64984L9.31718 8.47841Z" fill="white" mask="url(#path-9-inside-4_2785_487)"/>
<path d="M8.61841 6.62817C8.75805 6.48853 8.98446 6.48853 9.12411 6.62817C9.26375 6.76782 9.26375 6.99423 9.12411 7.13388C8.98446 7.27353 8.75805 7.27353 8.61841 7.13388C8.47876 6.99423 8.47876 6.76782 8.61841 6.62817Z" fill="white"/>
<path d="M12.1047 8.7688C12.2444 8.62915 12.4708 8.62915 12.6105 8.7688C12.7501 8.90844 12.7501 9.13486 12.6105 9.2745C12.4708 9.41414 12.2444 9.41414 12.1047 9.2745C11.9651 9.13486 11.9651 8.90844 12.1047 8.7688Z" fill="white"/>
<path d="M15.4387 10.7688C15.5784 10.6292 15.8048 10.6292 15.9445 10.7688C16.0841 10.9085 16.0841 11.1349 15.9445 11.2745C15.8048 11.4141 15.5784 11.4141 15.4387 11.2745C15.2991 11.1349 15.2991 10.9085 15.4387 10.7688Z" fill="white"/>
<path d="M16.7063 14.2063C16.8459 14.0666 17.0723 14.0666 17.212 14.2063C17.3516 14.3459 17.3516 14.5723 17.212 14.712C17.0723 14.8516 16.8459 14.8516 16.7063 14.712C16.5667 14.5723 16.5667 14.3459 16.7063 14.2063Z" fill="white"/>
<path d="M16.9075 9.14297C16.4606 9.58982 16.7813 10.8854 16.7813 10.8854C16.7813 10.8854 18.0769 11.2061 18.5238 10.7592C18.997 10.286 18.7292 9.66479 18 9.66673C18.002 8.9375 17.3808 8.66971 16.9075 9.14297Z" fill="white"/>
<path d="M13.5826 6.41445C13.5404 6.41764 13.4948 6.41747 13.4485 6.41114L13.5826 6.41445ZM13.5826 6.41445C13.5794 6.45649 13.5796 6.50187 13.5858 6.54792L13.5826 6.41445ZM13.6326 6.71366C13.6123 6.66549 13.5943 6.60932 13.5859 6.54885L13.6326 6.71366ZM13.6326 6.71366C13.5792 6.72532 13.5192 6.74398 13.4617 6.77423L13.6944 7.21677L13.4617 6.77423C13.4122 6.80024 13.3686 6.83273 13.3319 6.8651C13.3082 6.82719 13.2791 6.78833 13.2439 6.75306L13.2439 6.75306C13.2086 6.71783 13.1698 6.68877 13.1319 6.66508C13.1643 6.62838 13.1968 6.58477 13.2228 6.53528L13.6326 6.71366ZM13.2833 6.36445C13.3316 6.38478 13.3878 6.40282 13.4484 6.41112L13.2833 6.36445ZM13.2833 6.36445C13.2717 6.41755 13.2532 6.47726 13.2232 6.53456L13.2833 6.36445Z" stroke="#FFF2E2"/>
<defs>
<filter id="filter0_i_2785_487" x="0" y="0" width="24" height="28" filterUnits="userSpaceOnUse" color-interpolation-filters="sRGB">
<feFlood flood-opacity="0" result="BackgroundImageFix"/>
<feBlend mode="normal" in="SourceGraphic" in2="BackgroundImageFix" result="shape"/>
<feColorMatrix in="SourceAlpha" type="matrix" values="0 0 0 0 0 0 0 0 0 0 0 0 0 0 0 0 0 0 127 0" result="hardAlpha"/>
<feOffset dy="4"/>
<feGaussianBlur stdDeviation="5"/>
<feComposite in2="hardAlpha" operator="arithmetic" k2="-1" k3="1"/>
<feColorMatrix type="matrix" values="0 0 0 0 0 0 0 0 0 0 0 0 0 0 0 0 0 0 0.15 0"/>
<feBlend mode="normal" in2="shape" result="effect1_innerShadow_2785_487"/>
</filter>
</defs>
</svg>
