<svg width="18" height="18" viewBox="0 0 18 18" fill="none" xmlns="http://www.w3.org/2000/svg">
<g clip-path="url(#clip0_2785_443)">
<path d="M11.8459 6.06267L11.6848 6.6875H12.3301H15.9063C16.8013 6.6875 17.4959 7.43663 17.5 8.23258C17.5023 8.73959 17.2799 9.28763 16.9622 9.60685L16.9591 9.60995L16.7213 9.84777L16.8519 10.1577C17.1364 10.8325 17.0843 11.791 16.5852 12.4576L16.428 12.6675L16.5114 12.9162C16.7547 13.6419 16.4997 14.5679 16.0482 15.0398L15.8588 15.2379L15.9238 15.5041C16.0496 16.019 15.9773 16.3898 15.783 16.6689C15.5377 17.0214 15.0757 17.2478 14.3981 17.3721C13.7283 17.495 12.9538 17.5 12.1937 17.5C12.1937 17.5 12.1936 17.5 12.1936 17.5L12.0937 17.5C10.5148 17.4994 9.21472 16.9266 8.0935 16.4278C7.8112 16.3022 7.46996 16.1546 7.12386 16.0371C6.80819 15.9299 6.45786 15.8367 6.125 15.8188V8.41153C6.8457 7.69457 7.36034 6.96021 7.82294 6.28667C7.84712 6.25148 7.87112 6.2165 7.89497 6.18173C8.33893 5.53468 8.7323 4.96136 9.23696 4.45585L9.23699 4.45581C9.8581 3.83353 10.0757 2.92562 10.2475 2.2089C10.2524 2.18867 10.2572 2.16859 10.262 2.14867C10.3422 1.8151 10.4535 1.3529 10.6216 0.975401C10.7058 0.786358 10.7903 0.651518 10.8672 0.57065C10.9037 0.532301 10.9306 0.514499 10.9459 0.506759C10.9587 0.500289 10.9646 0.5 10.9688 0.5C11.3492 0.5 11.8521 0.566249 12.252 0.864289C12.624 1.14161 13 1.69067 13 2.86355C13 3.49824 12.8086 3.99922 12.5643 4.48726C12.5025 4.61077 12.4382 4.7316 12.3719 4.8559L12.3632 4.87239C12.3006 4.98976 12.2358 5.1112 12.1747 5.23271C12.0468 5.48674 11.9233 5.76276 11.8459 6.06267ZM6.04842 15.816C6.04875 15.816 6.04909 15.816 6.04942 15.816C6.04909 15.816 6.04876 15.816 6.04844 15.816L6.04842 15.816ZM0.84375 8.375H3.65625C3.8461 8.375 4 8.5289 4 8.71875V17.1562C4 17.3461 3.8461 17.5 3.65625 17.5H0.84375C0.653896 17.5 0.5 17.3461 0.5 17.1562V8.71875C0.5 8.5289 0.653896 8.375 0.84375 8.375ZM0.90625 15.75C0.90625 16.4921 1.50786 17.0938 2.25 17.0938C2.99214 17.0938 3.59375 16.4921 3.59375 15.75C3.59375 15.0079 2.99214 14.4062 2.25 14.4062C1.50786 14.4062 0.90625 15.0079 0.90625 15.75Z" stroke="#646464"/>
</g>
<defs>
<clipPath id="clip0_2785_443">
<rect width="18" height="18" fill="white"/>
</clipPath>
</defs>
</svg>
