<svg width="20" height="20" viewBox="0 0 20 20" fill="none" xmlns="http://www.w3.org/2000/svg">
<g clip-path="url(#clip0_2785_406)">
<mask id="path-1-inside-1_2785_406" fill="white">
<path d="M12.3817 17.381C12.3817 17.6438 12.1684 17.8571 11.9055 17.8571H8.09598C7.83313 17.8571 7.61979 17.6438 7.61979 17.381C7.61979 17.1181 7.83313 16.9047 8.09598 16.9047H11.9055C12.1684 16.9048 12.3817 17.1181 12.3817 17.381ZM11.9055 18.0952H8.09598C7.78264 18.0952 7.54003 18.3979 7.64434 18.7267C7.70719 18.925 7.90789 19.0476 8.11601 19.0476H8.12315C8.39815 19.0476 8.64959 19.2031 8.77266 19.4491L8.77767 19.4591C8.94364 19.7905 9.28243 20 9.65316 20H10.3484C10.7191 20 11.0579 19.7905 11.2236 19.4591L11.2286 19.4491C11.3518 19.2031 11.6032 19.0476 11.8782 19.0476H11.8853C12.0934 19.0476 12.2941 18.925 12.357 18.7267C12.4615 18.3979 12.2188 18.0952 11.9055 18.0952ZM10.0008 2.85714C10.2636 2.85714 10.477 2.6438 10.477 2.38095V0.47619C10.477 0.21334 10.2636 0 10.0008 0C9.73789 0 9.52455 0.21334 9.52455 0.47619V2.38095C9.52455 2.6438 9.73789 2.85714 10.0008 2.85714ZM4.95004 4.67024C5.0429 4.76334 5.16482 4.80977 5.2867 4.80977C5.40862 4.80977 5.53051 4.76334 5.62336 4.67024C5.80932 4.48428 5.80932 4.18284 5.62336 3.99692L4.27648 2.65C4.09076 2.46404 3.78884 2.46404 3.60316 2.65C3.4172 2.83596 3.4172 3.13736 3.60316 3.32332L4.95004 4.67024ZM3.81027 9.04762C3.81027 8.78477 3.59693 8.57143 3.33408 8.57143H1.42932C1.16647 8.57143 0.953125 8.78477 0.953125 9.04762C0.953125 9.31047 1.16647 9.52381 1.42932 9.52381H3.33408C3.59696 9.52381 3.81027 9.31047 3.81027 9.04762ZM4.95004 13.425L3.60316 14.7719C3.4172 14.9579 3.4172 15.2593 3.60316 15.4452C3.69602 15.5383 3.8179 15.5847 3.93982 15.5847C4.0617 15.5847 4.18362 15.5383 4.27648 15.4452L5.62336 14.0983C5.80932 13.9124 5.80932 13.611 5.62336 13.425C5.43765 13.239 5.13576 13.239 4.95004 13.425ZM15.0515 13.425C14.8655 13.239 14.5641 13.239 14.3782 13.425C14.1922 13.611 14.1922 13.9124 14.3782 14.0983L15.7251 15.4452C15.8181 15.5383 15.9399 15.5847 16.0617 15.5847C16.1836 15.5847 16.3053 15.5383 16.3984 15.4452C16.5844 15.2593 16.5844 14.9578 16.3984 14.7719L15.0515 13.425ZM18.5722 8.57143H16.6674C16.4046 8.57143 16.1912 8.78477 16.1912 9.04762C16.1912 9.31047 16.4046 9.52381 16.6674 9.52381H18.5722C18.835 9.52381 19.0484 9.31047 19.0484 9.04762C19.0484 8.78477 18.835 8.57143 18.5722 8.57143ZM14.7148 4.80977C14.8367 4.80977 14.9583 4.76334 15.0514 4.67024L16.3984 3.32332C16.5843 3.13736 16.5843 2.83596 16.3984 2.65C16.2124 2.46404 15.911 2.46404 15.725 2.65L14.3781 3.99692C14.1922 4.18288 14.1922 4.48428 14.3781 4.67024C14.471 4.76334 14.5929 4.80977 14.7148 4.80977ZM12.3817 16.1905C12.3817 16.4533 12.1684 16.6667 11.9055 16.6667H8.09598C7.83313 16.6667 7.61979 16.4533 7.61979 16.1905C7.61979 15.9369 7.8186 15.7314 8.0686 15.7171C7.77217 13.0376 5.00074 12.4407 5.00074 9.28571C5.00074 6.5243 7.23933 4.28571 10.0007 4.28571C12.7622 4.28571 15.0007 6.5243 15.0007 9.28571C15.0007 12.4407 12.2293 13.0376 11.9329 15.7172C12.1829 15.7314 12.3817 15.9369 12.3817 16.1905ZM8.90337 5.62143C8.82932 5.4388 8.62147 5.35095 8.43814 5.42451C7.22123 5.91761 6.29864 6.97164 5.97028 8.24401C5.92098 8.43519 6.036 8.62973 6.22697 8.67903C6.25673 8.68687 6.28674 8.69044 6.31626 8.69044C6.47529 8.69044 6.62032 8.58354 6.66198 8.42258C6.9339 7.36831 7.69819 6.49496 8.70628 6.08662C8.88908 6.01264 8.97718 5.80452 8.90337 5.62143Z"/>
</mask>
<path d="M11.9055 16.9047L11.9056 15.9047H11.9055V16.9047ZM7.64434 18.7267L8.59761 18.4246L8.59752 18.4243L7.64434 18.7267ZM8.77266 19.4491L9.66707 19.0018L9.66696 19.0016L8.77266 19.4491ZM8.77767 19.4591L7.88326 19.9063L7.88353 19.9068L8.77767 19.4591ZM11.2236 19.4591L12.1181 19.9063L12.1181 19.9063L11.2236 19.4591ZM11.2286 19.4491L10.3344 19.0014L10.3342 19.0018L11.2286 19.4491ZM12.357 18.7267L11.4039 18.4238L11.4037 18.4246L12.357 18.7267ZM4.95004 4.67024L5.65808 3.96406L5.65716 3.96314L4.95004 4.67024ZM5.62336 4.67024L4.91626 3.96313L4.91532 3.96406L5.62336 4.67024ZM5.62336 3.99692L4.91625 4.70402L4.91632 4.70409L5.62336 3.99692ZM4.27648 2.65L3.56891 3.35664L3.56936 3.3571L4.27648 2.65ZM3.60316 2.65L4.31027 3.35711L4.3108 3.35657L3.60316 2.65ZM3.60316 3.32332L4.31028 2.61622L4.31027 2.61621L3.60316 3.32332ZM4.95004 13.425L5.65716 14.1321L5.65762 14.1316L4.95004 13.425ZM3.60316 14.7719L4.31027 15.479L4.31028 15.479L3.60316 14.7719ZM3.60316 15.4452L4.3112 14.7391L4.3102 14.7381L3.60316 15.4452ZM4.27648 15.4452L3.56936 14.7381L3.56844 14.7391L4.27648 15.4452ZM5.62336 14.0983L4.91626 13.3912L4.91625 13.3912L5.62336 14.0983ZM5.62336 13.425L4.91579 14.1316L4.91626 14.1321L5.62336 13.425ZM15.0515 13.425L14.3444 14.1321L15.0515 13.425ZM14.3782 14.0983L15.0853 13.3912L15.0852 13.3911L14.3782 14.0983ZM15.7251 15.4452L16.4323 14.7383L16.4322 14.7381L15.7251 15.4452ZM16.3984 15.4452L17.1055 16.1523L16.3984 15.4452ZM16.3984 14.7719L15.6913 15.479L15.6914 15.4791L16.3984 14.7719ZM15.0514 4.67024L15.7586 5.37735L15.0514 4.67024ZM16.3984 3.32332L15.6913 2.61621L16.3984 3.32332ZM15.725 2.65L16.4321 3.35711L16.4322 3.35704L15.725 2.65ZM14.3781 3.99692L15.0852 4.70403V4.70403L14.3781 3.99692ZM14.3781 4.67024L15.086 3.96393L15.0852 3.96313L14.3781 4.67024ZM8.0686 15.7171L8.12579 16.7155L9.17848 16.6552L9.06254 15.6072L8.0686 15.7171ZM11.9329 15.7172L10.939 15.6072L10.823 16.6554L11.8758 16.7155L11.9329 15.7172ZM8.90337 5.62143L9.83084 5.24753L9.83008 5.24566L8.90337 5.62143ZM8.43814 5.42451L8.06574 4.49643L8.06259 4.49771L8.43814 5.42451ZM5.97028 8.24401L5.00201 7.99413L5.00196 7.99431L5.97028 8.24401ZM6.22697 8.67903L6.4818 7.71203L6.47693 7.71077L6.22697 8.67903ZM6.66198 8.42258L7.63007 8.67319L7.63029 8.67233L6.66198 8.42258ZM8.70628 6.08662L8.33112 5.15966L8.33085 5.15977L8.70628 6.08662ZM11.3817 17.381C11.3817 17.0915 11.6162 16.8571 11.9055 16.8571V18.8571C12.7206 18.8571 13.3817 18.1961 13.3817 17.381H11.3817ZM11.9055 16.8571H8.09598V18.8571H11.9055V16.8571ZM8.09598 16.8571C8.38542 16.8571 8.61979 17.0915 8.61979 17.381H6.61979C6.61979 18.1961 7.28084 18.8571 8.09598 18.8571V16.8571ZM8.61979 17.381C8.61979 17.6703 8.38546 17.9047 8.09598 17.9047V15.9047C7.2808 15.9047 6.61979 16.5658 6.61979 17.381H8.61979ZM8.09598 17.9047H11.9055V15.9047H8.09598V17.9047ZM11.9054 17.9047C11.6162 17.9047 11.3817 17.6705 11.3817 17.381H13.3817C13.3817 16.5657 12.7206 15.9048 11.9056 15.9047L11.9054 17.9047ZM11.9055 17.0952H8.09598V19.0952H11.9055V17.0952ZM8.09598 17.0952C7.12286 17.0952 6.37728 18.0397 6.69115 19.0291L8.59752 18.4243C8.70278 18.7561 8.44243 19.0952 8.09598 19.0952V17.0952ZM6.69106 19.0288C6.90914 19.7169 7.55526 20.0476 8.11601 20.0476V18.0476C8.26051 18.0476 8.50524 18.1331 8.59761 18.4246L6.69106 19.0288ZM8.11601 20.0476H8.12315V18.0476H8.11601V20.0476ZM8.12315 20.0476C8.01916 20.0476 7.92459 19.9889 7.87836 19.8965L9.66696 19.0016C9.37459 18.4173 8.77715 18.0476 8.12315 18.0476V20.0476ZM7.87825 19.8963L7.88326 19.9063L9.67208 19.0118L9.66707 19.0018L7.87825 19.8963ZM7.88353 19.9068C8.21878 20.5763 8.9034 21 9.65316 21V19C9.66146 19 9.66849 19.0047 9.67181 19.0113L7.88353 19.9068ZM9.65316 21H10.3484V19H9.65316V21ZM10.3484 21C11.098 21 11.783 20.5763 12.1181 19.9063L10.3292 19.0118C10.3328 19.0046 10.3402 19 10.3484 19V21ZM12.1181 19.9063L12.1231 19.8963L10.3342 19.0018L10.3292 19.0119L12.1181 19.9063ZM12.1229 19.8967C12.0767 19.9888 11.9823 20.0476 11.8782 20.0476V18.0476C11.224 18.0476 10.6268 18.4174 10.3344 19.0014L12.1229 19.8967ZM11.8782 20.0476H11.8853V18.0476H11.8782V20.0476ZM11.8853 20.0476C12.446 20.0476 13.0922 19.7169 13.3103 19.0288L11.4037 18.4246C11.4961 18.1331 11.7408 18.0476 11.8853 18.0476V20.0476ZM13.31 19.0295C13.6245 18.0398 12.8785 17.0952 11.9055 17.0952V19.0952C11.5592 19.0952 11.2984 18.756 11.4039 18.4238L13.31 19.0295ZM10.0008 3.85714C10.8159 3.85714 11.477 3.19609 11.477 2.38095H9.47697C9.47697 2.09152 9.71134 1.85714 10.0008 1.85714V3.85714ZM11.477 2.38095V0.47619H9.47697V2.38095H11.477ZM11.477 0.47619C11.477 -0.338942 10.8159 -1 10.0008 -1V1C9.71134 1 9.47697 0.765623 9.47697 0.47619H11.477ZM10.0008 -1C9.18566 -1 8.52455 -0.338992 8.52455 0.47619H10.5246C10.5246 0.765672 10.2901 1 10.0008 1V-1ZM8.52455 0.47619V2.38095H10.5246V0.47619H8.52455ZM8.52455 2.38095C8.52455 3.19613 9.18566 3.85714 10.0008 3.85714V1.85714C10.2901 1.85714 10.5246 2.09147 10.5246 2.38095H8.52455ZM4.24201 5.37641C4.53066 5.66583 4.91096 5.80977 5.2867 5.80977V3.80977C5.41867 3.80977 5.55514 3.86085 5.65808 3.96406L4.24201 5.37641ZM5.2867 5.80977C5.66252 5.80977 6.04277 5.6658 6.3314 5.37641L4.91532 3.96406C5.01824 3.86088 5.15473 3.80977 5.2867 3.80977V5.80977ZM6.33047 5.37735C6.90692 4.8009 6.90701 3.86625 6.3304 3.28975L4.91632 4.70409C4.71163 4.49944 4.71173 4.16766 4.91626 3.96313L6.33047 5.37735ZM6.33048 3.28982L4.98359 1.9429L3.56936 3.3571L4.91625 4.70402L6.33048 3.28982ZM4.98405 1.94336C4.40774 1.36629 3.47188 1.36619 2.89552 1.94343L4.3108 3.35657C4.1058 3.56189 3.77379 3.56179 3.56891 3.35664L4.98405 1.94336ZM2.89605 1.94289C2.31957 2.51938 2.31957 3.45394 2.89605 4.03043L4.31027 2.61621C4.51483 2.82078 4.51483 3.15254 4.31027 3.35711L2.89605 1.94289ZM2.89604 4.03042L4.24293 5.37734L5.65716 3.96314L4.31028 2.61622L2.89604 4.03042ZM4.81027 9.04762C4.81027 8.23248 4.14921 7.57143 3.33408 7.57143V9.57143C3.04464 9.57143 2.81027 9.33705 2.81027 9.04762H4.81027ZM3.33408 7.57143H1.42932V9.57143H3.33408V7.57143ZM1.42932 7.57143C0.614181 7.57143 -0.046875 8.23248 -0.046875 9.04762H1.95312C1.95312 9.33705 1.71875 9.57143 1.42932 9.57143V7.57143ZM-0.046875 9.04762C-0.046875 9.86275 0.61418 10.5238 1.42932 10.5238V8.52381C1.71875 8.52381 1.95312 8.75819 1.95312 9.04762H-0.046875ZM1.42932 10.5238H3.33408V8.52381H1.42932V10.5238ZM3.33408 10.5238C4.1493 10.5238 4.81027 9.86271 4.81027 9.04762H2.81027C2.81027 8.75823 3.04463 8.52381 3.33408 8.52381V10.5238ZM4.24293 12.7179L2.89604 14.0648L4.31028 15.479L5.65716 14.1321L4.24293 12.7179ZM2.89605 14.0648C2.31961 14.6413 2.31951 15.5759 2.89612 16.1524L4.3102 14.7381C4.51489 14.9427 4.51479 15.2745 4.31027 15.479L2.89605 14.0648ZM2.89512 16.1514C3.18388 16.4409 3.5642 16.5847 3.93982 16.5847V14.5847C4.0716 14.5847 4.20815 14.6357 4.3112 14.7391L2.89512 16.1514ZM3.93982 16.5847C4.31537 16.5847 4.69573 16.441 4.98452 16.1514L3.56844 14.7391C3.67151 14.6357 3.80804 14.5847 3.93982 14.5847V16.5847ZM4.98359 16.1523L6.33048 14.8054L4.91625 13.3912L3.56936 14.7381L4.98359 16.1523ZM6.33047 14.8054C6.90695 14.2289 6.90695 13.2944 6.33047 12.7179L4.91626 14.1321C4.71169 13.9275 4.71169 13.5958 4.91626 13.3912L6.33047 14.8054ZM6.33094 12.7184C5.75459 12.1413 4.81882 12.1413 4.24247 12.7184L5.65762 14.1316C5.4527 14.3368 5.12071 14.3368 4.91579 14.1316L6.33094 12.7184ZM15.7586 12.7179C15.1821 12.1414 14.2475 12.1414 13.671 12.718L15.0853 14.132C14.8807 14.3367 14.5489 14.3366 14.3444 14.1321L15.7586 12.7179ZM13.671 12.718C13.0947 13.2943 13.0944 14.2289 13.6711 14.8055L15.0852 13.3911C15.29 13.5959 15.2897 13.9276 15.0853 14.132L13.671 12.718ZM13.6711 14.8054L15.018 16.1523L16.4322 14.7381L15.0853 13.3912L13.6711 14.8054ZM15.0178 16.1522C15.306 16.4405 15.6855 16.5847 16.0617 16.5847V14.5847C16.1942 14.5847 16.3302 14.6361 16.4323 14.7383L15.0178 16.1522ZM16.0617 16.5847C16.4381 16.5847 16.8174 16.4405 17.1055 16.1523L15.6913 14.7381C15.7932 14.6362 15.9292 14.5847 16.0617 14.5847V16.5847ZM17.1055 16.1523C17.682 15.5759 17.682 14.6412 17.1054 14.0647L15.6914 15.4791C15.4867 15.2744 15.4868 14.9427 15.6913 14.7381L17.1055 16.1523ZM17.1055 14.0648L15.7586 12.7179L14.3444 14.1321L15.6913 15.479L17.1055 14.0648ZM18.5722 7.57143H16.6674V9.57143H18.5722V7.57143ZM16.6674 7.57143C15.8523 7.57143 15.1912 8.23248 15.1912 9.04762H17.1912C17.1912 9.33706 16.9568 9.57143 16.6674 9.57143V7.57143ZM15.1912 9.04762C15.1912 9.86275 15.8523 10.5238 16.6674 10.5238V8.52381C16.9568 8.52381 17.1912 8.75818 17.1912 9.04762H15.1912ZM16.6674 10.5238H18.5722V8.52381H16.6674V10.5238ZM18.5722 10.5238C19.3873 10.5238 20.0484 9.86275 20.0484 9.04762H18.0484C18.0484 8.75819 18.2827 8.52381 18.5722 8.52381V10.5238ZM20.0484 9.04762C20.0484 8.23249 19.3873 7.57143 18.5722 7.57143V9.57143C18.2827 9.57143 18.0484 9.33705 18.0484 9.04762H20.0484ZM14.7148 5.80977C15.0913 5.80977 15.4706 5.66533 15.7586 5.37735L14.3443 3.96313C14.4461 3.86135 14.582 3.80977 14.7148 3.80977V5.80977ZM15.7586 5.37735L17.1055 4.03043L15.6913 2.61621L14.3443 3.96313L15.7586 5.37735ZM17.1055 4.03043C17.682 3.45394 17.682 2.51938 17.1055 1.94289L15.6913 3.35711C15.4867 3.15254 15.4867 2.82078 15.6913 2.61621L17.1055 4.03043ZM17.1055 1.94289C16.529 1.36645 15.5944 1.36635 15.0179 1.94296L16.4322 3.35704C16.2276 3.56173 15.8958 3.56163 15.6913 3.35711L17.1055 1.94289ZM15.0179 1.94289L13.671 3.28981L15.0852 4.70403L16.4321 3.35711L15.0179 1.94289ZM13.671 3.28981C13.0945 3.8663 13.0945 4.80086 13.671 5.37735L15.0852 3.96313C15.2898 4.1677 15.2898 4.49946 15.0852 4.70403L13.671 3.28981ZM13.6702 5.37655C13.9588 5.66575 14.3389 5.80977 14.7148 5.80977V3.80977C14.8469 3.80977 14.9833 3.86093 15.086 3.96393L13.6702 5.37655ZM11.3817 16.1905C11.3817 15.901 11.6162 15.6667 11.9055 15.6667V17.6667C12.7206 17.6667 13.3817 17.0057 13.3817 16.1905H11.3817ZM11.9055 15.6667H8.09598V17.6667H11.9055V15.6667ZM8.09598 15.6667C8.38542 15.6667 8.61979 15.901 8.61979 16.1905H6.61979C6.61979 17.0056 7.28085 17.6667 8.09598 17.6667V15.6667ZM8.61979 16.1905C8.61979 16.4763 8.39564 16.7 8.12579 16.7155L8.01141 14.7188C7.24156 14.7629 6.61979 15.3975 6.61979 16.1905H8.61979ZM9.06254 15.6072C8.87513 13.9131 7.87185 12.8581 7.19268 12.0407C6.50006 11.207 6.00074 10.5002 6.00074 9.28571H4.00074C4.00074 11.2263 4.88715 12.3954 5.65434 13.3188C6.43499 14.2584 6.96565 14.8416 7.07467 15.8271L9.06254 15.6072ZM6.00074 9.28571C6.00074 7.07658 7.79161 5.28571 10.0007 5.28571V3.28571C6.68704 3.28571 4.00074 5.97202 4.00074 9.28571H6.00074ZM10.0007 5.28571C12.2099 5.28571 14.0007 7.07658 14.0007 9.28571H16.0007C16.0007 5.97202 13.3144 3.28571 10.0007 3.28571V5.28571ZM14.0007 9.28571C14.0007 10.5002 13.5014 11.207 12.8088 12.0407C12.1296 12.8582 11.1264 13.9131 10.939 15.6072L12.9268 15.8271C13.0358 14.8417 13.5665 14.2584 14.3471 13.3188C15.1143 12.3953 16.0007 11.2262 16.0007 9.28571H14.0007ZM11.8758 16.7155C11.606 16.7001 11.3817 16.4764 11.3817 16.1905H13.3817C13.3817 15.3974 12.7598 14.7628 11.9899 14.7188L11.8758 16.7155ZM9.83008 5.24566C9.5478 4.5495 8.75727 4.21895 8.06574 4.49644L8.81054 6.35258C8.48567 6.48294 8.11083 6.32809 7.97666 5.9972L9.83008 5.24566ZM8.06259 4.49771C6.55175 5.10991 5.40947 6.41523 5.00201 7.99413L6.93856 8.4939C7.18782 7.52804 7.8907 6.72531 8.81369 6.35131L8.06259 4.49771ZM5.00196 7.99431C4.81456 8.72103 5.25224 9.46018 5.97701 9.64728L6.47693 7.71077C6.81976 7.79928 7.02741 8.14935 6.9386 8.49372L5.00196 7.99431ZM5.97214 9.64601C6.09002 9.67708 6.206 9.69044 6.31626 9.69044V7.69044C6.36748 7.69044 6.42345 7.69666 6.4818 7.71204L5.97214 9.64601ZM6.31626 9.69044C6.91991 9.69044 7.47142 9.28606 7.63007 8.67319L5.69389 8.17198C5.76921 7.88102 6.03066 7.69044 6.31626 7.69044V9.69044ZM7.63029 8.67233C7.82316 7.92457 8.36776 7.30267 9.0817 7.01348L8.33085 5.15977C7.02862 5.68725 6.04465 6.81206 5.69367 8.17284L7.63029 8.67233ZM9.08143 7.01359C9.77721 6.732 10.1103 5.94084 9.83084 5.24753L7.9759 5.99533C7.84402 5.66819 8.00096 5.29328 8.33112 5.15966L9.08143 7.01359Z" fill="#646464" mask="url(#path-1-inside-1_2785_406)"/>
</g>
<defs>
<clipPath id="clip0_2785_406">
<rect width="20" height="20" fill="white"/>
</clipPath>
</defs>
</svg>
