<svg width="342" height="342" viewBox="0 0 342 342" fill="none" xmlns="http://www.w3.org/2000/svg">
<path d="M342 261.562H0V261.733H342V261.562Z" fill="#EBEBEB"/>
<path d="M215.918 266.22H198.504V266.391H215.918V266.22Z" fill="#EBEBEB"/>
<path d="M311.521 269.92H270.255V270.091H311.521V269.92Z" fill="#EBEBEB"/>
<path d="M194.796 266.302H152.163V266.473H194.796V266.302Z" fill="#EBEBEB"/>
<path d="M124.516 271.418H115.596V271.589H124.516V271.418Z" fill="#EBEBEB"/>
<path d="M173.798 271.418H133.182V271.589H173.798V271.418Z" fill="#EBEBEB"/>
<path d="M62.1826 268.531H35.8828V268.702H62.1826V268.531Z" fill="#EBEBEB"/>
<path d="M162.108 231.055H30.0345C28.9999 231.054 28.0082 230.641 27.2773 229.909C26.5463 229.177 26.1357 228.184 26.1357 227.15V41.4916C26.1447 40.4628 26.5593 39.4792 27.2893 38.7543C28.0193 38.0295 29.0058 37.6219 30.0345 37.6201H162.108C163.144 37.6201 164.137 38.0316 164.87 38.7641C165.602 39.4965 166.014 40.4899 166.014 41.5258V227.15C166.014 228.186 165.602 229.179 164.87 229.911C164.137 230.644 163.144 231.055 162.108 231.055ZM30.0345 37.7569C29.0452 37.7587 28.0971 38.153 27.3982 38.8532C26.6993 39.5534 26.3067 40.5023 26.3067 41.4916V227.15C26.3067 228.139 26.6993 229.088 27.3982 229.788C28.0971 230.488 29.0452 230.883 30.0345 230.884H162.108C163.098 230.883 164.047 230.488 164.747 229.788C165.447 229.088 165.841 228.14 165.843 227.15V41.4916C165.841 40.5016 165.447 39.5528 164.747 38.8528C164.047 38.1528 163.098 37.7587 162.108 37.7569H30.0345Z" fill="#EBEBEB"/>
<path d="M310.064 231.055H177.984C176.948 231.054 175.956 230.641 175.224 229.909C174.492 229.177 174.08 228.185 174.078 227.15V41.4916C174.089 40.4622 174.505 39.4786 175.236 38.7539C175.967 38.0292 176.954 37.6219 177.984 37.6201H310.064C311.092 37.6237 312.077 38.0321 312.805 38.7567C313.534 39.4814 313.947 40.464 313.956 41.4916V227.15C313.956 228.183 313.547 229.174 312.817 229.907C312.088 230.639 311.098 231.052 310.064 231.055ZM177.984 37.7569C176.994 37.7587 176.045 38.1528 175.345 38.8528C174.645 39.5528 174.251 40.5016 174.249 41.4916V227.15C174.251 228.14 174.645 229.088 175.345 229.788C176.045 230.488 176.994 230.883 177.984 230.884H310.064C311.054 230.883 312.003 230.488 312.703 229.788C313.403 229.088 313.797 228.14 313.799 227.15V41.4916C313.797 40.5016 313.403 39.5528 312.703 38.8528C312.003 38.1528 311.054 37.7587 310.064 37.7569H177.984Z" fill="#EBEBEB"/>
<path d="M134.036 202.239H88.6188L85.8623 170.433H131.28L134.036 202.239Z" fill="#E6E6E6"/>
<path d="M136.389 202.239H90.9719L88.2153 170.433H133.633L136.389 202.239Z" fill="#F0F0F0"/>
<path d="M97.1825 195.405L95.6641 177.259H127.422L128.941 195.405H97.1825Z" fill="white"/>
<path d="M144.249 202.238H138.92V261.562H144.249V202.238Z" fill="#E6E6E6"/>
<path d="M145.931 202.238H142.231V261.562H145.931V202.238Z" fill="#F0F0F0"/>
<path d="M94.3512 208.784H145.932V202.238H94.3512V208.784Z" fill="#F0F0F0"/>
<path d="M96.1702 208.784H90.8418V261.562H96.1702V208.784Z" fill="#E6E6E6"/>
<path d="M97.8533 208.784H94.1528V261.562H97.8533V208.784Z" fill="#F0F0F0"/>
<path d="M58.2424 208.784H52.9141V261.562H58.2424V208.784Z" fill="#E6E6E6"/>
<path d="M59.9251 208.784H56.2246V261.562H59.9251V208.784Z" fill="#F0F0F0"/>
<path d="M110.528 208.784H105.199V261.562H110.528V208.784Z" fill="#E6E6E6"/>
<path d="M112.203 208.784H108.503V261.562H112.203V208.784Z" fill="#F0F0F0"/>
<path d="M94.3508 202.238H52.9141V208.784H94.3508V202.238Z" fill="#E6E6E6"/>
<path d="M248.867 54.3164H88.585V143.551H248.867V54.3164Z" fill="#E0E0E0"/>
<path d="M257.67 54.3164H89.3921V143.551H257.67V54.3164Z" fill="#F5F5F5"/>
<path d="M254.92 140.802V57.0664L92.1416 57.0664V140.802H254.92Z" fill="#14A5F9"/>
<path d="M158.052 140.802L188.784 57.0664H138.066L107.333 140.802H158.052Z" fill="#F5F5F5"/>
<path d="M206.869 140.802L237.601 57.0664H199.338L168.606 140.802H206.869Z" fill="#F5F5F5"/>
<path d="M299.667 176.335H286.042V261.561H299.667V176.335Z" fill="#E6E6E6"/>
<path d="M296.083 261.562H299.667V255.002H292.328L296.083 261.562Z" fill="#FAFAFA"/>
<path d="M174.044 176.335H160.418V261.561H174.044V176.335Z" fill="#E6E6E6"/>
<path d="M299.667 176.335H170.918V259.79H299.667V176.335Z" fill="#15AEFB"/>
<path d="M297.232 203.264H173.36V179.693H297.232V203.264ZM174.044 202.58H296.548V180.377H174.044V202.58Z" fill="#E6E6E6"/>
<path d="M275.426 191.137H197.566C193.955 191.137 190.473 188.223 187.99 183.134L187.758 182.648H285.228L284.995 183.134C282.492 188.223 279.072 191.137 275.426 191.137ZM188.88 183.312C191.192 187.847 194.352 190.432 197.566 190.432H275.426C278.655 190.432 281.801 187.847 284.113 183.312H188.88Z" fill="#E6E6E6"/>
<path d="M174.502 261.562H170.918V255.002H178.257L174.502 261.562Z" fill="#FAFAFA"/>
<path d="M297.232 229.825H173.36V206.281H297.232V229.825ZM174.044 229.141H296.548V206.965H174.044V229.141Z" fill="#E6E6E6"/>
<path d="M275.426 217.724H197.566C193.955 217.724 190.473 214.803 187.99 209.721L187.758 209.229H285.228L284.995 209.721C282.492 214.776 279.072 217.724 275.426 217.724ZM188.88 209.913C191.192 214.447 194.352 217.04 197.566 217.04H275.426C278.655 217.04 281.801 214.447 284.113 209.913H188.88Z" fill="#E6E6E6"/>
<path d="M297.232 256.432H173.36V232.861H297.232V256.432ZM174.044 255.748H296.548V233.545H174.044V255.748Z" fill="#E6E6E6"/>
<path d="M275.426 244.305H197.566C193.955 244.305 190.473 241.391 187.99 236.309L187.758 235.816H285.228L284.995 236.309C282.492 241.391 279.072 244.305 275.426 244.305ZM188.88 236.5C191.192 241.035 194.352 243.621 197.566 243.621H275.426C278.655 243.621 281.801 241.035 284.113 236.5H188.88Z" fill="#E6E6E6"/>
<path d="M82.7502 187.607V189.263H81.6968L80.8213 202.238H67.9347L67.0661 189.263H66.0059V187.607H82.7502Z" fill="#E6E6E6"/>
<path d="M78.5094 155.412C77.4561 147.683 67.0251 145.481 53.7897 145.193C41.1972 144.926 37.1616 140.474 37.1616 140.474C37.1616 140.474 37.2027 158.511 55.3492 165.05C72.5791 171.247 79.5696 163.155 78.5094 155.412Z" fill="#E6E6E6"/>
<path d="M72.0799 172.929C72.2988 169.755 77.3741 163.914 89.5835 166.568C98.4071 168.49 101.69 163.914 101.69 163.914C101.69 163.914 100.869 176.828 87.5999 180.706C74.9937 184.393 71.69 178.524 72.0799 172.929Z" fill="#E6E6E6"/>
<path d="M74.8637 192.477C74.9324 192.478 75.0005 192.464 75.0631 192.435C75.1257 192.407 75.1814 192.365 75.2262 192.313C76.1086 191.267 75.3835 188.763 74.3849 185.295C73.0989 180.849 71.4984 175.309 72.8527 171.294C73.6034 169.173 74.4805 167.099 75.4793 165.083C77.3945 161.034 79.0498 157.559 77.6681 153.879C77.6465 153.821 77.6136 153.767 77.5711 153.721C77.5287 153.676 77.4776 153.639 77.4208 153.613C77.3641 153.587 77.3027 153.573 77.2404 153.571C77.178 153.569 77.1159 153.579 77.0576 153.601C76.9993 153.623 76.9459 153.657 76.9006 153.7C76.8553 153.743 76.819 153.794 76.7937 153.851C76.7684 153.908 76.7547 153.97 76.7533 154.032C76.752 154.094 76.763 154.156 76.7857 154.214C78.0237 157.491 76.5258 160.664 74.6243 164.686C73.6128 166.735 72.7221 168.84 71.9567 170.993C70.5134 175.288 72.155 180.986 73.4751 185.555C74.2549 188.291 75.062 191.027 74.508 191.711C74.464 191.758 74.4303 191.814 74.4091 191.875C74.3879 191.936 74.3796 192.001 74.3848 192.065C74.3899 192.13 74.4084 192.192 74.439 192.249C74.4697 192.306 74.5118 192.356 74.5627 192.395C74.6501 192.458 74.7568 192.487 74.8637 192.477Z" fill="#E6E6E6"/>
<path d="M171 292.451C244.245 292.451 303.621 288.984 303.621 284.708C303.621 280.431 244.245 276.965 171 276.965C97.7557 276.965 38.3794 280.431 38.3794 284.708C38.3794 288.984 97.7557 292.451 171 292.451Z" fill="#279FE2"/>
<path d="M170.972 246.958H73.8445L68.5298 90.7529H165.658L170.972 246.958Z" fill="#407BFF"/>
<path d="M175.822 242.108H78.6941L73.3726 85.9033H170.501L175.822 242.108Z" fill="#407BFF"/>
<path opacity="0.3" d="M175.822 242.108H78.6941L73.3726 85.9033H170.501L175.822 242.108Z" fill="#14A7FA"/>
<path d="M143.279 150.182C153.679 139.603 153.236 122.304 142.291 111.544C131.346 100.784 114.042 100.638 103.642 111.217C93.2426 121.796 93.685 139.095 104.63 149.854C115.576 160.614 132.88 160.761 143.279 150.182Z" fill="#407BFF"/>
<path d="M146.013 130.705C146.153 134.427 145.341 138.124 143.653 141.444C141.832 145.023 139.05 148.023 135.618 150.108C132.187 152.193 128.243 153.281 124.228 153.25C120.118 153.228 116.087 152.125 112.538 150.053C108.989 147.981 106.048 145.012 104.009 141.444C102.107 138.175 101.045 134.485 100.917 130.705C100.791 127.774 101.262 124.849 102.301 122.105C103.341 119.362 104.927 116.859 106.964 114.748C109.001 112.637 111.446 110.962 114.151 109.825C116.855 108.687 119.762 108.112 122.696 108.133C128.739 108.176 134.533 110.545 138.876 114.749C143.218 118.952 145.774 124.667 146.013 130.705Z" fill="white"/>
<path opacity="0.6" d="M143.64 141.444C141.818 145.023 139.036 148.023 135.605 150.108C132.174 152.193 128.229 153.281 124.214 153.25C120.105 153.228 116.073 152.125 112.525 150.053C108.976 147.981 106.034 145.012 103.995 141.444C109.78 137.5 116.625 135.404 123.626 135.432C130.74 135.447 137.695 137.537 143.64 141.444Z" fill="#407BFF"/>
<path opacity="0.6" d="M130.488 130.143C134.312 126.252 134.149 119.892 130.124 115.935C126.1 111.979 119.737 111.925 115.913 115.815C112.089 119.705 112.251 126.066 116.276 130.022C120.301 133.979 126.664 134.033 130.488 130.143Z" fill="#407BFF"/>
<path d="M156.308 185.542H94.3508L93.9336 173.229H155.89L156.308 185.542Z" fill="white"/>
<path d="M157.06 207.546H95.0964L94.6792 195.234H156.643L157.06 207.546Z" fill="white"/>
<path d="M133.147 196.93L118.215 198.982C118.073 198.999 117.935 199.044 117.811 199.116C117.687 199.188 117.58 199.285 117.495 199.401C117.41 199.516 117.35 199.648 117.319 199.788C117.287 199.928 117.285 200.073 117.313 200.214L119.276 210.22C119.34 210.514 119.512 210.773 119.757 210.947C120.003 211.12 120.304 211.195 120.603 211.158L135.534 209.106C135.676 209.088 135.813 209.041 135.937 208.968C136.06 208.895 136.167 208.797 136.251 208.681C136.335 208.565 136.394 208.433 136.425 208.293C136.456 208.153 136.458 208.008 136.43 207.868L134.474 197.861C134.41 197.567 134.238 197.309 133.992 197.137C133.746 196.964 133.445 196.891 133.147 196.93ZM128.858 207.067L126.122 207.43L125.856 204.201C125.574 204.079 125.325 203.891 125.131 203.653C124.937 203.415 124.803 203.134 124.741 202.833C124.691 202.6 124.69 202.359 124.738 202.126C124.787 201.893 124.884 201.672 125.023 201.479C125.163 201.286 125.341 201.123 125.547 201.003C125.753 200.883 125.981 200.808 126.218 200.781C126.704 200.719 127.196 200.841 127.596 201.123C127.996 201.406 128.276 201.828 128.38 202.307C128.439 202.596 128.421 202.895 128.327 203.175C128.233 203.455 128.068 203.705 127.846 203.9L128.858 207.067Z" fill="#407BFF"/>
<path d="M131.67 196.39C131.406 196.424 131.139 196.357 130.921 196.204C130.704 196.051 130.551 195.822 130.493 195.562L130.302 194.584C130.028 193.249 129.28 192.059 128.196 191.234C127.112 190.409 125.765 190.005 124.406 190.097C123.72 190.136 123.05 190.323 122.443 190.643C121.835 190.964 121.304 191.412 120.884 191.956C120.465 192.501 120.168 193.129 120.013 193.798C119.859 194.468 119.85 195.163 119.987 195.836L120.206 196.965C120.232 197.09 120.231 197.219 120.203 197.343C120.176 197.468 120.123 197.586 120.048 197.689C119.972 197.792 119.876 197.878 119.766 197.942C119.655 198.005 119.533 198.045 119.406 198.059C119.141 198.096 118.873 198.031 118.654 197.877C118.436 197.724 118.284 197.493 118.229 197.231L118.045 196.281C117.857 195.392 117.851 194.475 118.026 193.584C118.202 192.692 118.556 191.846 119.067 191.095C119.578 190.345 120.236 189.705 121.001 189.215C121.765 188.725 122.621 188.394 123.517 188.244C125.458 187.917 127.451 188.352 129.081 189.456C130.712 190.56 131.854 192.25 132.272 194.174L132.491 195.296C132.516 195.422 132.515 195.553 132.486 195.679C132.458 195.805 132.403 195.923 132.325 196.027C132.248 196.13 132.149 196.216 132.036 196.278C131.923 196.341 131.799 196.379 131.67 196.39Z" fill="#407BFF"/>
<path d="M146.834 224.79H106.499L106.232 216.773H146.561L146.834 224.79Z" fill="#407BFF"/>
<path d="M127.374 179.385C127.386 179.678 127.339 179.969 127.235 180.243C127.131 180.516 126.972 180.766 126.769 180.976C126.565 181.187 126.321 181.354 126.051 181.467C125.782 181.58 125.492 181.638 125.199 181.636C124.596 181.631 124.018 181.395 123.584 180.976C123.15 180.557 122.893 179.988 122.867 179.385C122.855 179.093 122.902 178.801 123.006 178.527C123.11 178.254 123.269 178.004 123.472 177.794C123.675 177.584 123.919 177.417 124.189 177.303C124.459 177.19 124.749 177.133 125.042 177.135C125.645 177.138 126.225 177.373 126.659 177.793C127.093 178.212 127.35 178.782 127.374 179.385Z" fill="#263238"/>
<path d="M117.648 179.385C117.661 179.678 117.614 179.97 117.51 180.244C117.406 180.518 117.248 180.768 117.044 180.978C116.841 181.189 116.596 181.356 116.326 181.469C116.056 181.582 115.765 181.639 115.472 181.636C114.87 181.631 114.293 181.394 113.86 180.975C113.427 180.557 113.171 179.987 113.147 179.385C113.135 179.093 113.182 178.801 113.286 178.527C113.39 178.254 113.549 178.004 113.752 177.794C113.956 177.584 114.2 177.417 114.47 177.303C114.739 177.19 115.029 177.133 115.322 177.135C115.925 177.138 116.503 177.374 116.937 177.793C117.37 178.212 117.625 178.783 117.648 179.385Z" fill="#263238"/>
<path d="M107.983 179.385C107.995 179.678 107.948 179.969 107.844 180.243C107.739 180.516 107.581 180.766 107.378 180.976C107.174 181.187 106.93 181.354 106.66 181.467C106.391 181.58 106.101 181.638 105.808 181.636C105.205 181.632 104.627 181.397 104.193 180.977C103.76 180.558 103.505 179.988 103.482 179.385C103.47 179.093 103.518 178.801 103.622 178.527C103.726 178.254 103.884 178.004 104.088 177.794C104.291 177.584 104.535 177.417 104.805 177.303C105.075 177.19 105.365 177.133 105.657 177.135C106.26 177.138 106.839 177.374 107.272 177.793C107.705 178.212 107.96 178.783 107.983 179.385Z" fill="#263238"/>
<path d="M137.066 179.385C137.079 179.678 137.031 179.969 136.927 180.243C136.823 180.517 136.664 180.766 136.461 180.976C136.258 181.187 136.014 181.354 135.744 181.467C135.474 181.58 135.184 181.638 134.891 181.636C134.288 181.633 133.71 181.397 133.277 180.977C132.843 180.558 132.589 179.988 132.566 179.385C132.556 179.094 132.605 178.803 132.71 178.531C132.815 178.259 132.975 178.011 133.179 177.803C133.383 177.594 133.627 177.43 133.897 177.318C134.167 177.207 134.456 177.152 134.748 177.155C135.346 177.16 135.92 177.394 136.351 177.809C136.783 178.223 137.039 178.788 137.066 179.385Z" fill="#263238"/>
<path d="M146.759 179.385C146.772 179.678 146.725 179.97 146.621 180.244C146.518 180.518 146.359 180.768 146.156 180.978C145.952 181.189 145.708 181.356 145.437 181.469C145.167 181.582 144.877 181.639 144.584 181.636C143.981 181.631 143.404 181.394 142.971 180.975C142.538 180.557 142.283 179.987 142.258 179.385C142.246 179.093 142.294 178.801 142.398 178.527C142.502 178.254 142.66 178.004 142.864 177.794C143.067 177.584 143.311 177.417 143.581 177.303C143.851 177.19 144.141 177.133 144.433 177.135C145.036 177.138 145.615 177.374 146.048 177.793C146.481 178.212 146.736 178.783 146.759 179.385Z" fill="#263238"/>
<path d="M228.395 119.207C229.304 120.671 230.064 122.066 230.843 123.523C231.623 124.98 232.328 126.444 233.018 127.942C234.428 130.975 235.594 134.115 236.507 137.333C236.63 137.737 236.719 138.168 236.821 138.585L236.972 139.221L237.047 139.536L237.136 140.055C237.29 141.235 237.218 142.432 236.924 143.585C236.452 145.374 235.734 147.089 234.79 148.681C233.102 151.573 231.062 154.245 228.716 156.636L225.836 154.46C227.282 151.803 228.568 149.062 229.687 146.252C230.186 145.014 230.537 143.722 230.734 142.401C230.797 141.998 230.778 141.587 230.679 141.191L230.406 140.356C230.296 140.014 230.194 139.672 230.064 139.323C229.023 136.502 227.82 133.743 226.459 131.061C225.091 128.325 223.62 125.589 222.15 122.976L228.395 119.207Z" fill="#FF8B7B"/>
<path d="M226.568 153.51L223.422 155.172L227.033 159.399C227.033 159.399 229.291 157.874 229.393 155.548L226.568 153.51Z" fill="#FF8B7B"/>
<path d="M219.202 157.778L223.066 160.849L227.033 159.399L223.422 155.172L219.202 157.778Z" fill="#FF8B7B"/>
<path d="M205.987 96.8273C205.911 97.2103 205.645 97.4771 205.398 97.4292C205.152 97.3813 205.009 97.0257 205.084 96.6495C205.159 96.2733 205.426 95.9655 205.679 96.0475C205.932 96.1296 206.062 96.4443 205.987 96.8273Z" fill="#263238"/>
<path d="M205.679 97.4834C204.99 98.5548 204.157 99.5261 203.203 100.37C203.428 100.603 203.701 100.785 204.004 100.903C204.306 101.022 204.63 101.073 204.954 101.054L205.679 97.4834Z" fill="#FF5652"/>
<path d="M204.448 110.904V106.417L210.385 107.101C210.385 107.101 210.289 110.959 206.965 112.094L204.448 110.904Z" fill="#FF8B7B"/>
<path d="M206.158 103.188L210.337 104.392L210.412 107.135L204.475 106.417L206.158 103.188Z" fill="#FF8B7B"/>
<path opacity="0.2" d="M210.337 104.392L206.158 103.188L205.344 104.748C205.388 105.977 205.772 107.169 206.453 108.193C207.134 109.217 208.085 110.032 209.202 110.548C209.92 109.545 210.339 108.36 210.412 107.128L210.337 104.392Z" fill="black"/>
<path d="M207.806 95.001C207.85 94.9998 207.892 94.9862 207.929 94.9619C207.965 94.9375 207.994 94.9033 208.012 94.8633C208.03 94.8232 208.036 94.779 208.03 94.7355C208.024 94.6921 208.005 94.6513 207.977 94.6179C207.737 94.3466 207.435 94.1367 207.097 94.0058C206.759 93.8749 206.395 93.8268 206.034 93.8655C205.976 93.8756 205.923 93.9086 205.888 93.9573C205.854 94.006 205.84 94.0665 205.85 94.1254C205.86 94.1848 205.893 94.2379 205.941 94.2737C205.99 94.3094 206.05 94.3249 206.11 94.317C206.395 94.289 206.683 94.3296 206.95 94.4355C207.216 94.5414 207.454 94.7095 207.642 94.9257C207.663 94.9486 207.688 94.967 207.716 94.9799C207.745 94.9929 207.775 95 207.806 95.001Z" fill="#263238"/>
<path d="M216.548 103.749C215.864 107.272 215.44 112.149 217.916 114.495C217.916 114.495 216.958 118.065 210.392 118.065C203.203 118.065 206.938 114.932 206.938 114.932C209.927 114.002 209.899 110.603 209.215 107.867L216.548 103.749Z" fill="#FF8B7B"/>
<path d="M219.249 116.847C219.892 115.944 219.865 113.078 219.181 112.572C218.08 111.758 213.353 111.567 206.999 113.031C207.683 115.808 206.212 117.258 206.212 117.258L219.249 116.847Z" fill="#407BFF"/>
<path d="M240.631 279.236C240.436 279.305 240.229 279.334 240.022 279.322C239.816 279.311 239.614 279.258 239.427 279.168C239.357 279.102 239.308 279.016 239.289 278.922C239.269 278.827 239.279 278.729 239.318 278.641C239.339 278.567 239.377 278.499 239.428 278.441C239.479 278.383 239.541 278.337 239.612 278.306C240.262 277.991 241.753 278.6 241.821 278.627C241.842 278.636 241.859 278.65 241.871 278.668C241.884 278.686 241.89 278.708 241.89 278.73C241.89 278.752 241.884 278.773 241.873 278.793C241.862 278.812 241.847 278.828 241.828 278.839C241.442 279.009 241.042 279.142 240.631 279.236ZM239.845 278.463C239.8 278.474 239.756 278.49 239.715 278.511C239.672 278.527 239.634 278.552 239.603 278.585C239.572 278.619 239.549 278.659 239.537 278.703C239.475 278.908 239.537 278.976 239.578 278.997C239.838 279.216 240.795 278.997 241.473 278.744C240.957 278.53 240.401 278.435 239.845 278.463Z" fill="#407BFF"/>
<path d="M241.801 278.846H241.746C241.199 278.689 240.036 277.861 240.022 277.321C240.022 277.235 240.051 277.151 240.104 277.084C240.158 277.017 240.233 276.97 240.317 276.951C240.398 276.921 240.485 276.909 240.571 276.916C240.657 276.923 240.741 276.949 240.816 276.992C241.459 277.321 241.869 278.648 241.883 278.709C241.893 278.726 241.898 278.745 241.898 278.764C241.898 278.783 241.893 278.802 241.883 278.819C241.872 278.829 241.859 278.837 241.845 278.842C241.831 278.847 241.816 278.848 241.801 278.846ZM240.433 277.143H240.378C240.241 277.191 240.241 277.259 240.241 277.293C240.241 277.615 241.021 278.265 241.609 278.525C241.466 278.142 241.151 277.382 240.734 277.157C240.641 277.114 240.536 277.11 240.44 277.143H240.433Z" fill="#407BFF"/>
<path d="M205.104 280.043C204.489 280.043 203.894 279.954 203.695 279.68C203.643 279.607 203.615 279.52 203.615 279.431C203.615 279.341 203.643 279.254 203.695 279.181C203.734 279.114 203.787 279.056 203.849 279.01C203.911 278.964 203.982 278.932 204.058 278.914C204.858 278.695 206.541 279.653 206.609 279.694C206.63 279.704 206.647 279.721 206.657 279.743C206.667 279.764 206.669 279.788 206.664 279.81C206.661 279.834 206.651 279.856 206.635 279.873C206.619 279.89 206.598 279.902 206.575 279.906C206.09 279.995 205.597 280.041 205.104 280.043ZM204.345 279.106C204.272 279.094 204.199 279.094 204.126 279.106C204.08 279.115 204.036 279.134 203.997 279.161C203.958 279.188 203.925 279.223 203.9 279.263C203.818 279.407 203.852 279.475 203.9 279.516C204.126 279.831 205.337 279.838 206.233 279.708C205.648 279.388 205.007 279.184 204.345 279.106Z" fill="#407BFF"/>
<path d="M206.568 279.906H206.52C205.939 279.646 204.79 278.607 204.879 278.059C204.879 277.93 204.988 277.772 205.303 277.745C205.415 277.732 205.529 277.742 205.637 277.775C205.746 277.808 205.846 277.863 205.932 277.936C206.37 278.46 206.633 279.109 206.684 279.79C206.684 279.81 206.68 279.829 206.672 279.846C206.663 279.864 206.651 279.88 206.637 279.893C206.615 279.903 206.592 279.908 206.568 279.906ZM205.392 277.957H205.323C205.118 277.957 205.104 278.053 205.104 278.08C205.05 278.408 205.829 279.229 206.425 279.585C206.372 279.036 206.15 278.517 205.788 278.101C205.676 278.005 205.532 277.954 205.385 277.957H205.392Z" fill="#407BFF"/>
<path d="M211.849 279.797H207.04L206.561 268.654H211.37L211.849 279.797Z" fill="#FF8B7B"/>
<path d="M247.164 277.567L242.464 278.586L237.738 268.21L242.444 267.19L247.164 277.567Z" fill="#FF8B7B"/>
<path d="M242.006 278.114L247.294 276.972C247.386 276.952 247.482 276.965 247.567 277.007C247.651 277.049 247.719 277.119 247.759 277.205L249.592 281.185C249.641 281.282 249.666 281.388 249.666 281.496C249.665 281.604 249.639 281.711 249.59 281.807C249.541 281.903 249.469 281.986 249.381 282.049C249.294 282.112 249.192 282.154 249.086 282.17C247.239 282.533 246.315 282.622 243.997 283.121C242.567 283.436 239.339 284.222 237.362 284.646C235.385 285.071 234.708 283.176 235.481 282.827C238.935 281.247 240.371 279.858 241.309 278.566C241.478 278.335 241.726 278.174 242.006 278.114Z" fill="#263238"/>
<path d="M207.074 279.236H212.327C212.423 279.237 212.515 279.27 212.589 279.329C212.664 279.389 212.716 279.472 212.738 279.565L213.688 283.84C213.716 283.943 213.72 284.051 213.698 284.156C213.676 284.261 213.63 284.359 213.564 284.443C213.497 284.527 213.412 284.594 213.315 284.639C213.218 284.684 213.111 284.705 213.004 284.702C211.11 284.667 208.374 284.558 205.993 284.558C203.203 284.558 200.802 284.708 197.532 284.708C195.556 284.708 195.008 282.711 195.836 282.526C199.598 281.706 202.676 281.617 205.925 279.613C206.266 279.384 206.664 279.254 207.074 279.236Z" fill="#263238"/>
<path d="M226.52 115.596C231.028 116.629 234.728 128.14 234.728 128.14L225.72 135.028C223.382 132.528 221.732 129.465 220.932 126.136C219.338 120.103 221.91 114.529 226.52 115.596Z" fill="#407BFF"/>
<path opacity="0.4" d="M226.52 115.596C231.028 116.629 234.728 128.14 234.728 128.14L225.72 135.028C223.382 132.528 221.732 129.465 220.932 126.136C219.338 120.103 221.91 114.529 226.52 115.596Z" fill="black"/>
<path d="M202.806 129.324C201.684 130.534 200.563 131.615 199.386 132.744C198.805 133.291 198.216 133.838 197.615 134.365L196.705 135.165L196.479 135.363L196.089 135.678C195.688 135.999 195.244 136.261 194.769 136.458C194.241 136.682 193.674 136.798 193.1 136.8C192.61 136.802 192.124 136.716 191.664 136.547C191.154 136.352 190.688 136.057 190.296 135.678C189.795 135.188 189.427 134.578 189.229 133.906C189.125 133.575 189.058 133.233 189.03 132.887C188.994 132.482 188.994 132.075 189.03 131.67C189.064 131.341 189.106 131.054 189.16 130.787C189.347 129.855 189.613 128.94 189.954 128.051C190.261 127.207 190.615 126.381 191.014 125.575C191.452 124.707 191.869 124.071 192.286 123.346C193.981 120.569 195.915 117.946 198.066 115.507C200.195 113.082 202.542 110.856 205.077 108.858L207.594 111.451C205.829 113.817 204.092 116.355 202.485 118.852C200.885 121.334 199.423 123.903 198.107 126.547C197.813 127.19 197.423 127.915 197.238 128.434C196.994 129.038 196.781 129.655 196.602 130.281C196.43 130.845 196.299 131.422 196.212 132.005C196.208 132.096 196.208 132.187 196.212 132.279C196.212 132.333 196.212 132.361 196.212 132.217C196.201 132.063 196.171 131.912 196.123 131.766C195.975 131.281 195.704 130.842 195.337 130.493C195.01 130.193 194.626 129.96 194.208 129.809C193.841 129.67 193.452 129.598 193.059 129.597C192.681 129.593 192.307 129.665 191.958 129.809C191.84 129.858 191.725 129.915 191.616 129.98L191.876 129.741L192.703 128.989L194.338 127.456C195.419 126.437 196.506 125.35 197.532 124.337L202.806 129.324Z" fill="#FF8B7B"/>
<path opacity="0.2" d="M222.656 124.05C225.104 126.471 225.905 130.89 226.076 134.72L225.679 135.028C223.341 132.528 221.691 129.464 220.891 126.136C220.802 125.78 220.72 125.452 220.658 125.062L222.656 124.05Z" fill="black"/>
<path d="M198.025 120.384C197.04 125.582 196.424 136.26 199.277 157.395H225.036C225.214 153.448 222.731 134.173 226.541 115.562C223.694 115.015 220.816 114.652 217.922 114.474C214.277 114.265 210.623 114.265 206.978 114.474C205.775 114.584 204.584 114.761 203.558 114.946C202.194 115.185 200.934 115.834 199.946 116.805C198.958 117.776 198.288 119.024 198.025 120.384Z" fill="#407BFF"/>
<path opacity="0.4" d="M198.025 120.384C197.04 125.582 196.424 136.26 199.277 157.395H225.036C225.214 153.448 222.731 134.173 226.541 115.562C223.694 115.015 220.816 114.652 217.922 114.474C214.277 114.265 210.623 114.265 206.978 114.474C205.775 114.584 204.584 114.761 203.558 114.946C202.194 115.185 200.934 115.834 199.946 116.805C198.958 117.776 198.288 119.024 198.025 120.384Z" fill="black"/>
<path opacity="0.2" d="M201.965 128.092L197.313 126.978C197.17 129.796 197.156 133.284 197.361 137.6C199.502 135.165 202.238 131.362 201.965 128.092Z" fill="black"/>
<path opacity="0.2" d="M206.561 268.654L206.808 274.4H211.623L211.377 268.654H206.561Z" fill="black"/>
<path opacity="0.2" d="M242.444 267.19L237.738 268.21L240.173 273.558L244.879 272.539L242.444 267.19Z" fill="black"/>
<path d="M218.832 98.6058C217.601 103.216 217.108 105.979 214.263 107.895C209.988 110.808 204.653 107.47 204.516 102.6C204.366 98.2023 206.411 91.3965 211.356 90.4662C212.443 90.2623 213.564 90.3384 214.613 90.6875C215.662 91.0365 216.605 91.647 217.353 92.4613C218.101 93.2757 218.629 94.2671 218.888 95.3421C219.147 96.4171 219.128 97.5403 218.832 98.6058Z" fill="#FF8B7B"/>
<path d="M208.039 98.7763C207.806 98.1607 206.746 93.3932 207.745 92.1552C208.743 90.9172 220.132 91.8132 221.815 93.4685C224.612 96.2045 222.67 98.6669 219.612 101.834C217.314 104.214 217.225 106.895 216.062 107.306C214.01 107.99 210.877 107.347 210.248 105.179C209.619 103.01 208.039 98.7763 208.039 98.7763Z" fill="#263238"/>
<path d="M220.433 88.0444C216.411 86.3344 208.866 88.2291 204.79 87.2441C204.738 88.76 205.236 90.2434 206.193 91.4203C207.15 92.5971 208.5 93.3879 209.995 93.6464C213.377 94.2909 216.812 94.6092 220.255 94.5971C224.728 94.3919 223.853 89.5013 220.433 88.0444Z" fill="#263238"/>
<path d="M221.062 93.6118C222.531 93.7564 224.011 93.4737 225.323 92.7979C226.076 94.6173 221.938 95.1166 221.062 93.6118Z" fill="#263238"/>
<path d="M210.227 98.9676C210.135 100.154 209.654 101.277 208.859 102.162C207.806 103.318 206.712 102.593 206.527 101.191C206.363 99.9184 206.705 97.7706 207.991 97.155C209.277 96.5394 210.316 97.5381 210.227 98.9676Z" fill="#FF8B7B"/>
<path d="M208.408 157.416C208.408 157.416 213.88 194.181 216.869 207.957C220.145 223.039 237.752 272.937 237.752 272.937L246.363 271.069C246.363 271.069 234.051 230.399 231.315 209.311C229.195 193.114 225.029 157.402 225.029 157.402L208.408 157.416Z" fill="#407BFF"/>
<path d="M235.686 270.07C235.652 270.07 237.293 273.189 237.293 273.189L246.979 271.09L246.165 268.176L235.686 270.07Z" fill="#263238"/>
<path opacity="0.3" d="M211.862 170.515C218.175 171.753 217.505 195.296 216.746 207.41C214.926 198.846 212.259 182.375 210.439 170.686C210.88 170.468 211.382 170.408 211.862 170.515Z" fill="black"/>
<path d="M199.277 157.416C199.277 157.416 198.593 193.388 199.14 208.032C199.687 223.292 205.015 273.258 205.015 273.258H213.169C213.169 273.258 213.463 224.181 213.853 209.195C214.249 192.861 216.219 157.389 216.219 157.389L199.277 157.416Z" fill="#407BFF"/>
<path d="M203.449 270.043C203.408 270.043 203.907 273.422 203.907 273.422H213.818L214.092 270.405L203.449 270.043Z" fill="#263238"/>
<path d="M208.107 121.985C210.412 128.202 196.862 135.528 196.862 135.528L190.993 128.004C190.993 128.004 194.94 120.193 199.728 116.677C205.644 112.34 206.349 117.251 208.107 121.985Z" fill="#407BFF"/>
<path opacity="0.4" d="M208.107 121.985C210.412 128.202 196.862 135.528 196.862 135.528L190.993 128.004C190.993 128.004 194.94 120.193 199.728 116.677C205.644 112.34 206.349 117.251 208.107 121.985Z" fill="black"/>
<path d="M261.199 74.7814C274.832 74.7814 285.885 67.7379 285.885 59.0494C285.885 50.3608 274.832 43.3174 261.199 43.3174C247.566 43.3174 236.513 50.3608 236.513 59.0494C236.513 67.7379 247.566 74.7814 261.199 74.7814Z" fill="#407BFF"/>
<path d="M252.293 66.9698C250.667 66.9646 249.095 66.3864 247.853 65.3369C246.611 64.2873 245.778 62.8336 245.501 61.2311C245.229 59.4953 245.621 57.7206 246.598 56.2605C247.575 54.8003 249.067 53.7617 250.775 53.3514C252.177 53.0283 253.645 53.1529 254.972 53.7074C256.3 54.262 257.42 55.2187 258.176 56.4431L274.024 53.1735C274.633 53.0402 275.27 53.1414 275.808 53.4572C276.345 53.7729 276.744 54.2798 276.924 54.8767C277.007 55.1905 277.025 55.5179 276.977 55.839C276.93 56.16 276.817 56.4679 276.646 56.7438C276.475 57.0197 276.249 57.2579 275.983 57.4438C275.717 57.6296 275.416 57.7593 275.098 57.8247L274.688 57.9068C274.627 57.9178 274.569 57.9426 274.519 57.9793C274.469 58.0161 274.429 58.0639 274.4 58.1189C274.375 58.1747 274.362 58.2354 274.362 58.2967C274.362 58.358 274.375 58.4187 274.4 58.4745L274.681 59.1996C274.775 59.4346 274.784 59.695 274.706 59.936C274.629 60.177 274.47 60.3834 274.257 60.5197C274.089 60.6236 273.946 60.7645 273.841 60.9316C273.735 61.0987 273.669 61.2877 273.648 61.4841C273.628 61.7096 273.537 61.923 273.388 62.0937C273.24 62.2645 273.041 62.3839 272.82 62.4349L272.499 62.5033C272.276 62.5445 272.046 62.5137 271.842 62.4153C271.638 62.3169 271.47 62.1561 271.363 61.9561C271.221 61.7175 271.009 61.5292 270.754 61.4174C270.5 61.3056 270.218 61.2758 269.946 61.3323C269.674 61.3888 269.427 61.5286 269.238 61.7324C269.05 61.9362 268.929 62.1937 268.894 62.4691C268.875 62.6932 268.785 62.9053 268.638 63.075C268.49 63.2447 268.293 63.3631 268.073 63.413L267.752 63.4814C267.529 63.5215 267.299 63.4902 267.095 63.3919C266.891 63.2937 266.724 63.1335 266.616 62.9342C266.514 62.7646 266.376 62.6192 266.212 62.5082C266.048 62.3972 265.861 62.3232 265.666 62.2913C265.403 62.2596 265.16 62.133 264.984 61.9353C264.808 61.7376 264.709 61.4823 264.708 61.2174V60.4376C264.705 60.3766 264.689 60.3169 264.661 60.2627C264.633 60.2084 264.594 60.1608 264.546 60.1231C264.498 60.0854 264.442 60.0586 264.383 60.0444C264.324 60.0302 264.262 60.029 264.202 60.0409L259.147 61.0806C258.941 62.481 258.308 63.7838 257.335 64.8119C256.362 65.84 255.096 66.5433 253.709 66.8262C253.243 66.9215 252.769 66.9696 252.293 66.9698ZM250.925 53.9738C249.374 54.3362 248.018 55.273 247.129 56.5954C246.241 57.9179 245.886 59.5278 246.137 61.1011C246.406 62.5648 247.19 63.8838 248.347 64.8197C249.505 65.7556 250.958 66.2464 252.446 66.2034C253.934 66.1604 255.357 65.5865 256.458 64.5854C257.559 63.5843 258.265 62.2222 258.449 60.7454V60.4992L264.024 59.3706C264.184 59.3319 264.35 59.3293 264.512 59.363C264.673 59.3967 264.824 59.4658 264.955 59.5654C265.086 59.6649 265.193 59.7924 265.269 59.9386C265.344 60.0847 265.387 60.2458 265.392 60.4103V61.19C265.394 61.2829 265.427 61.3723 265.487 61.4434C265.547 61.5144 265.629 61.5626 265.72 61.5799C266.019 61.6227 266.305 61.7331 266.555 61.9025C266.805 62.072 267.013 62.2962 267.164 62.558C267.2 62.6318 267.258 62.6926 267.331 62.7318C267.403 62.771 267.486 62.7868 267.567 62.7769L267.882 62.7085C267.962 62.688 268.033 62.6423 268.084 62.5782C268.136 62.5142 268.166 62.4351 268.169 62.3528C268.212 61.927 268.39 61.526 268.676 61.2076C268.962 60.8892 269.341 60.67 269.76 60.5817C270.179 60.4934 270.615 60.5405 271.005 60.7163C271.395 60.892 271.72 61.1873 271.931 61.5594C271.966 61.6327 272.023 61.6931 272.094 61.7324C272.166 61.7716 272.247 61.7877 272.328 61.7783L272.656 61.7099C272.735 61.6881 272.804 61.6419 272.855 61.5779C272.905 61.514 272.934 61.4356 272.937 61.3542C272.97 61.0539 273.072 60.7653 273.235 60.5104C273.397 60.2555 273.616 60.0411 273.874 59.8836C273.949 59.8292 274.004 59.7512 274.03 59.662C274.056 59.5728 274.052 59.4775 274.017 59.3911L273.737 58.6661C273.679 58.5166 273.654 58.3563 273.665 58.1963C273.675 58.0363 273.72 57.8805 273.797 57.7398C273.874 57.5991 273.981 57.4769 274.11 57.3817C274.239 57.2865 274.387 57.2206 274.544 57.1886L274.961 57.0997C275.187 57.0516 275.401 56.9584 275.59 56.8257C275.779 56.693 275.939 56.5236 276.061 56.3276C276.183 56.1315 276.264 55.9129 276.3 55.6848C276.335 55.4566 276.324 55.2237 276.268 54.9998C276.134 54.5694 275.843 54.2053 275.452 53.9808C275.061 53.7562 274.6 53.6878 274.161 53.7891L257.868 57.1749L257.745 56.9629C257.09 55.7976 256.074 54.8769 254.85 54.3402C253.626 53.8034 252.26 53.6796 250.96 53.9875L250.925 53.9738ZM252.293 64.4254C251.444 64.4348 250.61 64.1972 249.893 63.7414C249.044 63.1845 248.416 62.3507 248.113 61.3821C247.811 60.4135 247.854 59.3701 248.235 58.4297C248.616 57.4893 249.312 56.7102 250.203 56.2252C251.094 55.7401 252.126 55.5792 253.123 55.7698C254.119 55.9604 255.019 56.4908 255.668 57.2705C256.317 58.0502 256.676 59.0309 256.683 60.0455C256.69 61.0602 256.345 62.0458 255.707 62.8345C255.069 63.6232 254.176 64.1661 253.183 64.3706C252.892 64.4233 252.596 64.4462 252.3 64.439L252.293 64.4254ZM252.293 56.3473C252.039 56.3488 251.784 56.3739 251.534 56.4225C251.058 56.524 250.606 56.7184 250.204 56.9945C249.803 57.2707 249.46 57.6232 249.195 58.0319C248.93 58.4406 248.748 58.8976 248.659 59.3766C248.57 59.8557 248.577 60.3476 248.679 60.8241C248.78 61.3006 248.974 61.7525 249.251 62.1539C249.527 62.5553 249.879 62.8984 250.288 63.1635C250.697 63.4287 251.154 63.6108 251.633 63.6994C252.112 63.7879 252.604 63.7813 253.08 63.6798C253.795 63.5309 254.451 63.1735 254.963 62.6527C255.476 62.132 255.823 61.4711 255.96 60.7535C256.098 60.0359 256.02 59.2936 255.736 58.6202C255.452 57.9469 254.976 57.3726 254.366 56.9697C253.76 56.567 253.048 56.355 252.321 56.361L252.293 56.3473Z" fill="white"/>
<path opacity="0.6" d="M241.11 84.0081C245.59 84.0081 249.222 81.6929 249.222 78.8371C249.222 75.9812 245.59 73.666 241.11 73.666C236.63 73.666 232.998 75.9812 232.998 78.8371C232.998 81.6929 236.63 84.0081 241.11 84.0081Z" fill="#407BFF"/>
<path opacity="0.3" d="M228.203 86.1285C230.043 86.1285 231.534 85.1792 231.534 84.0081C231.534 82.837 230.043 81.8877 228.203 81.8877C226.363 81.8877 224.872 82.837 224.872 84.0081C224.872 85.1792 226.363 86.1285 228.203 86.1285Z" fill="#407BFF"/>
</svg>
