<svg width="20" height="20" viewBox="0 0 20 20" fill="none" xmlns="http://www.w3.org/2000/svg">
<g clip-path="url(#clip0_2785_469)">
<path d="M12.3817 17.381C12.3817 17.6438 12.1684 17.8571 11.9055 17.8571H8.09598C7.83313 17.8571 7.61979 17.6438 7.61979 17.381C7.61979 17.1181 7.83313 16.9047 8.09598 16.9047H11.9055C12.1684 16.9048 12.3817 17.1181 12.3817 17.381ZM11.9055 18.0952H8.09598C7.78264 18.0952 7.54003 18.3979 7.64434 18.7267C7.70719 18.925 7.90789 19.0476 8.11601 19.0476H8.12315C8.39815 19.0476 8.64959 19.2031 8.77266 19.4491L8.77767 19.4591C8.94364 19.7905 9.28243 20 9.65316 20H10.3484C10.7191 20 11.0579 19.7905 11.2236 19.4591L11.2286 19.4491C11.3518 19.2031 11.6032 19.0476 11.8782 19.0476H11.8853C12.0934 19.0476 12.2941 18.925 12.357 18.7267C12.4615 18.3979 12.2188 18.0952 11.9055 18.0952ZM10.0008 2.85714C10.2636 2.85714 10.477 2.6438 10.477 2.38095V0.47619C10.477 0.21334 10.2636 0 10.0008 0C9.73789 0 9.52455 0.21334 9.52455 0.47619V2.38095C9.52455 2.6438 9.73789 2.85714 10.0008 2.85714ZM4.95004 4.67024C5.0429 4.76334 5.16482 4.80977 5.2867 4.80977C5.40862 4.80977 5.53051 4.76334 5.62336 4.67024C5.80932 4.48428 5.80932 4.18284 5.62336 3.99692L4.27648 2.65C4.09076 2.46404 3.78884 2.46404 3.60316 2.65C3.4172 2.83596 3.4172 3.13736 3.60316 3.32332L4.95004 4.67024ZM3.81027 9.04762C3.81027 8.78477 3.59693 8.57143 3.33408 8.57143H1.42932C1.16647 8.57143 0.953125 8.78477 0.953125 9.04762C0.953125 9.31047 1.16647 9.52381 1.42932 9.52381H3.33408C3.59696 9.52381 3.81027 9.31047 3.81027 9.04762ZM4.95004 13.425L3.60316 14.7719C3.4172 14.9579 3.4172 15.2593 3.60316 15.4452C3.69602 15.5383 3.8179 15.5847 3.93982 15.5847C4.0617 15.5847 4.18362 15.5383 4.27648 15.4452L5.62336 14.0983C5.80932 13.9124 5.80932 13.611 5.62336 13.425C5.43765 13.239 5.13576 13.239 4.95004 13.425ZM15.0515 13.425C14.8655 13.239 14.5641 13.239 14.3782 13.425C14.1922 13.611 14.1922 13.9124 14.3782 14.0983L15.7251 15.4452C15.8181 15.5383 15.9399 15.5847 16.0617 15.5847C16.1836 15.5847 16.3053 15.5383 16.3984 15.4452C16.5844 15.2593 16.5844 14.9578 16.3984 14.7719L15.0515 13.425ZM18.5722 8.57143H16.6674C16.4046 8.57143 16.1912 8.78477 16.1912 9.04762C16.1912 9.31047 16.4046 9.52381 16.6674 9.52381H18.5722C18.835 9.52381 19.0484 9.31047 19.0484 9.04762C19.0484 8.78477 18.835 8.57143 18.5722 8.57143ZM14.7148 4.80977C14.8367 4.80977 14.9583 4.76334 15.0514 4.67024L16.3984 3.32332C16.5843 3.13736 16.5843 2.83596 16.3984 2.65C16.2124 2.46404 15.911 2.46404 15.725 2.65L14.3781 3.99692C14.1922 4.18288 14.1922 4.48428 14.3781 4.67024C14.471 4.76334 14.5929 4.80977 14.7148 4.80977ZM12.3817 16.1905C12.3817 16.4533 12.1684 16.6667 11.9055 16.6667H8.09598C7.83313 16.6667 7.61979 16.4533 7.61979 16.1905C7.61979 15.9369 7.8186 15.7314 8.0686 15.7171C7.77217 13.0376 5.00074 12.4407 5.00074 9.28571C5.00074 6.5243 7.23933 4.28571 10.0007 4.28571C12.7622 4.28571 15.0007 6.5243 15.0007 9.28571C15.0007 12.4407 12.2293 13.0376 11.9329 15.7172C12.1829 15.7314 12.3817 15.9369 12.3817 16.1905ZM8.90337 5.62143C8.82932 5.4388 8.62147 5.35095 8.43814 5.42451C7.22123 5.91761 6.29864 6.97164 5.97028 8.24401C5.92098 8.43519 6.036 8.62973 6.22697 8.67903C6.25673 8.68687 6.28674 8.69044 6.31626 8.69044C6.47529 8.69044 6.62032 8.58354 6.66198 8.42258C6.9339 7.36831 7.69819 6.49496 8.70628 6.08662C8.88908 6.01264 8.97718 5.80452 8.90337 5.62143Z" fill="#9D42FF"/>
</g>
<defs>
<clipPath id="clip0_2785_469">
<rect width="20" height="20" fill="white"/>
</clipPath>
</defs>
</svg>
