<svg width="320" height="110" viewBox="0 0 320 110" fill="none" xmlns="http://www.w3.org/2000/svg">
<g filter="url(#filter0_d_546_647)">
<path d="M16 30C16 24.4772 20.4772 20 26 20H262.087C264.865 20 267.517 21.1553 269.409 23.189L292.664 48.189C296.235 52.0277 296.235 57.9723 292.664 61.811L269.409 86.811C267.517 88.8447 264.865 90 262.087 90H26C20.4772 90 16 85.5229 16 80V30Z" fill="white"/>
<path d="M16.5 30C16.5 24.7533 20.7533 20.5 26 20.5H262.087C264.726 20.5 267.246 21.5975 269.043 23.5296L292.298 48.5296C295.69 52.1763 295.69 57.8237 292.298 61.4704L269.043 86.4704C267.246 88.4025 264.726 89.5 262.087 89.5H26C20.7533 89.5 16.5 85.2467 16.5 80V30Z" stroke="#0A62F1"/>
</g>
<path d="M104.836 63V48.9961H108.82C110.031 48.9961 110.992 49.2923 111.701 49.8848C112.411 50.4772 112.766 51.2487 112.766 52.1992C112.766 52.9935 112.551 53.6836 112.121 54.2695C111.691 54.8555 111.099 55.2721 110.344 55.5195V55.5586C111.288 55.6693 112.043 56.0273 112.609 56.6328C113.176 57.2318 113.459 58.013 113.459 58.9766C113.459 60.1745 113.029 61.1445 112.17 61.8867C111.311 62.6289 110.227 63 108.918 63H104.836ZM106.477 50.4805V55.002H108.156C109.055 55.002 109.761 54.7871 110.275 54.3574C110.79 53.9212 111.047 53.3092 111.047 52.5215C111.047 51.1608 110.152 50.4805 108.361 50.4805H106.477ZM106.477 56.4766V61.5156H108.703C109.667 61.5156 110.412 61.2878 110.939 60.832C111.473 60.3763 111.74 59.7513 111.74 58.957C111.74 57.3034 110.614 56.4766 108.361 56.4766H106.477ZM123.244 63H121.643V61.4375H121.604C120.907 62.6354 119.882 63.2344 118.527 63.2344C117.531 63.2344 116.75 62.9707 116.184 62.4434C115.624 61.916 115.344 61.2161 115.344 60.3438C115.344 58.4753 116.444 57.388 118.645 57.082L121.643 56.6621C121.643 54.9629 120.956 54.1133 119.582 54.1133C118.378 54.1133 117.29 54.5234 116.32 55.3438V53.7031C117.303 53.0781 118.436 52.7656 119.719 52.7656C122.069 52.7656 123.244 54.0091 123.244 56.4961V63ZM121.643 57.9414L119.23 58.2734C118.488 58.3776 117.928 58.5632 117.551 58.8301C117.173 59.0905 116.984 59.556 116.984 60.2266C116.984 60.7148 117.157 61.1152 117.502 61.4277C117.854 61.7337 118.319 61.8867 118.898 61.8867C119.693 61.8867 120.347 61.61 120.861 61.0566C121.382 60.4967 121.643 59.7904 121.643 58.9375V57.9414ZM134.562 63H132.961V57.2969C132.961 55.1745 132.186 54.1133 130.637 54.1133C129.836 54.1133 129.172 54.416 128.645 55.0215C128.124 55.6204 127.863 56.3789 127.863 57.2969V63H126.262V53H127.863V54.6602H127.902C128.658 53.3971 129.751 52.7656 131.184 52.7656C132.277 52.7656 133.114 53.1204 133.693 53.8301C134.273 54.5332 134.562 55.5521 134.562 56.8867V63ZM145.891 63H143.645L139.23 58.1953H139.191V63H137.59V48.1953H139.191V57.5801H139.23L143.43 53H145.529L140.891 57.8242L145.891 63ZM153.234 63V48.9961H157.102C162.036 48.9961 164.504 51.2715 164.504 55.8223C164.504 57.9837 163.817 59.722 162.443 61.0371C161.076 62.3457 159.243 63 156.945 63H153.234ZM154.875 50.4805V61.5156H156.965C158.801 61.5156 160.23 61.0241 161.252 60.041C162.274 59.0579 162.785 57.6647 162.785 55.8613C162.785 52.2741 160.878 50.4805 157.062 50.4805H154.875ZM175.08 58.4004H168.02C168.046 59.5137 168.345 60.373 168.918 60.9785C169.491 61.584 170.279 61.8867 171.281 61.8867C172.408 61.8867 173.443 61.5156 174.387 60.7734V62.2773C173.508 62.9154 172.346 63.2344 170.9 63.2344C169.488 63.2344 168.378 62.7819 167.57 61.877C166.763 60.9655 166.359 59.6862 166.359 58.0391C166.359 56.4831 166.799 55.2168 167.678 54.2402C168.563 53.2572 169.66 52.7656 170.969 52.7656C172.277 52.7656 173.29 53.1888 174.006 54.0352C174.722 54.8815 175.08 56.0566 175.08 57.5605V58.4004ZM173.439 57.043C173.433 56.1185 173.208 55.3991 172.766 54.8848C172.329 54.3704 171.721 54.1133 170.939 54.1133C170.184 54.1133 169.543 54.3835 169.016 54.9238C168.488 55.4642 168.163 56.1706 168.039 57.043H173.439ZM182.15 62.9023C181.773 63.1107 181.275 63.2148 180.656 63.2148C178.905 63.2148 178.029 62.2383 178.029 60.2852V54.3672H176.311V53H178.029V50.5586L179.631 50.041V53H182.15V54.3672H179.631V60.002C179.631 60.6725 179.745 61.151 179.973 61.4375C180.201 61.724 180.578 61.8672 181.105 61.8672C181.509 61.8672 181.857 61.7565 182.15 61.5352V62.9023ZM191.447 63H189.846V61.4375H189.807C189.11 62.6354 188.085 63.2344 186.73 63.2344C185.734 63.2344 184.953 62.9707 184.387 62.4434C183.827 61.916 183.547 61.2161 183.547 60.3438C183.547 58.4753 184.647 57.388 186.848 57.082L189.846 56.6621C189.846 54.9629 189.159 54.1133 187.785 54.1133C186.581 54.1133 185.493 54.5234 184.523 55.3438V53.7031C185.507 53.0781 186.639 52.7656 187.922 52.7656C190.272 52.7656 191.447 54.0091 191.447 56.4961V63ZM189.846 57.9414L187.434 58.2734C186.691 58.3776 186.132 58.5632 185.754 58.8301C185.376 59.0905 185.188 59.556 185.188 60.2266C185.188 60.7148 185.36 61.1152 185.705 61.4277C186.057 61.7337 186.522 61.8867 187.102 61.8867C187.896 61.8867 188.55 61.61 189.064 61.0566C189.585 60.4967 189.846 59.7904 189.846 58.9375V57.9414ZM195.285 50.4609C194.999 50.4609 194.755 50.3633 194.553 50.168C194.351 49.9727 194.25 49.7253 194.25 49.4258C194.25 49.1263 194.351 48.8789 194.553 48.6836C194.755 48.4818 194.999 48.3809 195.285 48.3809C195.578 48.3809 195.826 48.4818 196.027 48.6836C196.236 48.8789 196.34 49.1263 196.34 49.4258C196.34 49.7122 196.236 49.9564 196.027 50.1582C195.826 50.36 195.578 50.4609 195.285 50.4609ZM196.066 63H194.465V53H196.066V63ZM200.91 63H199.309V48.1953H200.91V63ZM203.547 62.6387V60.9199C204.419 61.5645 205.38 61.8867 206.428 61.8867C207.834 61.8867 208.537 61.418 208.537 60.4805C208.537 60.2135 208.475 59.9889 208.352 59.8066C208.234 59.6178 208.072 59.4518 207.863 59.3086C207.661 59.1654 207.421 59.0384 207.141 58.9277C206.867 58.8105 206.571 58.6901 206.252 58.5664C205.809 58.3906 205.419 58.2148 205.08 58.0391C204.748 57.8568 204.468 57.6549 204.24 57.4336C204.019 57.2057 203.85 56.9486 203.732 56.6621C203.622 56.3757 203.566 56.0404 203.566 55.6562C203.566 55.1875 203.674 54.7741 203.889 54.416C204.104 54.0514 204.39 53.7487 204.748 53.5078C205.106 53.2604 205.513 53.0749 205.969 52.9512C206.431 52.8275 206.906 52.7656 207.395 52.7656C208.26 52.7656 209.035 52.9154 209.719 53.2148V54.8359C208.983 54.3542 208.137 54.1133 207.18 54.1133C206.88 54.1133 206.61 54.1491 206.369 54.2207C206.128 54.2858 205.92 54.3802 205.744 54.5039C205.575 54.6276 205.441 54.7773 205.344 54.9531C205.253 55.1224 205.207 55.3112 205.207 55.5195C205.207 55.7799 205.253 55.998 205.344 56.1738C205.441 56.3496 205.581 56.5059 205.764 56.6426C205.946 56.7793 206.167 56.903 206.428 57.0137C206.688 57.1243 206.984 57.2448 207.316 57.375C207.759 57.5443 208.156 57.7201 208.508 57.9023C208.859 58.0781 209.159 58.2799 209.406 58.5078C209.654 58.7292 209.842 58.9863 209.973 59.2793C210.109 59.5723 210.178 59.9206 210.178 60.3242C210.178 60.819 210.067 61.2487 209.846 61.6133C209.631 61.9779 209.341 62.2806 208.977 62.5215C208.612 62.7624 208.192 62.9414 207.717 63.0586C207.242 63.1758 206.743 63.2344 206.223 63.2344C205.194 63.2344 204.302 63.0358 203.547 62.6387Z" fill="#0A62F1"/>
<defs>
<filter id="filter0_d_546_647" x="0" y="0" width="319.343" height="110" filterUnits="userSpaceOnUse" color-interpolation-filters="sRGB">
<feFlood flood-opacity="0" result="BackgroundImageFix"/>
<feColorMatrix in="SourceAlpha" type="matrix" values="0 0 0 0 0 0 0 0 0 0 0 0 0 0 0 0 0 0 127 0" result="hardAlpha"/>
<feOffset dx="4"/>
<feGaussianBlur stdDeviation="10"/>
<feComposite in2="hardAlpha" operator="out"/>
<feColorMatrix type="matrix" values="0 0 0 0 0 0 0 0 0 0 0 0 0 0 0 0 0 0 0.15 0"/>
<feBlend mode="normal" in2="BackgroundImageFix" result="effect1_dropShadow_546_647"/>
<feBlend mode="normal" in="SourceGraphic" in2="effect1_dropShadow_546_647" result="shape"/>
</filter>
</defs>
</svg>
