<svg width="320" height="110" viewBox="0 0 320 110" fill="none" xmlns="http://www.w3.org/2000/svg">
<g filter="url(#filter0_d_546_652)">
<path d="M16 30C16 24.4772 20.4772 20 26 20H262.087C264.865 20 267.517 21.1553 269.409 23.189L292.664 48.189C296.235 52.0277 296.235 57.9723 292.664 61.811L269.409 86.811C267.517 88.8447 264.865 90 262.087 90H26C20.4772 90 16 85.5229 16 80V30Z" fill="#0A62F1"/>
<path d="M16.5 30C16.5 24.7533 20.7533 20.5 26 20.5H262.087C264.726 20.5 267.246 21.5975 269.043 23.5296L292.298 48.5296C295.69 52.1763 295.69 57.8237 292.298 61.4704L269.043 86.4704C267.246 88.4025 264.726 89.5 262.087 89.5H26C20.7533 89.5 16.5 85.2467 16.5 80V30Z" stroke="#0A62F1"/>
</g>
<path d="M108.602 63V48.9961H113.562C118.536 48.9961 121.023 51.2715 121.023 55.8223C121.023 58.0033 120.343 59.7448 118.982 61.0469C117.628 62.349 115.822 63 113.562 63H108.602ZM111.756 51.5645V60.4414H113.318C114.686 60.4414 115.757 60.0312 116.531 59.2109C117.312 58.3906 117.703 57.2741 117.703 55.8613C117.703 54.5267 117.316 53.4785 116.541 52.7168C115.773 51.9486 114.692 51.5645 113.299 51.5645H111.756ZM127.811 63.2441C126.144 63.2441 124.832 62.7786 123.875 61.8477C122.924 60.9102 122.449 59.6406 122.449 58.0391C122.449 56.3854 122.944 55.0931 123.934 54.1621C124.923 53.2246 126.261 52.7559 127.947 52.7559C129.607 52.7559 130.91 53.2246 131.854 54.1621C132.798 55.0931 133.27 56.3268 133.27 57.8633C133.27 59.5234 132.781 60.8353 131.805 61.7988C130.835 62.7624 129.503 63.2441 127.811 63.2441ZM127.889 55.1191C127.16 55.1191 126.593 55.3698 126.189 55.8711C125.786 56.3724 125.584 57.082 125.584 58C125.584 59.9206 126.359 60.8809 127.908 60.8809C129.386 60.8809 130.125 59.8945 130.125 57.9219C130.125 56.0534 129.38 55.1191 127.889 55.1191ZM142.85 62.6387C142.153 63.0423 141.147 63.2441 139.832 63.2441C138.296 63.2441 137.052 62.7786 136.102 61.8477C135.151 60.9167 134.676 59.7155 134.676 58.2441C134.676 56.5449 135.184 55.207 136.199 54.2305C137.221 53.2474 138.585 52.7559 140.291 52.7559C141.469 52.7559 142.322 52.9121 142.85 53.2246V55.8418C142.205 55.36 141.486 55.1191 140.691 55.1191C139.806 55.1191 139.103 55.3796 138.582 55.9004C138.068 56.4147 137.811 57.1276 137.811 58.0391C137.811 58.9245 138.058 59.6211 138.553 60.1289C139.048 60.6302 139.728 60.8809 140.594 60.8809C141.362 60.8809 142.114 60.64 142.85 60.1582V62.6387ZM154.383 63H151.307V61.4766H151.258C150.496 62.6549 149.477 63.2441 148.201 63.2441C145.883 63.2441 144.725 61.8411 144.725 59.0352V53H147.801V58.7617C147.801 60.1745 148.361 60.8809 149.48 60.8809C150.034 60.8809 150.477 60.6888 150.809 60.3047C151.141 59.9141 151.307 59.3867 151.307 58.7227V53H154.383V63ZM172.869 63H169.793V57.2969C169.793 55.8451 169.259 55.1191 168.191 55.1191C167.684 55.1191 167.27 55.3372 166.951 55.7734C166.632 56.2096 166.473 56.7533 166.473 57.4043V63H163.387V57.2383C163.387 55.8255 162.863 55.1191 161.814 55.1191C161.287 55.1191 160.864 55.3275 160.545 55.7441C160.232 56.1608 160.076 56.7272 160.076 57.4434V63H156.99V53H160.076V54.5625H160.115C160.434 54.0286 160.88 53.5957 161.453 53.2637C162.033 52.9251 162.664 52.7559 163.348 52.7559C164.76 52.7559 165.727 53.3776 166.248 54.6211C167.01 53.3776 168.13 52.7559 169.607 52.7559C171.782 52.7559 172.869 54.097 172.869 56.7793V63ZM184.295 58.8789H177.771C177.876 60.3307 178.79 61.0566 180.516 61.0566C181.616 61.0566 182.583 60.7962 183.416 60.2754V62.502C182.492 62.9967 181.29 63.2441 179.812 63.2441C178.198 63.2441 176.945 62.7982 176.053 61.9062C175.161 61.0078 174.715 59.7578 174.715 58.1562C174.715 56.4961 175.197 55.181 176.16 54.2109C177.124 53.2409 178.309 52.7559 179.715 52.7559C181.173 52.7559 182.299 53.1888 183.094 54.0547C183.895 54.9206 184.295 56.0957 184.295 57.5801V58.8789ZM181.434 56.9844C181.434 55.5521 180.854 54.8359 179.695 54.8359C179.201 54.8359 178.771 55.041 178.406 55.4512C178.048 55.8613 177.83 56.3724 177.752 56.9844H181.434ZM195.789 63H192.713V57.4434C192.713 55.8939 192.16 55.1191 191.053 55.1191C190.519 55.1191 190.079 55.3242 189.734 55.7344C189.389 56.1445 189.217 56.6654 189.217 57.2969V63H186.131V53H189.217V54.582H189.256C189.992 53.3646 191.062 52.7559 192.469 52.7559C194.682 52.7559 195.789 54.1296 195.789 56.877V63ZM204.285 62.8828C203.829 63.1237 203.143 63.2441 202.225 63.2441C200.05 63.2441 198.963 62.1146 198.963 59.8555V55.2754H197.342V53H198.963V50.8418L202.039 49.9629V53H204.285V55.2754H202.039V59.3184C202.039 60.36 202.452 60.8809 203.279 60.8809C203.605 60.8809 203.94 60.7865 204.285 60.5977V62.8828ZM205.379 62.7363V60.2363C205.887 60.5423 206.391 60.7702 206.893 60.9199C207.4 61.0697 207.879 61.1445 208.328 61.1445C208.875 61.1445 209.305 61.0697 209.617 60.9199C209.936 60.7702 210.096 60.5423 210.096 60.2363C210.096 60.041 210.024 59.8783 209.881 59.748C209.738 59.6178 209.552 59.5039 209.324 59.4062C209.103 59.3086 208.859 59.2207 208.592 59.1426C208.325 59.0645 208.068 58.9766 207.82 58.8789C207.423 58.7292 207.072 58.5697 206.766 58.4004C206.466 58.2246 206.212 58.0228 206.004 57.7949C205.802 57.5671 205.646 57.3034 205.535 57.0039C205.431 56.7044 205.379 56.3496 205.379 55.9395C205.379 55.3796 205.499 54.8978 205.74 54.4941C205.988 54.0905 206.313 53.7617 206.717 53.5078C207.127 53.2474 207.592 53.0586 208.113 52.9414C208.641 52.8177 209.188 52.7559 209.754 52.7559C210.197 52.7559 210.646 52.7917 211.102 52.8633C211.557 52.9284 212.007 53.026 212.449 53.1562V55.5391C212.059 55.3112 211.639 55.1419 211.189 55.0312C210.747 54.9141 210.311 54.8555 209.881 54.8555C209.679 54.8555 209.487 54.875 209.305 54.9141C209.129 54.9466 208.973 54.9987 208.836 55.0703C208.699 55.1354 208.592 55.2233 208.514 55.334C208.436 55.4382 208.396 55.5586 208.396 55.6953C208.396 55.8776 208.455 56.0339 208.572 56.1641C208.689 56.2943 208.842 56.4082 209.031 56.5059C209.22 56.597 209.428 56.6816 209.656 56.7598C209.891 56.8314 210.122 56.9062 210.35 56.9844C210.76 57.1276 211.131 57.2839 211.463 57.4531C211.795 57.6224 212.078 57.821 212.312 58.0488C212.553 58.2767 212.736 58.5436 212.859 58.8496C212.99 59.1556 213.055 59.5202 213.055 59.9434C213.055 60.5358 212.924 61.0436 212.664 61.4668C212.41 61.8835 212.068 62.2253 211.639 62.4922C211.215 62.7526 210.724 62.9414 210.164 63.0586C209.611 63.1823 209.035 63.2441 208.436 63.2441C207.335 63.2441 206.316 63.0749 205.379 62.7363Z" fill="white"/>
<defs>
<filter id="filter0_d_546_652" x="0" y="0" width="319.342" height="110" filterUnits="userSpaceOnUse" color-interpolation-filters="sRGB">
<feFlood flood-opacity="0" result="BackgroundImageFix"/>
<feColorMatrix in="SourceAlpha" type="matrix" values="0 0 0 0 0 0 0 0 0 0 0 0 0 0 0 0 0 0 127 0" result="hardAlpha"/>
<feOffset dx="4"/>
<feGaussianBlur stdDeviation="10"/>
<feComposite in2="hardAlpha" operator="out"/>
<feColorMatrix type="matrix" values="0 0 0 0 0 0 0 0 0 0 0 0 0 0 0 0 0 0 0.15 0"/>
<feBlend mode="normal" in2="BackgroundImageFix" result="effect1_dropShadow_546_652"/>
<feBlend mode="normal" in="SourceGraphic" in2="effect1_dropShadow_546_652" result="shape"/>
</filter>
</defs>
</svg>
