<svg width="320" height="110" viewBox="0 0 320 110" fill="none" xmlns="http://www.w3.org/2000/svg">
<g filter="url(#filter0_d_546_649)">
<path d="M16 30C16 24.4772 20.4772 20 26 20H262.087C264.865 20 267.517 21.1553 269.409 23.189L292.664 48.189C296.235 52.0277 296.235 57.9723 292.664 61.811L269.409 86.811C267.517 88.8447 264.865 90 262.087 90H26C20.4772 90 16 85.5229 16 80V30Z" fill="#0A62F1"/>
</g>
<path d="M91 63H82.6016V48.9961H90.6777V51.5645H85.7559V54.6797H90.3359V57.2383H85.7559V60.4414H91V63ZM108.822 63H105.746V57.2969C105.746 55.8451 105.212 55.1191 104.145 55.1191C103.637 55.1191 103.223 55.3372 102.904 55.7734C102.585 56.2096 102.426 56.7533 102.426 57.4043V63H99.3398V57.2383C99.3398 55.8255 98.8158 55.1191 97.7676 55.1191C97.2402 55.1191 96.8171 55.3275 96.498 55.7441C96.1855 56.1608 96.0293 56.7272 96.0293 57.4434V63H92.9434V53H96.0293V54.5625H96.0684C96.3874 54.0286 96.8333 53.5957 97.4062 53.2637C97.9857 52.9251 98.6172 52.7559 99.3008 52.7559C100.714 52.7559 101.68 53.3776 102.201 54.6211C102.963 53.3776 104.083 52.7559 105.561 52.7559C107.735 52.7559 108.822 54.097 108.822 56.7793V63ZM114.389 61.8379H114.35V67.5996H111.264V53H114.35V54.5039H114.389C115.15 53.3385 116.221 52.7559 117.602 52.7559C118.897 52.7559 119.896 53.2018 120.6 54.0938C121.309 54.9792 121.664 56.1868 121.664 57.7168C121.664 59.3835 121.251 60.7214 120.424 61.7305C119.604 62.7396 118.51 63.2441 117.143 63.2441C115.938 63.2441 115.02 62.7754 114.389 61.8379ZM114.301 57.7363V58.5371C114.301 59.2272 114.483 59.7904 114.848 60.2266C115.212 60.6628 115.691 60.8809 116.283 60.8809C116.986 60.8809 117.53 60.6107 117.914 60.0703C118.305 59.5234 118.5 58.752 118.5 57.7559C118.5 55.998 117.816 55.1191 116.449 55.1191C115.818 55.1191 115.3 55.36 114.896 55.8418C114.499 56.3171 114.301 56.9486 114.301 57.7363ZM126.752 63H123.666V48.1953H126.752V63ZM134.115 63.2441C132.449 63.2441 131.137 62.7786 130.18 61.8477C129.229 60.9102 128.754 59.6406 128.754 58.0391C128.754 56.3854 129.249 55.0931 130.238 54.1621C131.228 53.2246 132.566 52.7559 134.252 52.7559C135.912 52.7559 137.214 53.2246 138.158 54.1621C139.102 55.0931 139.574 56.3268 139.574 57.8633C139.574 59.5234 139.086 60.8353 138.109 61.7988C137.139 62.7624 135.808 63.2441 134.115 63.2441ZM134.193 55.1191C133.464 55.1191 132.898 55.3698 132.494 55.8711C132.09 56.3724 131.889 57.082 131.889 58C131.889 59.9206 132.663 60.8809 134.213 60.8809C135.691 60.8809 136.43 59.8945 136.43 57.9219C136.43 56.0534 135.684 55.1191 134.193 55.1191ZM151.098 53L147.035 63.8008C146.059 66.3984 144.587 67.6973 142.621 67.6973C141.872 67.6973 141.257 67.6126 140.775 67.4434V64.9824C141.186 65.2233 141.632 65.3438 142.113 65.3438C142.908 65.3438 143.461 64.9694 143.773 64.2207L144.301 62.9805L140.238 53H143.656L145.521 59.084C145.639 59.4616 145.73 59.9076 145.795 60.4219H145.834C145.893 60.0443 146 59.6048 146.156 59.1035L148.041 53H151.098ZM161.127 58.8789H154.604C154.708 60.3307 155.622 61.0566 157.348 61.0566C158.448 61.0566 159.415 60.7962 160.248 60.2754V62.502C159.324 62.9967 158.122 63.2441 156.645 63.2441C155.03 63.2441 153.777 62.7982 152.885 61.9062C151.993 61.0078 151.547 59.7578 151.547 58.1562C151.547 56.4961 152.029 55.181 152.992 54.2109C153.956 53.2409 155.141 52.7559 156.547 52.7559C158.005 52.7559 159.132 53.1888 159.926 54.0547C160.727 54.9206 161.127 56.0957 161.127 57.5801V58.8789ZM158.266 56.9844C158.266 55.5521 157.686 54.8359 156.527 54.8359C156.033 54.8359 155.603 55.041 155.238 55.4512C154.88 55.8613 154.662 56.3724 154.584 56.9844H158.266ZM171.947 58.8789H165.424C165.528 60.3307 166.443 61.0566 168.168 61.0566C169.268 61.0566 170.235 60.7962 171.068 60.2754V62.502C170.144 62.9967 168.943 63.2441 167.465 63.2441C165.85 63.2441 164.597 62.7982 163.705 61.9062C162.813 61.0078 162.367 59.7578 162.367 58.1562C162.367 56.4961 162.849 55.181 163.812 54.2109C164.776 53.2409 165.961 52.7559 167.367 52.7559C168.826 52.7559 169.952 53.1888 170.746 54.0547C171.547 54.9206 171.947 56.0957 171.947 57.5801V58.8789ZM169.086 56.9844C169.086 55.5521 168.507 54.8359 167.348 54.8359C166.853 54.8359 166.423 55.041 166.059 55.4512C165.701 55.8613 165.482 56.3724 165.404 56.9844H169.086ZM179.613 63V48.9961H184.574C189.548 48.9961 192.035 51.2715 192.035 55.8223C192.035 58.0033 191.355 59.7448 189.994 61.0469C188.64 62.349 186.833 63 184.574 63H179.613ZM182.768 51.5645V60.4414H184.33C185.697 60.4414 186.768 60.0312 187.543 59.2109C188.324 58.3906 188.715 57.2741 188.715 55.8613C188.715 54.5267 188.327 53.4785 187.553 52.7168C186.785 51.9486 185.704 51.5645 184.311 51.5645H182.768ZM203.041 58.8789H196.518C196.622 60.3307 197.536 61.0566 199.262 61.0566C200.362 61.0566 201.329 60.7962 202.162 60.2754V62.502C201.238 62.9967 200.036 63.2441 198.559 63.2441C196.944 63.2441 195.691 62.7982 194.799 61.9062C193.907 61.0078 193.461 59.7578 193.461 58.1562C193.461 56.4961 193.943 55.181 194.906 54.2109C195.87 53.2409 197.055 52.7559 198.461 52.7559C199.919 52.7559 201.046 53.1888 201.84 54.0547C202.641 54.9206 203.041 56.0957 203.041 57.5801V58.8789ZM200.18 56.9844C200.18 55.5521 199.6 54.8359 198.441 54.8359C197.947 54.8359 197.517 55.041 197.152 55.4512C196.794 55.8613 196.576 56.3724 196.498 56.9844H200.18ZM210.922 62.8828C210.466 63.1237 209.779 63.2441 208.861 63.2441C206.687 63.2441 205.6 62.1146 205.6 59.8555V55.2754H203.979V53H205.6V50.8418L208.676 49.9629V53H210.922V55.2754H208.676V59.3184C208.676 60.36 209.089 60.8809 209.916 60.8809C210.242 60.8809 210.577 60.7865 210.922 60.5977V62.8828ZM220.99 63H218.07V61.5645H218.031C217.361 62.6842 216.368 63.2441 215.053 63.2441C214.083 63.2441 213.318 62.9707 212.758 62.4238C212.204 61.8704 211.928 61.1348 211.928 60.2168C211.928 58.2767 213.077 57.1569 215.375 56.8574L218.09 56.4961C218.09 55.4023 217.497 54.8555 216.312 54.8555C215.121 54.8555 213.988 55.2103 212.914 55.9199V53.5957C213.344 53.3743 213.93 53.179 214.672 53.0098C215.421 52.8405 216.101 52.7559 216.713 52.7559C219.564 52.7559 220.99 54.1784 220.99 57.0234V63ZM218.09 58.9375V58.2637L216.273 58.498C215.271 58.6283 214.77 59.0807 214.77 59.8555C214.77 60.207 214.89 60.4967 215.131 60.7246C215.378 60.946 215.71 61.0566 216.127 61.0566C216.706 61.0566 217.178 60.8581 217.543 60.4609C217.908 60.0573 218.09 59.5495 218.09 58.9375ZM224.994 51.418C224.473 51.418 224.047 51.265 223.715 50.959C223.383 50.6465 223.217 50.2656 223.217 49.8164C223.217 49.3542 223.383 48.9766 223.715 48.6836C224.047 48.3906 224.473 48.2441 224.994 48.2441C225.521 48.2441 225.948 48.3906 226.273 48.6836C226.605 48.9766 226.771 49.3542 226.771 49.8164C226.771 50.2852 226.605 50.6693 226.273 50.9688C225.948 51.2682 225.521 51.418 224.994 51.418ZM226.518 63H223.432V53H226.518V63ZM232.201 63H229.115V48.1953H232.201V63ZM234.145 62.7363V60.2363C234.652 60.5423 235.157 60.7702 235.658 60.9199C236.166 61.0697 236.645 61.1445 237.094 61.1445C237.641 61.1445 238.07 61.0697 238.383 60.9199C238.702 60.7702 238.861 60.5423 238.861 60.2363C238.861 60.041 238.79 59.8783 238.646 59.748C238.503 59.6178 238.318 59.5039 238.09 59.4062C237.868 59.3086 237.624 59.2207 237.357 59.1426C237.09 59.0645 236.833 58.9766 236.586 58.8789C236.189 58.7292 235.837 58.5697 235.531 58.4004C235.232 58.2246 234.978 58.0228 234.77 57.7949C234.568 57.5671 234.411 57.3034 234.301 57.0039C234.197 56.7044 234.145 56.3496 234.145 55.9395C234.145 55.3796 234.265 54.8978 234.506 54.4941C234.753 54.0905 235.079 53.7617 235.482 53.5078C235.893 53.2474 236.358 53.0586 236.879 52.9414C237.406 52.8177 237.953 52.7559 238.52 52.7559C238.962 52.7559 239.411 52.7917 239.867 52.8633C240.323 52.9284 240.772 53.026 241.215 53.1562V55.5391C240.824 55.3112 240.404 55.1419 239.955 55.0312C239.512 54.9141 239.076 54.8555 238.646 54.8555C238.445 54.8555 238.253 54.875 238.07 54.9141C237.895 54.9466 237.738 54.9987 237.602 55.0703C237.465 55.1354 237.357 55.2233 237.279 55.334C237.201 55.4382 237.162 55.5586 237.162 55.6953C237.162 55.8776 237.221 56.0339 237.338 56.1641C237.455 56.2943 237.608 56.4082 237.797 56.5059C237.986 56.597 238.194 56.6816 238.422 56.7598C238.656 56.8314 238.887 56.9062 239.115 56.9844C239.525 57.1276 239.896 57.2839 240.229 57.4531C240.561 57.6224 240.844 57.821 241.078 58.0488C241.319 58.2767 241.501 58.5436 241.625 58.8496C241.755 59.1556 241.82 59.5202 241.82 59.9434C241.82 60.5358 241.69 61.0436 241.43 61.4668C241.176 61.8835 240.834 62.2253 240.404 62.4922C239.981 62.7526 239.49 62.9414 238.93 63.0586C238.376 63.1823 237.8 63.2441 237.201 63.2441C236.101 63.2441 235.082 63.0749 234.145 62.7363Z" fill="white"/>
<defs>
<filter id="filter0_d_546_649" x="0" y="0" width="319.342" height="110" filterUnits="userSpaceOnUse" color-interpolation-filters="sRGB">
<feFlood flood-opacity="0" result="BackgroundImageFix"/>
<feColorMatrix in="SourceAlpha" type="matrix" values="0 0 0 0 0 0 0 0 0 0 0 0 0 0 0 0 0 0 127 0" result="hardAlpha"/>
<feOffset dx="4"/>
<feGaussianBlur stdDeviation="10"/>
<feComposite in2="hardAlpha" operator="out"/>
<feColorMatrix type="matrix" values="0 0 0 0 0 0 0 0 0 0 0 0 0 0 0 0 0 0 0.15 0"/>
<feBlend mode="normal" in2="BackgroundImageFix" result="effect1_dropShadow_546_649"/>
<feBlend mode="normal" in="SourceGraphic" in2="effect1_dropShadow_546_649" result="shape"/>
</filter>
</defs>
</svg>
