<svg width="320" height="110" viewBox="0 0 320 110" fill="none" xmlns="http://www.w3.org/2000/svg">
<g filter="url(#filter0_d_546_651)">
<path d="M16 30C16 24.4772 20.4772 20 26 20H262.087C264.865 20 267.517 21.1553 269.409 23.189L292.664 48.189C296.235 52.0277 296.235 57.9723 292.664 61.811L269.409 86.811C267.517 88.8447 264.865 90 262.087 90H26C20.4772 90 16 85.5229 16 80V30Z" fill="#0A62F1"/>
</g>
<path d="M104.602 63V48.9961H109.699C111.262 48.9961 112.463 49.2826 113.303 49.8555C114.143 50.4284 114.562 51.2357 114.562 52.2773C114.562 53.0326 114.305 53.6934 113.791 54.2598C113.283 54.8262 112.632 55.2201 111.838 55.4414V55.4805C112.834 55.6042 113.628 55.972 114.221 56.584C114.82 57.196 115.119 57.9414 115.119 58.8203C115.119 60.1029 114.66 61.1217 113.742 61.877C112.824 62.6257 111.571 63 109.982 63H104.602ZM107.756 51.3203V54.6406H109.143C109.794 54.6406 110.305 54.4844 110.676 54.1719C111.053 53.8529 111.242 53.4167 111.242 52.8633C111.242 51.8346 110.474 51.3203 108.938 51.3203H107.756ZM107.756 56.9844V60.6758H109.465C110.194 60.6758 110.764 60.5065 111.174 60.168C111.59 59.8294 111.799 59.3672 111.799 58.7812C111.799 58.2214 111.594 57.7819 111.184 57.4629C110.78 57.1439 110.214 56.9844 109.484 56.9844H107.756ZM125.451 63H122.531V61.5645H122.492C121.822 62.6842 120.829 63.2441 119.514 63.2441C118.544 63.2441 117.779 62.9707 117.219 62.4238C116.665 61.8704 116.389 61.1348 116.389 60.2168C116.389 58.2767 117.538 57.1569 119.836 56.8574L122.551 56.4961C122.551 55.4023 121.958 54.8555 120.773 54.8555C119.582 54.8555 118.449 55.2103 117.375 55.9199V53.5957C117.805 53.3743 118.391 53.179 119.133 53.0098C119.882 52.8405 120.562 52.7559 121.174 52.7559C124.025 52.7559 125.451 54.1784 125.451 57.0234V63ZM122.551 58.9375V58.2637L120.734 58.498C119.732 58.6283 119.23 59.0807 119.23 59.8555C119.23 60.207 119.351 60.4967 119.592 60.7246C119.839 60.946 120.171 61.0566 120.588 61.0566C121.167 61.0566 121.639 60.8581 122.004 60.4609C122.368 60.0573 122.551 59.5495 122.551 58.9375ZM137.551 63H134.475V57.4434C134.475 55.8939 133.921 55.1191 132.814 55.1191C132.281 55.1191 131.841 55.3242 131.496 55.7344C131.151 56.1445 130.979 56.6654 130.979 57.2969V63H127.893V53H130.979V54.582H131.018C131.753 53.3646 132.824 52.7559 134.23 52.7559C136.444 52.7559 137.551 54.1296 137.551 56.877V63ZM150.021 63H146.32L143.127 58.0391H143.088V63H140.002V48.1953H143.088V57.6191H143.127L146.105 53H149.768L146.184 57.6973L150.021 63ZM157.023 63V48.9961H161.984C166.958 48.9961 169.445 51.2715 169.445 55.8223C169.445 58.0033 168.765 59.7448 167.404 61.0469C166.05 62.349 164.243 63 161.984 63H157.023ZM160.178 51.5645V60.4414H161.74C163.107 60.4414 164.178 60.0312 164.953 59.2109C165.734 58.3906 166.125 57.2741 166.125 55.8613C166.125 54.5267 165.738 53.4785 164.963 52.7168C164.195 51.9486 163.114 51.5645 161.721 51.5645H160.178ZM180.451 58.8789H173.928C174.032 60.3307 174.947 61.0566 176.672 61.0566C177.772 61.0566 178.739 60.7962 179.572 60.2754V62.502C178.648 62.9967 177.447 63.2441 175.969 63.2441C174.354 63.2441 173.101 62.7982 172.209 61.9062C171.317 61.0078 170.871 59.7578 170.871 58.1562C170.871 56.4961 171.353 55.181 172.316 54.2109C173.28 53.2409 174.465 52.7559 175.871 52.7559C177.329 52.7559 178.456 53.1888 179.25 54.0547C180.051 54.9206 180.451 56.0957 180.451 57.5801V58.8789ZM177.59 56.9844C177.59 55.5521 177.01 54.8359 175.852 54.8359C175.357 54.8359 174.927 55.041 174.562 55.4512C174.204 55.8613 173.986 56.3724 173.908 56.9844H177.59ZM188.332 62.8828C187.876 63.1237 187.189 63.2441 186.271 63.2441C184.097 63.2441 183.01 62.1146 183.01 59.8555V55.2754H181.389V53H183.01V50.8418L186.086 49.9629V53H188.332V55.2754H186.086V59.3184C186.086 60.36 186.499 60.8809 187.326 60.8809C187.652 60.8809 187.987 60.7865 188.332 60.5977V62.8828ZM198.4 63H195.48V61.5645H195.441C194.771 62.6842 193.778 63.2441 192.463 63.2441C191.493 63.2441 190.728 62.9707 190.168 62.4238C189.615 61.8704 189.338 61.1348 189.338 60.2168C189.338 58.2767 190.487 57.1569 192.785 56.8574L195.5 56.4961C195.5 55.4023 194.908 54.8555 193.723 54.8555C192.531 54.8555 191.398 55.2103 190.324 55.9199V53.5957C190.754 53.3743 191.34 53.179 192.082 53.0098C192.831 52.8405 193.511 52.7559 194.123 52.7559C196.975 52.7559 198.4 54.1784 198.4 57.0234V63ZM195.5 58.9375V58.2637L193.684 58.498C192.681 58.6283 192.18 59.0807 192.18 59.8555C192.18 60.207 192.3 60.4967 192.541 60.7246C192.788 60.946 193.12 61.0566 193.537 61.0566C194.117 61.0566 194.589 60.8581 194.953 60.4609C195.318 60.0573 195.5 59.5495 195.5 58.9375ZM202.404 51.418C201.883 51.418 201.457 51.265 201.125 50.959C200.793 50.6465 200.627 50.2656 200.627 49.8164C200.627 49.3542 200.793 48.9766 201.125 48.6836C201.457 48.3906 201.883 48.2441 202.404 48.2441C202.932 48.2441 203.358 48.3906 203.684 48.6836C204.016 48.9766 204.182 49.3542 204.182 49.8164C204.182 50.2852 204.016 50.6693 203.684 50.9688C203.358 51.2682 202.932 51.418 202.404 51.418ZM203.928 63H200.842V53H203.928V63ZM209.611 63H206.525V48.1953H209.611V63ZM211.555 62.7363V60.2363C212.062 60.5423 212.567 60.7702 213.068 60.9199C213.576 61.0697 214.055 61.1445 214.504 61.1445C215.051 61.1445 215.48 61.0697 215.793 60.9199C216.112 60.7702 216.271 60.5423 216.271 60.2363C216.271 60.041 216.2 59.8783 216.057 59.748C215.913 59.6178 215.728 59.5039 215.5 59.4062C215.279 59.3086 215.035 59.2207 214.768 59.1426C214.501 59.0645 214.243 58.9766 213.996 58.8789C213.599 58.7292 213.247 58.5697 212.941 58.4004C212.642 58.2246 212.388 58.0228 212.18 57.7949C211.978 57.5671 211.822 57.3034 211.711 57.0039C211.607 56.7044 211.555 56.3496 211.555 55.9395C211.555 55.3796 211.675 54.8978 211.916 54.4941C212.163 54.0905 212.489 53.7617 212.893 53.5078C213.303 53.2474 213.768 53.0586 214.289 52.9414C214.816 52.8177 215.363 52.7559 215.93 52.7559C216.372 52.7559 216.822 52.7917 217.277 52.8633C217.733 52.9284 218.182 53.026 218.625 53.1562V55.5391C218.234 55.3112 217.814 55.1419 217.365 55.0312C216.923 54.9141 216.486 54.8555 216.057 54.8555C215.855 54.8555 215.663 54.875 215.48 54.9141C215.305 54.9466 215.148 54.9987 215.012 55.0703C214.875 55.1354 214.768 55.2233 214.689 55.334C214.611 55.4382 214.572 55.5586 214.572 55.6953C214.572 55.8776 214.631 56.0339 214.748 56.1641C214.865 56.2943 215.018 56.4082 215.207 56.5059C215.396 56.597 215.604 56.6816 215.832 56.7598C216.066 56.8314 216.298 56.9062 216.525 56.9844C216.936 57.1276 217.307 57.2839 217.639 57.4531C217.971 57.6224 218.254 57.821 218.488 58.0488C218.729 58.2767 218.911 58.5436 219.035 58.8496C219.165 59.1556 219.23 59.5202 219.23 59.9434C219.23 60.5358 219.1 61.0436 218.84 61.4668C218.586 61.8835 218.244 62.2253 217.814 62.4922C217.391 62.7526 216.9 62.9414 216.34 63.0586C215.786 63.1823 215.21 63.2441 214.611 63.2441C213.511 63.2441 212.492 63.0749 211.555 62.7363Z" fill="white"/>
<defs>
<filter id="filter0_d_546_651" x="0" y="0" width="319.343" height="110" filterUnits="userSpaceOnUse" color-interpolation-filters="sRGB">
<feFlood flood-opacity="0" result="BackgroundImageFix"/>
<feColorMatrix in="SourceAlpha" type="matrix" values="0 0 0 0 0 0 0 0 0 0 0 0 0 0 0 0 0 0 127 0" result="hardAlpha"/>
<feOffset dx="4"/>
<feGaussianBlur stdDeviation="10"/>
<feComposite in2="hardAlpha" operator="out"/>
<feColorMatrix type="matrix" values="0 0 0 0 0 0 0 0 0 0 0 0 0 0 0 0 0 0 0.15 0"/>
<feBlend mode="normal" in2="BackgroundImageFix" result="effect1_dropShadow_546_651"/>
<feBlend mode="normal" in="SourceGraphic" in2="effect1_dropShadow_546_651" result="shape"/>
</filter>
</defs>
</svg>
