<svg width="264" height="110" viewBox="0 0 264 110" fill="none" xmlns="http://www.w3.org/2000/svg">
<g filter="url(#filter0_d_546_644)">
<path d="M16 30C16 24.4772 20.4772 20 26 20H210.971C214.135 20 217.112 21.4971 218.999 24.0368L237.57 49.0368C240.2 52.5773 240.2 57.4227 237.57 60.9632L218.999 85.9632C217.112 88.5029 214.135 90 210.971 90H26C20.4772 90 16 85.5229 16 80V30Z" fill="#0A62F1"/>
</g>
<path d="M58.6016 63V48.9961H63.6992C65.2617 48.9961 66.4629 49.2826 67.3027 49.8555C68.1426 50.4284 68.5625 51.2357 68.5625 52.2773C68.5625 53.0326 68.3053 53.6934 67.791 54.2598C67.2832 54.8262 66.6322 55.2201 65.8379 55.4414V55.4805C66.834 55.6042 67.6283 55.972 68.2207 56.584C68.8197 57.196 69.1191 57.9414 69.1191 58.8203C69.1191 60.1029 68.6602 61.1217 67.7422 61.877C66.8242 62.6257 65.571 63 63.9824 63H58.6016ZM61.7559 51.3203V54.6406H63.1426C63.7936 54.6406 64.3047 54.4844 64.6758 54.1719C65.0534 53.8529 65.2422 53.4167 65.2422 52.8633C65.2422 51.8346 64.474 51.3203 62.9375 51.3203H61.7559ZM61.7559 56.9844V60.6758H63.4648C64.194 60.6758 64.7637 60.5065 65.1738 60.168C65.5905 59.8294 65.7988 59.3672 65.7988 58.7812C65.7988 58.2214 65.5938 57.7819 65.1836 57.4629C64.7799 57.1439 64.2135 56.9844 63.4844 56.9844H61.7559ZM79.4512 63H76.5312V61.5645H76.4922C75.8216 62.6842 74.8288 63.2441 73.5137 63.2441C72.5436 63.2441 71.7786 62.9707 71.2188 62.4238C70.6654 61.8704 70.3887 61.1348 70.3887 60.2168C70.3887 58.2767 71.5378 57.1569 73.8359 56.8574L76.5508 56.4961C76.5508 55.4023 75.9583 54.8555 74.7734 54.8555C73.582 54.8555 72.4492 55.2103 71.375 55.9199V53.5957C71.8047 53.3743 72.3906 53.179 73.1328 53.0098C73.8815 52.8405 74.5618 52.7559 75.1738 52.7559C78.0254 52.7559 79.4512 54.1784 79.4512 57.0234V63ZM76.5508 58.9375V58.2637L74.7344 58.498C73.7318 58.6283 73.2305 59.0807 73.2305 59.8555C73.2305 60.207 73.3509 60.4967 73.5918 60.7246C73.8392 60.946 74.1712 61.0566 74.5879 61.0566C75.1673 61.0566 75.6393 60.8581 76.0039 60.4609C76.3685 60.0573 76.5508 59.5495 76.5508 58.9375ZM81.2383 62.7363V60.2363C81.7461 60.5423 82.2507 60.7702 82.752 60.9199C83.2598 61.0697 83.7383 61.1445 84.1875 61.1445C84.7344 61.1445 85.1641 61.0697 85.4766 60.9199C85.7956 60.7702 85.9551 60.5423 85.9551 60.2363C85.9551 60.041 85.8835 59.8783 85.7402 59.748C85.597 59.6178 85.4115 59.5039 85.1836 59.4062C84.9622 59.3086 84.7181 59.2207 84.4512 59.1426C84.1842 59.0645 83.9271 58.9766 83.6797 58.8789C83.2826 58.7292 82.931 58.5697 82.625 58.4004C82.3255 58.2246 82.0716 58.0228 81.8633 57.7949C81.6615 57.5671 81.5052 57.3034 81.3945 57.0039C81.2904 56.7044 81.2383 56.3496 81.2383 55.9395C81.2383 55.3796 81.3587 54.8978 81.5996 54.4941C81.847 54.0905 82.1725 53.7617 82.5762 53.5078C82.9863 53.2474 83.4518 53.0586 83.9727 52.9414C84.5 52.8177 85.0469 52.7559 85.6133 52.7559C86.056 52.7559 86.5052 52.7917 86.9609 52.8633C87.4167 52.9284 87.8659 53.026 88.3086 53.1562V55.5391C87.918 55.3112 87.498 55.1419 87.0488 55.0312C86.6061 54.9141 86.1699 54.8555 85.7402 54.8555C85.5384 54.8555 85.3464 54.875 85.1641 54.9141C84.9883 54.9466 84.832 54.9987 84.6953 55.0703C84.5586 55.1354 84.4512 55.2233 84.373 55.334C84.2949 55.4382 84.2559 55.5586 84.2559 55.6953C84.2559 55.8776 84.3145 56.0339 84.4316 56.1641C84.5488 56.2943 84.7018 56.4082 84.8906 56.5059C85.0794 56.597 85.2878 56.6816 85.5156 56.7598C85.75 56.8314 85.9811 56.9062 86.209 56.9844C86.6191 57.1276 86.9902 57.2839 87.3223 57.4531C87.6543 57.6224 87.9375 57.821 88.1719 58.0488C88.4128 58.2767 88.5951 58.5436 88.7188 58.8496C88.849 59.1556 88.9141 59.5202 88.9141 59.9434C88.9141 60.5358 88.7839 61.0436 88.5234 61.4668C88.2695 61.8835 87.9277 62.2253 87.498 62.4922C87.0749 62.7526 86.5833 62.9414 86.0234 63.0586C85.4701 63.1823 84.8939 63.2441 84.2949 63.2441C83.1947 63.2441 82.1758 63.0749 81.2383 62.7363ZM92.2637 51.418C91.7428 51.418 91.3164 51.265 90.9844 50.959C90.6523 50.6465 90.4863 50.2656 90.4863 49.8164C90.4863 49.3542 90.6523 48.9766 90.9844 48.6836C91.3164 48.3906 91.7428 48.2441 92.2637 48.2441C92.791 48.2441 93.2174 48.3906 93.543 48.6836C93.875 48.9766 94.041 49.3542 94.041 49.8164C94.041 50.2852 93.875 50.6693 93.543 50.9688C93.2174 51.2682 92.791 51.418 92.2637 51.418ZM93.7871 63H90.7012V53H93.7871V63ZM103.963 62.6387C103.266 63.0423 102.26 63.2441 100.945 63.2441C99.4089 63.2441 98.1654 62.7786 97.2148 61.8477C96.2643 60.9167 95.7891 59.7155 95.7891 58.2441C95.7891 56.5449 96.2969 55.207 97.3125 54.2305C98.3346 53.2474 99.6986 52.7559 101.404 52.7559C102.583 52.7559 103.436 52.9121 103.963 53.2246V55.8418C103.318 55.36 102.599 55.1191 101.805 55.1191C100.919 55.1191 100.216 55.3796 99.6953 55.9004C99.181 56.4147 98.9238 57.1276 98.9238 58.0391C98.9238 58.9245 99.1712 59.6211 99.666 60.1289C100.161 60.6302 100.841 60.8809 101.707 60.8809C102.475 60.8809 103.227 60.64 103.963 60.1582V62.6387ZM111.824 63V48.9961H116.785C121.759 48.9961 124.246 51.2715 124.246 55.8223C124.246 58.0033 123.566 59.7448 122.205 61.0469C120.851 62.349 119.044 63 116.785 63H111.824ZM114.979 51.5645V60.4414H116.541C117.908 60.4414 118.979 60.0312 119.754 59.2109C120.535 58.3906 120.926 57.2741 120.926 55.8613C120.926 54.5267 120.538 53.4785 119.764 52.7168C118.995 51.9486 117.915 51.5645 116.521 51.5645H114.979ZM135.252 58.8789H128.729C128.833 60.3307 129.747 61.0566 131.473 61.0566C132.573 61.0566 133.54 60.7962 134.373 60.2754V62.502C133.449 62.9967 132.247 63.2441 130.77 63.2441C129.155 63.2441 127.902 62.7982 127.01 61.9062C126.118 61.0078 125.672 59.7578 125.672 58.1562C125.672 56.4961 126.154 55.181 127.117 54.2109C128.081 53.2409 129.266 52.7559 130.672 52.7559C132.13 52.7559 133.257 53.1888 134.051 54.0547C134.852 54.9206 135.252 56.0957 135.252 57.5801V58.8789ZM132.391 56.9844C132.391 55.5521 131.811 54.8359 130.652 54.8359C130.158 54.8359 129.728 55.041 129.363 55.4512C129.005 55.8613 128.787 56.3724 128.709 56.9844H132.391ZM143.133 62.8828C142.677 63.1237 141.99 63.2441 141.072 63.2441C138.898 63.2441 137.811 62.1146 137.811 59.8555V55.2754H136.189V53H137.811V50.8418L140.887 49.9629V53H143.133V55.2754H140.887V59.3184C140.887 60.36 141.3 60.8809 142.127 60.8809C142.452 60.8809 142.788 60.7865 143.133 60.5977V62.8828ZM153.201 63H150.281V61.5645H150.242C149.572 62.6842 148.579 63.2441 147.264 63.2441C146.294 63.2441 145.529 62.9707 144.969 62.4238C144.415 61.8704 144.139 61.1348 144.139 60.2168C144.139 58.2767 145.288 57.1569 147.586 56.8574L150.301 56.4961C150.301 55.4023 149.708 54.8555 148.523 54.8555C147.332 54.8555 146.199 55.2103 145.125 55.9199V53.5957C145.555 53.3743 146.141 53.179 146.883 53.0098C147.632 52.8405 148.312 52.7559 148.924 52.7559C151.775 52.7559 153.201 54.1784 153.201 57.0234V63ZM150.301 58.9375V58.2637L148.484 58.498C147.482 58.6283 146.98 59.0807 146.98 59.8555C146.98 60.207 147.101 60.4967 147.342 60.7246C147.589 60.946 147.921 61.0566 148.338 61.0566C148.917 61.0566 149.389 60.8581 149.754 60.4609C150.118 60.0573 150.301 59.5495 150.301 58.9375ZM157.205 51.418C156.684 51.418 156.258 51.265 155.926 50.959C155.594 50.6465 155.428 50.2656 155.428 49.8164C155.428 49.3542 155.594 48.9766 155.926 48.6836C156.258 48.3906 156.684 48.2441 157.205 48.2441C157.732 48.2441 158.159 48.3906 158.484 48.6836C158.816 48.9766 158.982 49.3542 158.982 49.8164C158.982 50.2852 158.816 50.6693 158.484 50.9688C158.159 51.2682 157.732 51.418 157.205 51.418ZM158.729 63H155.643V53H158.729V63ZM164.412 63H161.326V48.1953H164.412V63ZM166.355 62.7363V60.2363C166.863 60.5423 167.368 60.7702 167.869 60.9199C168.377 61.0697 168.855 61.1445 169.305 61.1445C169.852 61.1445 170.281 61.0697 170.594 60.9199C170.913 60.7702 171.072 60.5423 171.072 60.2363C171.072 60.041 171.001 59.8783 170.857 59.748C170.714 59.6178 170.529 59.5039 170.301 59.4062C170.079 59.3086 169.835 59.2207 169.568 59.1426C169.301 59.0645 169.044 58.9766 168.797 58.8789C168.4 58.7292 168.048 58.5697 167.742 58.4004C167.443 58.2246 167.189 58.0228 166.98 57.7949C166.779 57.5671 166.622 57.3034 166.512 57.0039C166.408 56.7044 166.355 56.3496 166.355 55.9395C166.355 55.3796 166.476 54.8978 166.717 54.4941C166.964 54.0905 167.29 53.7617 167.693 53.5078C168.104 53.2474 168.569 53.0586 169.09 52.9414C169.617 52.8177 170.164 52.7559 170.73 52.7559C171.173 52.7559 171.622 52.7917 172.078 52.8633C172.534 52.9284 172.983 53.026 173.426 53.1562V55.5391C173.035 55.3112 172.615 55.1419 172.166 55.0312C171.723 54.9141 171.287 54.8555 170.857 54.8555C170.656 54.8555 170.464 54.875 170.281 54.9141C170.105 54.9466 169.949 54.9987 169.812 55.0703C169.676 55.1354 169.568 55.2233 169.49 55.334C169.412 55.4382 169.373 55.5586 169.373 55.6953C169.373 55.8776 169.432 56.0339 169.549 56.1641C169.666 56.2943 169.819 56.4082 170.008 56.5059C170.197 56.597 170.405 56.6816 170.633 56.7598C170.867 56.8314 171.098 56.9062 171.326 56.9844C171.736 57.1276 172.107 57.2839 172.439 57.4531C172.771 57.6224 173.055 57.821 173.289 58.0488C173.53 58.2767 173.712 58.5436 173.836 58.8496C173.966 59.1556 174.031 59.5202 174.031 59.9434C174.031 60.5358 173.901 61.0436 173.641 61.4668C173.387 61.8835 173.045 62.2253 172.615 62.4922C172.192 62.7526 171.701 62.9414 171.141 63.0586C170.587 63.1823 170.011 63.2441 169.412 63.2441C168.312 63.2441 167.293 63.0749 166.355 62.7363Z" fill="white"/>
<defs>
<filter id="filter0_d_546_644" x="0" y="0" width="263.542" height="110" filterUnits="userSpaceOnUse" color-interpolation-filters="sRGB">
<feFlood flood-opacity="0" result="BackgroundImageFix"/>
<feColorMatrix in="SourceAlpha" type="matrix" values="0 0 0 0 0 0 0 0 0 0 0 0 0 0 0 0 0 0 127 0" result="hardAlpha"/>
<feOffset dx="4"/>
<feGaussianBlur stdDeviation="10"/>
<feComposite in2="hardAlpha" operator="out"/>
<feColorMatrix type="matrix" values="0 0 0 0 0 0 0 0 0 0 0 0 0 0 0 0 0 0 0.15 0"/>
<feBlend mode="normal" in2="BackgroundImageFix" result="effect1_dropShadow_546_644"/>
<feBlend mode="normal" in="SourceGraphic" in2="effect1_dropShadow_546_644" result="shape"/>
</filter>
</defs>
</svg>
