<svg width="264" height="110" viewBox="0 0 264 110" fill="none" xmlns="http://www.w3.org/2000/svg">
<g filter="url(#filter0_d_546_653)">
<path d="M16 30C16 24.4772 20.4772 20 26 20H210.971C214.135 20 217.112 21.4971 218.999 24.0368L237.57 49.0368C240.2 52.5773 240.2 57.4227 237.57 60.9632L218.999 85.9632C217.112 88.5029 214.135 90 210.971 90H26C20.4772 90 16 85.5229 16 80V30Z" fill="white"/>
<path d="M16.5 30C16.5 24.7533 20.7533 20.5 26 20.5H210.971C213.977 20.5 216.805 21.9222 218.597 24.3349L237.169 49.3349C239.667 52.6984 239.667 57.3016 237.169 60.6651L218.597 85.6651C216.805 88.0778 213.977 89.5 210.971 89.5H26C20.7533 89.5 16.5 85.2467 16.5 80V30Z" stroke="#0A62F1"/>
</g>
<path d="M58.8359 63V48.9961H62.8203C64.0312 48.9961 64.9915 49.2923 65.7012 49.8848C66.4108 50.4772 66.7656 51.2487 66.7656 52.1992C66.7656 52.9935 66.5508 53.6836 66.1211 54.2695C65.6914 54.8555 65.099 55.2721 64.3438 55.5195V55.5586C65.2878 55.6693 66.043 56.0273 66.6094 56.6328C67.1758 57.2318 67.459 58.013 67.459 58.9766C67.459 60.1745 67.0293 61.1445 66.1699 61.8867C65.3105 62.6289 64.2266 63 62.918 63H58.8359ZM60.4766 50.4805V55.002H62.1562C63.0547 55.002 63.7611 54.7871 64.2754 54.3574C64.7897 53.9212 65.0469 53.3092 65.0469 52.5215C65.0469 51.1608 64.1517 50.4805 62.3613 50.4805H60.4766ZM60.4766 56.4766V61.5156H62.7031C63.6667 61.5156 64.4121 61.2878 64.9395 60.832C65.4733 60.3763 65.7402 59.7513 65.7402 58.957C65.7402 57.3034 64.6139 56.4766 62.3613 56.4766H60.4766ZM77.2441 63H75.6426V61.4375H75.6035C74.9069 62.6354 73.8815 63.2344 72.5273 63.2344C71.5312 63.2344 70.75 62.9707 70.1836 62.4434C69.6237 61.916 69.3438 61.2161 69.3438 60.3438C69.3438 58.4753 70.444 57.388 72.6445 57.082L75.6426 56.6621C75.6426 54.9629 74.9557 54.1133 73.582 54.1133C72.3776 54.1133 71.2904 54.5234 70.3203 55.3438V53.7031C71.3034 53.0781 72.4362 52.7656 73.7188 52.7656C76.069 52.7656 77.2441 54.0091 77.2441 56.4961V63ZM75.6426 57.9414L73.2305 58.2734C72.4883 58.3776 71.9284 58.5632 71.5508 58.8301C71.1732 59.0905 70.9844 59.556 70.9844 60.2266C70.9844 60.7148 71.1569 61.1152 71.502 61.4277C71.8535 61.7337 72.319 61.8867 72.8984 61.8867C73.6927 61.8867 74.347 61.61 74.8613 61.0566C75.3822 60.4967 75.6426 59.7904 75.6426 58.9375V57.9414ZM79.6562 62.6387V60.9199C80.5286 61.5645 81.4889 61.8867 82.5371 61.8867C83.9434 61.8867 84.6465 61.418 84.6465 60.4805C84.6465 60.2135 84.5846 59.9889 84.4609 59.8066C84.3438 59.6178 84.181 59.4518 83.9727 59.3086C83.7708 59.1654 83.5299 59.0384 83.25 58.9277C82.9766 58.8105 82.6803 58.6901 82.3613 58.5664C81.9186 58.3906 81.528 58.2148 81.1895 58.0391C80.8574 57.8568 80.5775 57.6549 80.3496 57.4336C80.1283 57.2057 79.959 56.9486 79.8418 56.6621C79.7311 56.3757 79.6758 56.0404 79.6758 55.6562C79.6758 55.1875 79.7832 54.7741 79.998 54.416C80.2129 54.0514 80.4993 53.7487 80.8574 53.5078C81.2155 53.2604 81.6224 53.0749 82.0781 52.9512C82.5404 52.8275 83.0156 52.7656 83.5039 52.7656C84.3698 52.7656 85.1445 52.9154 85.8281 53.2148V54.8359C85.0924 54.3542 84.2461 54.1133 83.2891 54.1133C82.9896 54.1133 82.7194 54.1491 82.4785 54.2207C82.2376 54.2858 82.0293 54.3802 81.8535 54.5039C81.6842 54.6276 81.5508 54.7773 81.4531 54.9531C81.362 55.1224 81.3164 55.3112 81.3164 55.5195C81.3164 55.7799 81.362 55.998 81.4531 56.1738C81.5508 56.3496 81.6908 56.5059 81.873 56.6426C82.0553 56.7793 82.2767 56.903 82.5371 57.0137C82.7975 57.1243 83.0938 57.2448 83.4258 57.375C83.8685 57.5443 84.2656 57.7201 84.6172 57.9023C84.9688 58.0781 85.2682 58.2799 85.5156 58.5078C85.763 58.7292 85.9518 58.9863 86.082 59.2793C86.2188 59.5723 86.2871 59.9206 86.2871 60.3242C86.2871 60.819 86.1764 61.2487 85.9551 61.6133C85.7402 61.9779 85.4505 62.2806 85.0859 62.5215C84.7214 62.7624 84.3014 62.9414 83.8262 63.0586C83.3509 63.1758 82.8529 63.2344 82.332 63.2344C81.3034 63.2344 80.4115 63.0358 79.6562 62.6387ZM89.5781 50.4609C89.2917 50.4609 89.0475 50.3633 88.8457 50.168C88.6439 49.9727 88.543 49.7253 88.543 49.4258C88.543 49.1263 88.6439 48.8789 88.8457 48.6836C89.0475 48.4818 89.2917 48.3809 89.5781 48.3809C89.8711 48.3809 90.1185 48.4818 90.3203 48.6836C90.5286 48.8789 90.6328 49.1263 90.6328 49.4258C90.6328 49.7122 90.5286 49.9564 90.3203 50.1582C90.1185 50.36 89.8711 50.4609 89.5781 50.4609ZM90.3594 63H88.7578V53H90.3594V63ZM100.418 62.541C99.6497 63.0033 98.7383 63.2344 97.6836 63.2344C96.2578 63.2344 95.1055 62.7721 94.2266 61.8477C93.3542 60.9167 92.918 59.7122 92.918 58.2344C92.918 56.5872 93.39 55.2656 94.334 54.2695C95.278 53.2669 96.5378 52.7656 98.1133 52.7656C98.9922 52.7656 99.7669 52.9284 100.438 53.2539V54.8945C99.6953 54.3737 98.901 54.1133 98.0547 54.1133C97.0326 54.1133 96.1927 54.4811 95.5352 55.2168C94.8841 55.946 94.5586 56.9062 94.5586 58.0977C94.5586 59.2695 94.8646 60.194 95.4766 60.8711C96.0951 61.5482 96.9219 61.8867 97.957 61.8867C98.8294 61.8867 99.6497 61.597 100.418 61.0176V62.541ZM108.543 63V48.9961H112.41C117.345 48.9961 119.812 51.2715 119.812 55.8223C119.812 57.9837 119.126 59.722 117.752 61.0371C116.385 62.3457 114.552 63 112.254 63H108.543ZM110.184 50.4805V61.5156H112.273C114.109 61.5156 115.538 61.0241 116.561 60.041C117.583 59.0579 118.094 57.6647 118.094 55.8613C118.094 52.2741 116.186 50.4805 112.371 50.4805H110.184ZM130.389 58.4004H123.328C123.354 59.5137 123.654 60.373 124.227 60.9785C124.799 61.584 125.587 61.8867 126.59 61.8867C127.716 61.8867 128.751 61.5156 129.695 60.7734V62.2773C128.816 62.9154 127.654 63.2344 126.209 63.2344C124.796 63.2344 123.686 62.7819 122.879 61.877C122.072 60.9655 121.668 59.6862 121.668 58.0391C121.668 56.4831 122.107 55.2168 122.986 54.2402C123.872 53.2572 124.969 52.7656 126.277 52.7656C127.586 52.7656 128.598 53.1888 129.314 54.0352C130.031 54.8815 130.389 56.0566 130.389 57.5605V58.4004ZM128.748 57.043C128.742 56.1185 128.517 55.3991 128.074 54.8848C127.638 54.3704 127.029 54.1133 126.248 54.1133C125.493 54.1133 124.852 54.3835 124.324 54.9238C123.797 55.4642 123.471 56.1706 123.348 57.043H128.748ZM137.459 62.9023C137.081 63.1107 136.583 63.2148 135.965 63.2148C134.214 63.2148 133.338 62.2383 133.338 60.2852V54.3672H131.619V53H133.338V50.5586L134.939 50.041V53H137.459V54.3672H134.939V60.002C134.939 60.6725 135.053 61.151 135.281 61.4375C135.509 61.724 135.887 61.8672 136.414 61.8672C136.818 61.8672 137.166 61.7565 137.459 61.5352V62.9023ZM146.756 63H145.154V61.4375H145.115C144.419 62.6354 143.393 63.2344 142.039 63.2344C141.043 63.2344 140.262 62.9707 139.695 62.4434C139.135 61.916 138.855 61.2161 138.855 60.3438C138.855 58.4753 139.956 57.388 142.156 57.082L145.154 56.6621C145.154 54.9629 144.467 54.1133 143.094 54.1133C141.889 54.1133 140.802 54.5234 139.832 55.3438V53.7031C140.815 53.0781 141.948 52.7656 143.23 52.7656C145.581 52.7656 146.756 54.0091 146.756 56.4961V63ZM145.154 57.9414L142.742 58.2734C142 58.3776 141.44 58.5632 141.062 58.8301C140.685 59.0905 140.496 59.556 140.496 60.2266C140.496 60.7148 140.669 61.1152 141.014 61.4277C141.365 61.7337 141.831 61.8867 142.41 61.8867C143.204 61.8867 143.859 61.61 144.373 61.0566C144.894 60.4967 145.154 59.7904 145.154 58.9375V57.9414ZM150.594 50.4609C150.307 50.4609 150.063 50.3633 149.861 50.168C149.66 49.9727 149.559 49.7253 149.559 49.4258C149.559 49.1263 149.66 48.8789 149.861 48.6836C150.063 48.4818 150.307 48.3809 150.594 48.3809C150.887 48.3809 151.134 48.4818 151.336 48.6836C151.544 48.8789 151.648 49.1263 151.648 49.4258C151.648 49.7122 151.544 49.9564 151.336 50.1582C151.134 50.36 150.887 50.4609 150.594 50.4609ZM151.375 63H149.773V53H151.375V63ZM156.219 63H154.617V48.1953H156.219V63ZM158.855 62.6387V60.9199C159.728 61.5645 160.688 61.8867 161.736 61.8867C163.143 61.8867 163.846 61.418 163.846 60.4805C163.846 60.2135 163.784 59.9889 163.66 59.8066C163.543 59.6178 163.38 59.4518 163.172 59.3086C162.97 59.1654 162.729 59.0384 162.449 58.9277C162.176 58.8105 161.88 58.6901 161.561 58.5664C161.118 58.3906 160.727 58.2148 160.389 58.0391C160.057 57.8568 159.777 57.6549 159.549 57.4336C159.327 57.2057 159.158 56.9486 159.041 56.6621C158.93 56.3757 158.875 56.0404 158.875 55.6562C158.875 55.1875 158.982 54.7741 159.197 54.416C159.412 54.0514 159.699 53.7487 160.057 53.5078C160.415 53.2604 160.822 53.0749 161.277 52.9512C161.74 52.8275 162.215 52.7656 162.703 52.7656C163.569 52.7656 164.344 52.9154 165.027 53.2148V54.8359C164.292 54.3542 163.445 54.1133 162.488 54.1133C162.189 54.1133 161.919 54.1491 161.678 54.2207C161.437 54.2858 161.229 54.3802 161.053 54.5039C160.883 54.6276 160.75 54.7773 160.652 54.9531C160.561 55.1224 160.516 55.3112 160.516 55.5195C160.516 55.7799 160.561 55.998 160.652 56.1738C160.75 56.3496 160.89 56.5059 161.072 56.6426C161.255 56.7793 161.476 56.903 161.736 57.0137C161.997 57.1243 162.293 57.2448 162.625 57.375C163.068 57.5443 163.465 57.7201 163.816 57.9023C164.168 58.0781 164.467 58.2799 164.715 58.5078C164.962 58.7292 165.151 58.9863 165.281 59.2793C165.418 59.5723 165.486 59.9206 165.486 60.3242C165.486 60.819 165.376 61.2487 165.154 61.6133C164.939 61.9779 164.65 62.2806 164.285 62.5215C163.921 62.7624 163.501 62.9414 163.025 63.0586C162.55 63.1758 162.052 63.2344 161.531 63.2344C160.503 63.2344 159.611 63.0358 158.855 62.6387Z" fill="#0A62F1"/>
<defs>
<filter id="filter0_d_546_653" x="0" y="0" width="263.543" height="110" filterUnits="userSpaceOnUse" color-interpolation-filters="sRGB">
<feFlood flood-opacity="0" result="BackgroundImageFix"/>
<feColorMatrix in="SourceAlpha" type="matrix" values="0 0 0 0 0 0 0 0 0 0 0 0 0 0 0 0 0 0 127 0" result="hardAlpha"/>
<feOffset dx="4"/>
<feGaussianBlur stdDeviation="10"/>
<feComposite in2="hardAlpha" operator="out"/>
<feColorMatrix type="matrix" values="0 0 0 0 0 0 0 0 0 0 0 0 0 0 0 0 0 0 0.15 0"/>
<feBlend mode="normal" in2="BackgroundImageFix" result="effect1_dropShadow_546_653"/>
<feBlend mode="normal" in="SourceGraphic" in2="effect1_dropShadow_546_653" result="shape"/>
</filter>
</defs>
</svg>
