<svg width="320" height="110" viewBox="0 0 320 110" fill="none" xmlns="http://www.w3.org/2000/svg">
<g filter="url(#filter0_d_546_648)">
<path d="M16 30C16 24.4772 20.4772 20 26 20H262.087C264.865 20 267.517 21.1553 269.409 23.189L292.664 48.189C296.235 52.0277 296.235 57.9723 292.664 61.811L269.409 86.811C267.517 88.8447 264.865 90 262.087 90H26C20.4772 90 16 85.5229 16 80V30Z" fill="white"/>
<path d="M16.5 30C16.5 24.7533 20.7533 20.5 26 20.5H262.087C264.726 20.5 267.246 21.5975 269.043 23.5296L292.298 48.5296C295.69 52.1763 295.69 57.8237 292.298 61.4704L269.043 86.4704C267.246 88.4025 264.726 89.5 262.087 89.5H26C20.7533 89.5 16.5 85.2467 16.5 80V30Z" stroke="#0A62F1"/>
</g>
<path d="M108.836 63V48.9961H112.703C117.638 48.9961 120.105 51.2715 120.105 55.8223C120.105 57.9837 119.419 59.722 118.045 61.0371C116.678 62.3457 114.845 63 112.547 63H108.836ZM110.477 50.4805V61.5156H112.566C114.402 61.5156 115.831 61.0241 116.854 60.041C117.876 59.0579 118.387 57.6647 118.387 55.8613C118.387 52.2741 116.479 50.4805 112.664 50.4805H110.477ZM126.824 63.2344C125.346 63.2344 124.165 62.7689 123.279 61.8379C122.4 60.9004 121.961 59.6602 121.961 58.1172C121.961 56.4375 122.42 55.1257 123.338 54.1816C124.256 53.2376 125.496 52.7656 127.059 52.7656C128.549 52.7656 129.712 53.2246 130.545 54.1426C131.385 55.0605 131.805 56.3333 131.805 57.9609C131.805 59.556 131.352 60.8353 130.447 61.7988C129.549 62.7559 128.341 63.2344 126.824 63.2344ZM126.941 54.1133C125.913 54.1133 125.099 54.4648 124.5 55.168C123.901 55.8646 123.602 56.8281 123.602 58.0586C123.602 59.2435 123.904 60.1777 124.51 60.8613C125.115 61.5449 125.926 61.8867 126.941 61.8867C127.977 61.8867 128.771 61.5514 129.324 60.8809C129.884 60.2103 130.164 59.2565 130.164 58.0195C130.164 56.7695 129.884 55.806 129.324 55.1289C128.771 54.4518 127.977 54.1133 126.941 54.1133ZM141.18 62.541C140.411 63.0033 139.5 63.2344 138.445 63.2344C137.02 63.2344 135.867 62.7721 134.988 61.8477C134.116 60.9167 133.68 59.7122 133.68 58.2344C133.68 56.5872 134.152 55.2656 135.096 54.2695C136.04 53.2669 137.299 52.7656 138.875 52.7656C139.754 52.7656 140.529 52.9284 141.199 53.2539V54.8945C140.457 54.3737 139.663 54.1133 138.816 54.1133C137.794 54.1133 136.954 54.4811 136.297 55.2168C135.646 55.946 135.32 56.9062 135.32 58.0977C135.32 59.2695 135.626 60.194 136.238 60.8711C136.857 61.5482 137.684 61.8867 138.719 61.8867C139.591 61.8867 140.411 61.597 141.18 61.0176V62.541ZM151.688 63H150.086V61.418H150.047C149.383 62.6289 148.354 63.2344 146.961 63.2344C144.578 63.2344 143.387 61.8151 143.387 58.9766V53H144.979V58.7227C144.979 60.832 145.786 61.8867 147.4 61.8867C148.182 61.8867 148.823 61.6003 149.324 61.0273C149.832 60.4479 150.086 59.6927 150.086 58.7617V53H151.688V63ZM169.129 63H167.527V57.2578C167.527 56.151 167.355 55.3503 167.01 54.8555C166.671 54.3607 166.098 54.1133 165.291 54.1133C164.607 54.1133 164.025 54.4258 163.543 55.0508C163.068 55.6758 162.83 56.4245 162.83 57.2969V63H161.229V57.0625C161.229 55.0964 160.47 54.1133 158.953 54.1133C158.25 54.1133 157.671 54.4095 157.215 55.002C156.759 55.5879 156.531 56.3529 156.531 57.2969V63H154.93V53H156.531V54.582H156.57C157.28 53.3711 158.315 52.7656 159.676 52.7656C160.359 52.7656 160.955 52.9577 161.463 53.3418C161.971 53.7194 162.319 54.2174 162.508 54.8359C163.25 53.4557 164.357 52.7656 165.828 52.7656C168.029 52.7656 169.129 54.123 169.129 56.8379V63ZM180.193 58.4004H173.133C173.159 59.5137 173.458 60.373 174.031 60.9785C174.604 61.584 175.392 61.8867 176.395 61.8867C177.521 61.8867 178.556 61.5156 179.5 60.7734V62.2773C178.621 62.9154 177.459 63.2344 176.014 63.2344C174.601 63.2344 173.491 62.7819 172.684 61.877C171.876 60.9655 171.473 59.6862 171.473 58.0391C171.473 56.4831 171.912 55.2168 172.791 54.2402C173.676 53.2572 174.773 52.7656 176.082 52.7656C177.391 52.7656 178.403 53.1888 179.119 54.0352C179.835 54.8815 180.193 56.0566 180.193 57.5605V58.4004ZM178.553 57.043C178.546 56.1185 178.322 55.3991 177.879 54.8848C177.443 54.3704 176.834 54.1133 176.053 54.1133C175.298 54.1133 174.656 54.3835 174.129 54.9238C173.602 55.4642 173.276 56.1706 173.152 57.043H178.553ZM190.926 63H189.324V57.2969C189.324 55.1745 188.549 54.1133 187 54.1133C186.199 54.1133 185.535 54.416 185.008 55.0215C184.487 55.6204 184.227 56.3789 184.227 57.2969V63H182.625V53H184.227V54.6602H184.266C185.021 53.3971 186.115 52.7656 187.547 52.7656C188.641 52.7656 189.477 53.1204 190.057 53.8301C190.636 54.5332 190.926 55.5521 190.926 56.8867V63ZM198.592 62.9023C198.214 63.1107 197.716 63.2148 197.098 63.2148C195.346 63.2148 194.471 62.2383 194.471 60.2852V54.3672H192.752V53H194.471V50.5586L196.072 50.041V53H198.592V54.3672H196.072V60.002C196.072 60.6725 196.186 61.151 196.414 61.4375C196.642 61.724 197.02 61.8672 197.547 61.8672C197.951 61.8672 198.299 61.7565 198.592 61.5352V62.9023ZM200.125 62.6387V60.9199C200.997 61.5645 201.958 61.8867 203.006 61.8867C204.412 61.8867 205.115 61.418 205.115 60.4805C205.115 60.2135 205.053 59.9889 204.93 59.8066C204.812 59.6178 204.65 59.4518 204.441 59.3086C204.24 59.1654 203.999 59.0384 203.719 58.9277C203.445 58.8105 203.149 58.6901 202.83 58.5664C202.387 58.3906 201.997 58.2148 201.658 58.0391C201.326 57.8568 201.046 57.6549 200.818 57.4336C200.597 57.2057 200.428 56.9486 200.311 56.6621C200.2 56.3757 200.145 56.0404 200.145 55.6562C200.145 55.1875 200.252 54.7741 200.467 54.416C200.682 54.0514 200.968 53.7487 201.326 53.5078C201.684 53.2604 202.091 53.0749 202.547 52.9512C203.009 52.8275 203.484 52.7656 203.973 52.7656C204.839 52.7656 205.613 52.9154 206.297 53.2148V54.8359C205.561 54.3542 204.715 54.1133 203.758 54.1133C203.458 54.1133 203.188 54.1491 202.947 54.2207C202.706 54.2858 202.498 54.3802 202.322 54.5039C202.153 54.6276 202.02 54.7773 201.922 54.9531C201.831 55.1224 201.785 55.3112 201.785 55.5195C201.785 55.7799 201.831 55.998 201.922 56.1738C202.02 56.3496 202.16 56.5059 202.342 56.6426C202.524 56.7793 202.745 56.903 203.006 57.0137C203.266 57.1243 203.562 57.2448 203.895 57.375C204.337 57.5443 204.734 57.7201 205.086 57.9023C205.438 58.0781 205.737 58.2799 205.984 58.5078C206.232 58.7292 206.421 58.9863 206.551 59.2793C206.688 59.5723 206.756 59.9206 206.756 60.3242C206.756 60.819 206.645 61.2487 206.424 61.6133C206.209 61.9779 205.919 62.2806 205.555 62.5215C205.19 62.7624 204.77 62.9414 204.295 63.0586C203.82 63.1758 203.322 63.2344 202.801 63.2344C201.772 63.2344 200.88 63.0358 200.125 62.6387Z" fill="#0A62F1"/>
<defs>
<filter id="filter0_d_546_648" x="0" y="0" width="319.343" height="110" filterUnits="userSpaceOnUse" color-interpolation-filters="sRGB">
<feFlood flood-opacity="0" result="BackgroundImageFix"/>
<feColorMatrix in="SourceAlpha" type="matrix" values="0 0 0 0 0 0 0 0 0 0 0 0 0 0 0 0 0 0 127 0" result="hardAlpha"/>
<feOffset dx="4"/>
<feGaussianBlur stdDeviation="10"/>
<feComposite in2="hardAlpha" operator="out"/>
<feColorMatrix type="matrix" values="0 0 0 0 0 0 0 0 0 0 0 0 0 0 0 0 0 0 0.15 0"/>
<feBlend mode="normal" in2="BackgroundImageFix" result="effect1_dropShadow_546_648"/>
<feBlend mode="normal" in="SourceGraphic" in2="effect1_dropShadow_546_648" result="shape"/>
</filter>
</defs>
</svg>
