<svg width="320" height="110" viewBox="0 0 320 110" fill="none" xmlns="http://www.w3.org/2000/svg">
<g filter="url(#filter0_d_546_646)">
<path d="M16 30C16 24.4772 20.4772 20 26 20H262.087C264.865 20 267.517 21.1553 269.409 23.189L292.664 48.189C296.235 52.0277 296.235 57.9723 292.664 61.811L269.409 86.811C267.517 88.8447 264.865 90 262.087 90H26C20.4772 90 16 85.5229 16 80V30Z" fill="white"/>
<path d="M16.5 30C16.5 24.7533 20.7533 20.5 26 20.5H262.087C264.726 20.5 267.246 21.5975 269.043 23.5296L292.298 48.5296C295.69 52.1763 295.69 57.8237 292.298 61.4704L269.043 86.4704C267.246 88.4025 264.726 89.5 262.087 89.5H26C20.7533 89.5 16.5 85.2467 16.5 80V30Z" stroke="#0A62F1"/>
</g>
<path d="M101.258 63H93.8359V48.9961H100.945V50.4805H95.4766V55.1387H100.535V56.6133H95.4766V61.5156H101.258V63ZM117.938 63H116.336V57.2578C116.336 56.151 116.163 55.3503 115.818 54.8555C115.48 54.3607 114.907 54.1133 114.1 54.1133C113.416 54.1133 112.833 54.4258 112.352 55.0508C111.876 55.6758 111.639 56.4245 111.639 57.2969V63H110.037V57.0625C110.037 55.0964 109.279 54.1133 107.762 54.1133C107.059 54.1133 106.479 54.4095 106.023 55.002C105.568 55.5879 105.34 56.3529 105.34 57.2969V63H103.738V53H105.34V54.582H105.379C106.089 53.3711 107.124 52.7656 108.484 52.7656C109.168 52.7656 109.764 52.9577 110.271 53.3418C110.779 53.7194 111.128 54.2174 111.316 54.8359C112.059 53.4557 113.165 52.7656 114.637 52.7656C116.837 52.7656 117.938 54.123 117.938 56.8379V63ZM122.605 61.5547H122.566V67.5996H120.965V53H122.566V54.7578H122.605C123.393 53.4297 124.546 52.7656 126.062 52.7656C127.352 52.7656 128.357 53.2148 129.08 54.1133C129.803 55.0052 130.164 56.2031 130.164 57.707C130.164 59.3802 129.757 60.7214 128.943 61.7305C128.13 62.7331 127.016 63.2344 125.604 63.2344C124.308 63.2344 123.309 62.6745 122.605 61.5547ZM122.566 57.5215V58.918C122.566 59.7448 122.833 60.4479 123.367 61.0273C123.908 61.6003 124.591 61.8867 125.418 61.8867C126.388 61.8867 127.146 61.5156 127.693 60.7734C128.247 60.0312 128.523 58.9993 128.523 57.6777C128.523 56.5645 128.266 55.6921 127.752 55.0605C127.238 54.429 126.541 54.1133 125.662 54.1133C124.731 54.1133 123.982 54.4388 123.416 55.0898C122.85 55.7344 122.566 56.5449 122.566 57.5215ZM134.324 63H132.723V48.1953H134.324V63ZM141.746 63.2344C140.268 63.2344 139.087 62.7689 138.201 61.8379C137.322 60.9004 136.883 59.6602 136.883 58.1172C136.883 56.4375 137.342 55.1257 138.26 54.1816C139.178 53.2376 140.418 52.7656 141.98 52.7656C143.471 52.7656 144.633 53.2246 145.467 54.1426C146.307 55.0605 146.727 56.3333 146.727 57.9609C146.727 59.556 146.274 60.8353 145.369 61.7988C144.471 62.7559 143.263 63.2344 141.746 63.2344ZM141.863 54.1133C140.835 54.1133 140.021 54.4648 139.422 55.168C138.823 55.8646 138.523 56.8281 138.523 58.0586C138.523 59.2435 138.826 60.1777 139.432 60.8613C140.037 61.5449 140.848 61.8867 141.863 61.8867C142.898 61.8867 143.693 61.5514 144.246 60.8809C144.806 60.2103 145.086 59.2565 145.086 58.0195C145.086 56.7695 144.806 55.806 144.246 55.1289C143.693 54.4518 142.898 54.1133 141.863 54.1133ZM157.244 53L152.645 64.6016C151.824 66.6719 150.672 67.707 149.188 67.707C148.771 67.707 148.423 67.6647 148.143 67.5801V66.1445C148.488 66.2617 148.803 66.3203 149.09 66.3203C149.897 66.3203 150.503 65.8385 150.906 64.875L151.707 62.9805L147.801 53H149.578L152.283 60.6953C152.316 60.793 152.384 61.0469 152.488 61.457H152.547C152.579 61.3008 152.645 61.0534 152.742 60.7148L155.584 53H157.244ZM167.01 58.4004H159.949C159.975 59.5137 160.275 60.373 160.848 60.9785C161.421 61.584 162.208 61.8867 163.211 61.8867C164.337 61.8867 165.372 61.5156 166.316 60.7734V62.2773C165.438 62.9154 164.275 63.2344 162.83 63.2344C161.417 63.2344 160.307 62.7819 159.5 61.877C158.693 60.9655 158.289 59.6862 158.289 58.0391C158.289 56.4831 158.729 55.2168 159.607 54.2402C160.493 53.2572 161.59 52.7656 162.898 52.7656C164.207 52.7656 165.219 53.1888 165.936 54.0352C166.652 54.8815 167.01 56.0566 167.01 57.5605V58.4004ZM165.369 57.043C165.363 56.1185 165.138 55.3991 164.695 54.8848C164.259 54.3704 163.65 54.1133 162.869 54.1133C162.114 54.1133 161.473 54.3835 160.945 54.9238C160.418 55.4642 160.092 56.1706 159.969 57.043H165.369ZM177.479 58.4004H170.418C170.444 59.5137 170.743 60.373 171.316 60.9785C171.889 61.584 172.677 61.8867 173.68 61.8867C174.806 61.8867 175.841 61.5156 176.785 60.7734V62.2773C175.906 62.9154 174.744 63.2344 173.299 63.2344C171.886 63.2344 170.776 62.7819 169.969 61.877C169.161 60.9655 168.758 59.6862 168.758 58.0391C168.758 56.4831 169.197 55.2168 170.076 54.2402C170.962 53.2572 172.059 52.7656 173.367 52.7656C174.676 52.7656 175.688 53.1888 176.404 54.0352C177.12 54.8815 177.479 56.0566 177.479 57.5605V58.4004ZM175.838 57.043C175.831 56.1185 175.607 55.3991 175.164 54.8848C174.728 54.3704 174.119 54.1133 173.338 54.1133C172.583 54.1133 171.941 54.3835 171.414 54.9238C170.887 55.4642 170.561 56.1706 170.438 57.043H175.838ZM195.652 63H193.699L191.355 59.0742C191.141 58.7096 190.932 58.4004 190.73 58.1465C190.529 57.8861 190.32 57.6745 190.105 57.5117C189.897 57.349 189.669 57.2318 189.422 57.1602C189.181 57.082 188.908 57.043 188.602 57.043H187.254V63H185.613V48.9961H189.793C190.405 48.9961 190.968 49.0742 191.482 49.2305C192.003 49.3802 192.452 49.6113 192.83 49.9238C193.214 50.2363 193.514 50.627 193.729 51.0957C193.943 51.5579 194.051 52.1016 194.051 52.7266C194.051 53.2148 193.976 53.6641 193.826 54.0742C193.683 54.4779 193.475 54.8392 193.201 55.1582C192.934 55.4772 192.609 55.7507 192.225 55.9785C191.847 56.1999 191.421 56.3724 190.945 56.4961V56.5352C191.18 56.6393 191.382 56.7598 191.551 56.8965C191.727 57.0267 191.893 57.1829 192.049 57.3652C192.205 57.5475 192.358 57.7559 192.508 57.9902C192.664 58.2181 192.837 58.485 193.025 58.791L195.652 63ZM187.254 50.4805V55.5586H189.48C189.891 55.5586 190.268 55.4967 190.613 55.373C190.965 55.2493 191.268 55.0736 191.521 54.8457C191.775 54.6113 191.974 54.3281 192.117 53.9961C192.26 53.6576 192.332 53.2799 192.332 52.8633C192.332 52.1146 192.088 51.5319 191.6 51.1152C191.118 50.6921 190.418 50.4805 189.5 50.4805H187.254ZM200.965 63.2344C199.487 63.2344 198.305 62.7689 197.42 61.8379C196.541 60.9004 196.102 59.6602 196.102 58.1172C196.102 56.4375 196.561 55.1257 197.479 54.1816C198.396 53.2376 199.637 52.7656 201.199 52.7656C202.69 52.7656 203.852 53.2246 204.686 54.1426C205.525 55.0605 205.945 56.3333 205.945 57.9609C205.945 59.556 205.493 60.8353 204.588 61.7988C203.689 62.7559 202.482 63.2344 200.965 63.2344ZM201.082 54.1133C200.053 54.1133 199.24 54.4648 198.641 55.168C198.042 55.8646 197.742 56.8281 197.742 58.0586C197.742 59.2435 198.045 60.1777 198.65 60.8613C199.256 61.5449 200.066 61.8867 201.082 61.8867C202.117 61.8867 202.911 61.5514 203.465 60.8809C204.025 60.2103 204.305 59.2565 204.305 58.0195C204.305 56.7695 204.025 55.806 203.465 55.1289C202.911 54.4518 202.117 54.1133 201.082 54.1133ZM210.105 63H208.504V48.1953H210.105V63ZM221.385 58.4004H214.324C214.35 59.5137 214.65 60.373 215.223 60.9785C215.796 61.584 216.583 61.8867 217.586 61.8867C218.712 61.8867 219.747 61.5156 220.691 60.7734V62.2773C219.812 62.9154 218.65 63.2344 217.205 63.2344C215.792 63.2344 214.682 62.7819 213.875 61.877C213.068 60.9655 212.664 59.6862 212.664 58.0391C212.664 56.4831 213.104 55.2168 213.982 54.2402C214.868 53.2572 215.965 52.7656 217.273 52.7656C218.582 52.7656 219.594 53.1888 220.311 54.0352C221.027 54.8815 221.385 56.0566 221.385 57.5605V58.4004ZM219.744 57.043C219.738 56.1185 219.513 55.3991 219.07 54.8848C218.634 54.3704 218.025 54.1133 217.244 54.1133C216.489 54.1133 215.848 54.3835 215.32 54.9238C214.793 55.4642 214.467 56.1706 214.344 57.043H219.744Z" fill="#0A62F1"/>
<defs>
<filter id="filter0_d_546_646" x="0" y="0" width="319.343" height="110" filterUnits="userSpaceOnUse" color-interpolation-filters="sRGB">
<feFlood flood-opacity="0" result="BackgroundImageFix"/>
<feColorMatrix in="SourceAlpha" type="matrix" values="0 0 0 0 0 0 0 0 0 0 0 0 0 0 0 0 0 0 127 0" result="hardAlpha"/>
<feOffset dx="4"/>
<feGaussianBlur stdDeviation="10"/>
<feComposite in2="hardAlpha" operator="out"/>
<feColorMatrix type="matrix" values="0 0 0 0 0 0 0 0 0 0 0 0 0 0 0 0 0 0 0.15 0"/>
<feBlend mode="normal" in2="BackgroundImageFix" result="effect1_dropShadow_546_646"/>
<feBlend mode="normal" in="SourceGraphic" in2="effect1_dropShadow_546_646" result="shape"/>
</filter>
</defs>
</svg>
