<svg width="320" height="110" viewBox="0 0 320 110" fill="none" xmlns="http://www.w3.org/2000/svg">
<g filter="url(#filter0_d_546_645)">
<path d="M16 30C16 24.4772 20.4772 20 26 20H262.087C264.865 20 267.517 21.1553 269.409 23.189L292.664 48.189C296.235 52.0277 296.235 57.9723 292.664 61.811L269.409 86.811C267.517 88.8447 264.865 90 262.087 90H26C20.4772 90 16 85.5229 16 80V30Z" fill="white"/>
<path d="M16.5 30C16.5 24.7533 20.7533 20.5 26 20.5H262.087C264.726 20.5 267.246 21.5975 269.043 23.5296L292.298 48.5296C295.69 52.1763 295.69 57.8237 292.298 61.4704L269.043 86.4704C267.246 88.4025 264.726 89.5 262.087 89.5H26C20.7533 89.5 16.5 85.2467 16.5 80V30Z" stroke="#0A62F1"/>
</g>
<path d="M90.2578 63H82.8359V48.9961H89.9453V50.4805H84.4766V55.1387H89.5352V56.6133H84.4766V61.5156H90.2578V63ZM106.938 63H105.336V57.2578C105.336 56.151 105.163 55.3503 104.818 54.8555C104.48 54.3607 103.907 54.1133 103.1 54.1133C102.416 54.1133 101.833 54.4258 101.352 55.0508C100.876 55.6758 100.639 56.4245 100.639 57.2969V63H99.0371V57.0625C99.0371 55.0964 98.2786 54.1133 96.7617 54.1133C96.0586 54.1133 95.4792 54.4095 95.0234 55.002C94.5677 55.5879 94.3398 56.3529 94.3398 57.2969V63H92.7383V53H94.3398V54.582H94.3789C95.0885 53.3711 96.1237 52.7656 97.4844 52.7656C98.168 52.7656 98.7637 52.9577 99.2715 53.3418C99.7793 53.7194 100.128 54.2174 100.316 54.8359C101.059 53.4557 102.165 52.7656 103.637 52.7656C105.837 52.7656 106.938 54.123 106.938 56.8379V63ZM111.605 61.5547H111.566V67.5996H109.965V53H111.566V54.7578H111.605C112.393 53.4297 113.546 52.7656 115.062 52.7656C116.352 52.7656 117.357 53.2148 118.08 54.1133C118.803 55.0052 119.164 56.2031 119.164 57.707C119.164 59.3802 118.757 60.7214 117.943 61.7305C117.13 62.7331 116.016 63.2344 114.604 63.2344C113.308 63.2344 112.309 62.6745 111.605 61.5547ZM111.566 57.5215V58.918C111.566 59.7448 111.833 60.4479 112.367 61.0273C112.908 61.6003 113.591 61.8867 114.418 61.8867C115.388 61.8867 116.146 61.5156 116.693 60.7734C117.247 60.0312 117.523 58.9993 117.523 57.6777C117.523 56.5645 117.266 55.6921 116.752 55.0605C116.238 54.429 115.541 54.1133 114.662 54.1133C113.731 54.1133 112.982 54.4388 112.416 55.0898C111.85 55.7344 111.566 56.5449 111.566 57.5215ZM123.324 63H121.723V48.1953H123.324V63ZM130.746 63.2344C129.268 63.2344 128.087 62.7689 127.201 61.8379C126.322 60.9004 125.883 59.6602 125.883 58.1172C125.883 56.4375 126.342 55.1257 127.26 54.1816C128.178 53.2376 129.418 52.7656 130.98 52.7656C132.471 52.7656 133.633 53.2246 134.467 54.1426C135.307 55.0605 135.727 56.3333 135.727 57.9609C135.727 59.556 135.274 60.8353 134.369 61.7988C133.471 62.7559 132.263 63.2344 130.746 63.2344ZM130.863 54.1133C129.835 54.1133 129.021 54.4648 128.422 55.168C127.823 55.8646 127.523 56.8281 127.523 58.0586C127.523 59.2435 127.826 60.1777 128.432 60.8613C129.037 61.5449 129.848 61.8867 130.863 61.8867C131.898 61.8867 132.693 61.5514 133.246 60.8809C133.806 60.2103 134.086 59.2565 134.086 58.0195C134.086 56.7695 133.806 55.806 133.246 55.1289C132.693 54.4518 131.898 54.1133 130.863 54.1133ZM146.244 53L141.645 64.6016C140.824 66.6719 139.672 67.707 138.188 67.707C137.771 67.707 137.423 67.6647 137.143 67.5801V66.1445C137.488 66.2617 137.803 66.3203 138.09 66.3203C138.897 66.3203 139.503 65.8385 139.906 64.875L140.707 62.9805L136.801 53H138.578L141.283 60.6953C141.316 60.793 141.384 61.0469 141.488 61.457H141.547C141.579 61.3008 141.645 61.0534 141.742 60.7148L144.584 53H146.244ZM156.01 58.4004H148.949C148.975 59.5137 149.275 60.373 149.848 60.9785C150.421 61.584 151.208 61.8867 152.211 61.8867C153.337 61.8867 154.372 61.5156 155.316 60.7734V62.2773C154.438 62.9154 153.275 63.2344 151.83 63.2344C150.417 63.2344 149.307 62.7819 148.5 61.877C147.693 60.9655 147.289 59.6862 147.289 58.0391C147.289 56.4831 147.729 55.2168 148.607 54.2402C149.493 53.2572 150.59 52.7656 151.898 52.7656C153.207 52.7656 154.219 53.1888 154.936 54.0352C155.652 54.8815 156.01 56.0566 156.01 57.5605V58.4004ZM154.369 57.043C154.363 56.1185 154.138 55.3991 153.695 54.8848C153.259 54.3704 152.65 54.1133 151.869 54.1133C151.114 54.1133 150.473 54.3835 149.945 54.9238C149.418 55.4642 149.092 56.1706 148.969 57.043H154.369ZM166.479 58.4004H159.418C159.444 59.5137 159.743 60.373 160.316 60.9785C160.889 61.584 161.677 61.8867 162.68 61.8867C163.806 61.8867 164.841 61.5156 165.785 60.7734V62.2773C164.906 62.9154 163.744 63.2344 162.299 63.2344C160.886 63.2344 159.776 62.7819 158.969 61.877C158.161 60.9655 157.758 59.6862 157.758 58.0391C157.758 56.4831 158.197 55.2168 159.076 54.2402C159.962 53.2572 161.059 52.7656 162.367 52.7656C163.676 52.7656 164.688 53.1888 165.404 54.0352C166.12 54.8815 166.479 56.0566 166.479 57.5605V58.4004ZM164.838 57.043C164.831 56.1185 164.607 55.3991 164.164 54.8848C163.728 54.3704 163.119 54.1133 162.338 54.1133C161.583 54.1133 160.941 54.3835 160.414 54.9238C159.887 55.4642 159.561 56.1706 159.438 57.043H164.838ZM174.613 63V48.9961H178.48C183.415 48.9961 185.883 51.2715 185.883 55.8223C185.883 57.9837 185.196 59.722 183.822 61.0371C182.455 62.3457 180.622 63 178.324 63H174.613ZM176.254 50.4805V61.5156H178.344C180.18 61.5156 181.609 61.0241 182.631 60.041C183.653 59.0579 184.164 57.6647 184.164 55.8613C184.164 52.2741 182.257 50.4805 178.441 50.4805H176.254ZM196.459 58.4004H189.398C189.424 59.5137 189.724 60.373 190.297 60.9785C190.87 61.584 191.658 61.8867 192.66 61.8867C193.786 61.8867 194.822 61.5156 195.766 60.7734V62.2773C194.887 62.9154 193.725 63.2344 192.279 63.2344C190.867 63.2344 189.757 62.7819 188.949 61.877C188.142 60.9655 187.738 59.6862 187.738 58.0391C187.738 56.4831 188.178 55.2168 189.057 54.2402C189.942 53.2572 191.039 52.7656 192.348 52.7656C193.656 52.7656 194.669 53.1888 195.385 54.0352C196.101 54.8815 196.459 56.0566 196.459 57.5605V58.4004ZM194.818 57.043C194.812 56.1185 194.587 55.3991 194.145 54.8848C193.708 54.3704 193.1 54.1133 192.318 54.1133C191.563 54.1133 190.922 54.3835 190.395 54.9238C189.867 55.4642 189.542 56.1706 189.418 57.043H194.818ZM203.529 62.9023C203.152 63.1107 202.654 63.2148 202.035 63.2148C200.284 63.2148 199.408 62.2383 199.408 60.2852V54.3672H197.689V53H199.408V50.5586L201.01 50.041V53H203.529V54.3672H201.01V60.002C201.01 60.6725 201.124 61.151 201.352 61.4375C201.579 61.724 201.957 61.8672 202.484 61.8672C202.888 61.8672 203.236 61.7565 203.529 61.5352V62.9023ZM212.826 63H211.225V61.4375H211.186C210.489 62.6354 209.464 63.2344 208.109 63.2344C207.113 63.2344 206.332 62.9707 205.766 62.4434C205.206 61.916 204.926 61.2161 204.926 60.3438C204.926 58.4753 206.026 57.388 208.227 57.082L211.225 56.6621C211.225 54.9629 210.538 54.1133 209.164 54.1133C207.96 54.1133 206.872 54.5234 205.902 55.3438V53.7031C206.885 53.0781 208.018 52.7656 209.301 52.7656C211.651 52.7656 212.826 54.0091 212.826 56.4961V63ZM211.225 57.9414L208.812 58.2734C208.07 58.3776 207.51 58.5632 207.133 58.8301C206.755 59.0905 206.566 59.556 206.566 60.2266C206.566 60.7148 206.739 61.1152 207.084 61.4277C207.436 61.7337 207.901 61.8867 208.48 61.8867C209.275 61.8867 209.929 61.61 210.443 61.0566C210.964 60.4967 211.225 59.7904 211.225 58.9375V57.9414ZM216.664 50.4609C216.378 50.4609 216.133 50.3633 215.932 50.168C215.73 49.9727 215.629 49.7253 215.629 49.4258C215.629 49.1263 215.73 48.8789 215.932 48.6836C216.133 48.4818 216.378 48.3809 216.664 48.3809C216.957 48.3809 217.204 48.4818 217.406 48.6836C217.615 48.8789 217.719 49.1263 217.719 49.4258C217.719 49.7122 217.615 49.9564 217.406 50.1582C217.204 50.36 216.957 50.4609 216.664 50.4609ZM217.445 63H215.844V53H217.445V63ZM222.289 63H220.688V48.1953H222.289V63ZM224.926 62.6387V60.9199C225.798 61.5645 226.758 61.8867 227.807 61.8867C229.213 61.8867 229.916 61.418 229.916 60.4805C229.916 60.2135 229.854 59.9889 229.73 59.8066C229.613 59.6178 229.451 59.4518 229.242 59.3086C229.04 59.1654 228.799 59.0384 228.52 58.9277C228.246 58.8105 227.95 58.6901 227.631 58.5664C227.188 58.3906 226.798 58.2148 226.459 58.0391C226.127 57.8568 225.847 57.6549 225.619 57.4336C225.398 57.2057 225.229 56.9486 225.111 56.6621C225.001 56.3757 224.945 56.0404 224.945 55.6562C224.945 55.1875 225.053 54.7741 225.268 54.416C225.482 54.0514 225.769 53.7487 226.127 53.5078C226.485 53.2604 226.892 53.0749 227.348 52.9512C227.81 52.8275 228.285 52.7656 228.773 52.7656C229.639 52.7656 230.414 52.9154 231.098 53.2148V54.8359C230.362 54.3542 229.516 54.1133 228.559 54.1133C228.259 54.1133 227.989 54.1491 227.748 54.2207C227.507 54.2858 227.299 54.3802 227.123 54.5039C226.954 54.6276 226.82 54.7773 226.723 54.9531C226.632 55.1224 226.586 55.3112 226.586 55.5195C226.586 55.7799 226.632 55.998 226.723 56.1738C226.82 56.3496 226.96 56.5059 227.143 56.6426C227.325 56.7793 227.546 56.903 227.807 57.0137C228.067 57.1243 228.363 57.2448 228.695 57.375C229.138 57.5443 229.535 57.7201 229.887 57.9023C230.238 58.0781 230.538 58.2799 230.785 58.5078C231.033 58.7292 231.221 58.9863 231.352 59.2793C231.488 59.5723 231.557 59.9206 231.557 60.3242C231.557 60.819 231.446 61.2487 231.225 61.6133C231.01 61.9779 230.72 62.2806 230.355 62.5215C229.991 62.7624 229.571 62.9414 229.096 63.0586C228.62 63.1758 228.122 63.2344 227.602 63.2344C226.573 63.2344 225.681 63.0358 224.926 62.6387Z" fill="#0A62F1"/>
<defs>
<filter id="filter0_d_546_645" x="0" y="0" width="319.342" height="110" filterUnits="userSpaceOnUse" color-interpolation-filters="sRGB">
<feFlood flood-opacity="0" result="BackgroundImageFix"/>
<feColorMatrix in="SourceAlpha" type="matrix" values="0 0 0 0 0 0 0 0 0 0 0 0 0 0 0 0 0 0 127 0" result="hardAlpha"/>
<feOffset dx="4"/>
<feGaussianBlur stdDeviation="10"/>
<feComposite in2="hardAlpha" operator="out"/>
<feColorMatrix type="matrix" values="0 0 0 0 0 0 0 0 0 0 0 0 0 0 0 0 0 0 0.15 0"/>
<feBlend mode="normal" in2="BackgroundImageFix" result="effect1_dropShadow_546_645"/>
<feBlend mode="normal" in="SourceGraphic" in2="effect1_dropShadow_546_645" result="shape"/>
</filter>
</defs>
</svg>
