<svg width="320" height="110" viewBox="0 0 320 110" fill="none" xmlns="http://www.w3.org/2000/svg">
<g filter="url(#filter0_d_546_650)">
<path d="M16 30C16 24.4772 20.4772 20 26 20H262.087C264.865 20 267.517 21.1553 269.409 23.189L292.664 48.189C296.235 52.0277 296.235 57.9723 292.664 61.811L269.409 86.811C267.517 88.8447 264.865 90 262.087 90H26C20.4772 90 16 85.5229 16 80V30Z" fill="#0A62F1"/>
</g>
<path d="M102 63H93.6016V48.9961H101.678V51.5645H96.7559V54.6797H101.336V57.2383H96.7559V60.4414H102V63ZM119.822 63H116.746V57.2969C116.746 55.8451 116.212 55.1191 115.145 55.1191C114.637 55.1191 114.223 55.3372 113.904 55.7734C113.585 56.2096 113.426 56.7533 113.426 57.4043V63H110.34V57.2383C110.34 55.8255 109.816 55.1191 108.768 55.1191C108.24 55.1191 107.817 55.3275 107.498 55.7441C107.186 56.1608 107.029 56.7272 107.029 57.4434V63H103.943V53H107.029V54.5625H107.068C107.387 54.0286 107.833 53.5957 108.406 53.2637C108.986 52.9251 109.617 52.7559 110.301 52.7559C111.714 52.7559 112.68 53.3776 113.201 54.6211C113.963 53.3776 115.083 52.7559 116.561 52.7559C118.735 52.7559 119.822 54.097 119.822 56.7793V63ZM125.389 61.8379H125.35V67.5996H122.264V53H125.35V54.5039H125.389C126.15 53.3385 127.221 52.7559 128.602 52.7559C129.897 52.7559 130.896 53.2018 131.6 54.0938C132.309 54.9792 132.664 56.1868 132.664 57.7168C132.664 59.3835 132.251 60.7214 131.424 61.7305C130.604 62.7396 129.51 63.2441 128.143 63.2441C126.938 63.2441 126.02 62.7754 125.389 61.8379ZM125.301 57.7363V58.5371C125.301 59.2272 125.483 59.7904 125.848 60.2266C126.212 60.6628 126.691 60.8809 127.283 60.8809C127.986 60.8809 128.53 60.6107 128.914 60.0703C129.305 59.5234 129.5 58.752 129.5 57.7559C129.5 55.998 128.816 55.1191 127.449 55.1191C126.818 55.1191 126.3 55.36 125.896 55.8418C125.499 56.3171 125.301 56.9486 125.301 57.7363ZM137.752 63H134.666V48.1953H137.752V63ZM145.115 63.2441C143.449 63.2441 142.137 62.7786 141.18 61.8477C140.229 60.9102 139.754 59.6406 139.754 58.0391C139.754 56.3854 140.249 55.0931 141.238 54.1621C142.228 53.2246 143.566 52.7559 145.252 52.7559C146.912 52.7559 148.214 53.2246 149.158 54.1621C150.102 55.0931 150.574 56.3268 150.574 57.8633C150.574 59.5234 150.086 60.8353 149.109 61.7988C148.139 62.7624 146.808 63.2441 145.115 63.2441ZM145.193 55.1191C144.464 55.1191 143.898 55.3698 143.494 55.8711C143.09 56.3724 142.889 57.082 142.889 58C142.889 59.9206 143.663 60.8809 145.213 60.8809C146.691 60.8809 147.43 59.8945 147.43 57.9219C147.43 56.0534 146.684 55.1191 145.193 55.1191ZM162.098 53L158.035 63.8008C157.059 66.3984 155.587 67.6973 153.621 67.6973C152.872 67.6973 152.257 67.6126 151.775 67.4434V64.9824C152.186 65.2233 152.632 65.3438 153.113 65.3438C153.908 65.3438 154.461 64.9694 154.773 64.2207L155.301 62.9805L151.238 53H154.656L156.521 59.084C156.639 59.4616 156.73 59.9076 156.795 60.4219H156.834C156.893 60.0443 157 59.6048 157.156 59.1035L159.041 53H162.098ZM172.127 58.8789H165.604C165.708 60.3307 166.622 61.0566 168.348 61.0566C169.448 61.0566 170.415 60.7962 171.248 60.2754V62.502C170.324 62.9967 169.122 63.2441 167.645 63.2441C166.03 63.2441 164.777 62.7982 163.885 61.9062C162.993 61.0078 162.547 59.7578 162.547 58.1562C162.547 56.4961 163.029 55.181 163.992 54.2109C164.956 53.2409 166.141 52.7559 167.547 52.7559C169.005 52.7559 170.132 53.1888 170.926 54.0547C171.727 54.9206 172.127 56.0957 172.127 57.5801V58.8789ZM169.266 56.9844C169.266 55.5521 168.686 54.8359 167.527 54.8359C167.033 54.8359 166.603 55.041 166.238 55.4512C165.88 55.8613 165.662 56.3724 165.584 56.9844H169.266ZM182.947 58.8789H176.424C176.528 60.3307 177.443 61.0566 179.168 61.0566C180.268 61.0566 181.235 60.7962 182.068 60.2754V62.502C181.144 62.9967 179.943 63.2441 178.465 63.2441C176.85 63.2441 175.597 62.7982 174.705 61.9062C173.813 61.0078 173.367 59.7578 173.367 58.1562C173.367 56.4961 173.849 55.181 174.812 54.2109C175.776 53.2409 176.961 52.7559 178.367 52.7559C179.826 52.7559 180.952 53.1888 181.746 54.0547C182.547 54.9206 182.947 56.0957 182.947 57.5801V58.8789ZM180.086 56.9844C180.086 55.5521 179.507 54.8359 178.348 54.8359C177.853 54.8359 177.423 55.041 177.059 55.4512C176.701 55.8613 176.482 56.3724 176.404 56.9844H180.086ZM202.361 63H198.738L196.561 59.3965C196.398 59.123 196.242 58.8789 196.092 58.6641C195.942 58.4492 195.789 58.2669 195.633 58.1172C195.483 57.9609 195.324 57.8438 195.154 57.7656C194.992 57.681 194.812 57.6387 194.617 57.6387H193.768V63H190.613V48.9961H195.613C199.012 48.9961 200.711 50.2656 200.711 52.8047C200.711 53.293 200.636 53.7454 200.486 54.1621C200.337 54.5723 200.125 54.9434 199.852 55.2754C199.578 55.6074 199.246 55.8939 198.855 56.1348C198.471 56.3757 198.042 56.5645 197.566 56.7012V56.7402C197.775 56.8053 197.977 56.9128 198.172 57.0625C198.367 57.2057 198.556 57.375 198.738 57.5703C198.921 57.7656 199.093 57.9772 199.256 58.2051C199.425 58.4264 199.578 58.6445 199.715 58.8594L202.361 63ZM193.768 51.3594V55.2559H195.135C195.812 55.2559 196.355 55.0605 196.766 54.6699C197.182 54.2728 197.391 53.7812 197.391 53.1953C197.391 51.9714 196.658 51.3594 195.193 51.3594H193.768ZM207.635 63.2441C205.968 63.2441 204.656 62.7786 203.699 61.8477C202.749 60.9102 202.273 59.6406 202.273 58.0391C202.273 56.3854 202.768 55.0931 203.758 54.1621C204.747 53.2246 206.085 52.7559 207.771 52.7559C209.432 52.7559 210.734 53.2246 211.678 54.1621C212.622 55.0931 213.094 56.3268 213.094 57.8633C213.094 59.5234 212.605 60.8353 211.629 61.7988C210.659 62.7624 209.327 63.2441 207.635 63.2441ZM207.713 55.1191C206.984 55.1191 206.417 55.3698 206.014 55.8711C205.61 56.3724 205.408 57.082 205.408 58C205.408 59.9206 206.183 60.8809 207.732 60.8809C209.21 60.8809 209.949 59.8945 209.949 57.9219C209.949 56.0534 209.204 55.1191 207.713 55.1191ZM218.182 63H215.096V48.1953H218.182V63ZM229.764 58.8789H223.24C223.344 60.3307 224.259 61.0566 225.984 61.0566C227.085 61.0566 228.051 60.7962 228.885 60.2754V62.502C227.96 62.9967 226.759 63.2441 225.281 63.2441C223.667 63.2441 222.413 62.7982 221.521 61.9062C220.63 61.0078 220.184 59.7578 220.184 58.1562C220.184 56.4961 220.665 55.181 221.629 54.2109C222.592 53.2409 223.777 52.7559 225.184 52.7559C226.642 52.7559 227.768 53.1888 228.562 54.0547C229.363 54.9206 229.764 56.0957 229.764 57.5801V58.8789ZM226.902 56.9844C226.902 55.5521 226.323 54.8359 225.164 54.8359C224.669 54.8359 224.24 55.041 223.875 55.4512C223.517 55.8613 223.299 56.3724 223.221 56.9844H226.902Z" fill="white"/>
<defs>
<filter id="filter0_d_546_650" x="0" y="0" width="319.342" height="110" filterUnits="userSpaceOnUse" color-interpolation-filters="sRGB">
<feFlood flood-opacity="0" result="BackgroundImageFix"/>
<feColorMatrix in="SourceAlpha" type="matrix" values="0 0 0 0 0 0 0 0 0 0 0 0 0 0 0 0 0 0 127 0" result="hardAlpha"/>
<feOffset dx="4"/>
<feGaussianBlur stdDeviation="10"/>
<feComposite in2="hardAlpha" operator="out"/>
<feColorMatrix type="matrix" values="0 0 0 0 0 0 0 0 0 0 0 0 0 0 0 0 0 0 0.15 0"/>
<feBlend mode="normal" in2="BackgroundImageFix" result="effect1_dropShadow_546_650"/>
<feBlend mode="normal" in="SourceGraphic" in2="effect1_dropShadow_546_650" result="shape"/>
</filter>
</defs>
</svg>
